<?xml version="1.0" encoding="utf-8"?>
<!-- Generator: Adobe Illustrator 26.0.1, SVG Export Plug-In . SVG Version: 6.00 Build 0)  -->
<svg version="1.1" id="Layer_1" xmlns="http://www.w3.org/2000/svg" xmlns:xlink="http://www.w3.org/1999/xlink" x="0px" y="0px"
	 viewBox="0 0 1435.3 530.7" style="enable-background:new 0 0 1435.3 530.7;" xml:space="preserve">
<style type="text/css">
	.st0{fill:#ECB23B;}
	.st1{fill:#ECB23B;stroke:#000000;stroke-width:3;stroke-miterlimit:10;}
</style>
<g>
	<g>
		<path d="M310.7,228.5c14.6-6.7,25.9-16,33.8-27.9c7.9-11.8,11.8-27.1,11.8-45.6c0-29-9.4-51.2-28-66.6c-18.7-15.3-44.6-23-77.9-23
			h-65.5v236.9h48.8v-58.9h16.7c4.6,0,9.3-0.3,13.9-1l39,59.9h56.4L310.7,228.5L310.7,228.5z M292.5,190.2
			c-9.1,6.9-23.6,10.4-43.5,10.4h-15.3v-92.3H249c19.7,0,34.2,3.6,43.4,10.8c9.2,7.2,13.8,19.1,13.8,35.7S301.6,183.2,292.5,190.2
			L292.5,190.2z"/>
		<path d="M447.6,259.5v-34.2h95.1v-41.8h-95.1v-75.3h108V65.4H398.8v236.9h161.6v-42.8H447.6L447.6,259.5z"/>
		<path d="M752.4,65.4l-39.7,91.3c-2.3,5.3-4.5,11.1-6.6,17.2c-2.1,6.2-4.1,11.9-5.9,17.2c-2.1,6.3-4,12.7-5.6,19.2
			c-1.9-6.5-3.8-12.9-5.9-19.2c-1.9-5.3-3.8-11.1-5.9-17.4c-2.1-6.3-4.3-12-6.6-17.1l-40.8-91.3h-52.3l108,239h4.9l103.8-239H752.4
			L752.4,65.4z"/>
		<path d="M832.9,165.6v136.7h48.8V188.6L832.9,165.6L832.9,165.6z"/>
		<path d="M980.6,259.5v-34.2h95.1v-41.8h-95.1v-75.3h108V65.4H931.9v236.9h161.7v-42.8H980.6z"/>
		<path d="M1387.9,65.4l-34.2,95.1c-1.6,4.2-3.1,8.7-4.5,13.6c-1.4,4.9-2.7,9.5-3.8,13.9c-1.4,5.1-2.8,10.2-4.2,15.3
			c-1.4-5.1-2.9-10.2-4.5-15.3c-1.4-4.4-3-9.1-4.7-14.1c-1.8-5-3.6-9.5-5.4-13.4l-46.3-97.2h-4.9l-45.6,97.2
			c-1.9,4-3.7,8.4-5.4,13.4c-1.8,5-3.3,9.7-4.7,14.1c-1.6,5.1-3.1,10.2-4.5,15.3c-1.4-5.1-2.8-10.2-4.2-15.3
			c-1.2-4.4-2.5-9.1-4-13.9c-1.5-4.9-2.9-9.4-4.4-13.6l-34.5-95.1h-51.6l87.5,239h4.9l55.4-114.3c1.6-3.2,3.2-6.9,4.7-11
			c1.5-4.1,3-8,4.4-11.7c1.4-4.2,2.9-8.4,4.5-12.5c1.4,4.2,2.8,8.4,4.2,12.5c1.2,3.7,2.5,7.6,4.2,11.7c1.6,4.1,3.2,7.7,4.9,11
			l53.3,114.3h4.9l86.1-239L1387.9,65.4L1387.9,65.4z"/>
	</g>
	<g>
		<path class="st0" d="M193.2,349.7h2.7l45.2,61c1,1.4,2.1,2.9,3.1,4.6c1.1,1.6,2.1,3.2,3.1,4.6c1,1.6,2,3.3,3,4.9
			c1-1.6,2-3.3,3-4.9c1.8-3,3.8-6.1,6.1-9.1l44.5-61h2.7l10.5,130.5h-26.4l-3.4-45.8c-0.3-2.1-0.4-4.5-0.5-7.1s-0.2-5.1-0.3-7.5
			c-0.1-2.8-0.3-5.6-0.4-8.4c-1.3,2.5-2.6,4.9-4,7.2c-1.1,2-2.4,4.1-3.8,6.4c-1.4,2.2-2.8,4.2-4.2,6l-23.4,31.4h-2.3L225,431.2
			c-1.4-1.8-2.8-3.8-4.3-6c-1.5-2.2-2.8-4.3-4.1-6.4c-1.4-2.3-2.9-4.7-4.4-7.2c0,2.8-0.1,5.6-0.2,8.4c-0.1,2.4-0.3,4.9-0.4,7.5
			c-0.1,2.6-0.3,5-0.4,7.1l-3.4,45.6h-25.1L193.2,349.7L193.2,349.7z"/>
		<path class="st0" d="M389.7,439.2l-49-88.2h29.5l22.8,41.6c1.3,2.3,2.5,4.9,3.7,7.7s2.3,5.5,3.3,8.1c1.1,2.9,2.3,5.8,3.4,8.7
			c1-2.9,2.1-5.8,3.2-8.7c1-2.5,2.1-5.2,3.2-8c1.1-2.8,2.3-5.4,3.6-7.8l21.8-41.6h27.2l-46,86.3v42.9h-26.6L389.7,439.2L389.7,439.2
			z"/>
		<path d="M585.4,481.9c-6.2,0-11.8-0.7-16.9-2.1c-5.1-1.4-9.6-3.3-13.7-5.7c-4.1-2.4-7.6-5.2-10.5-8.6c-3-3.3-5.4-6.9-7.3-10.7
			l21.7-12.5c2.9,4.7,6.4,8.5,10.4,11.6s9.3,4.6,15.9,4.6c5.6,0,10-1.2,13.2-3.7c3.2-2.5,4.8-5.6,4.8-9.4c0-4.6-1.7-8-5.1-10.3
			c-3.4-2.3-8.2-4.8-14.2-7.4l-6.7-2.9c-4.8-2-9.2-4.2-13.1-6.7c-3.9-2.4-7.3-5.2-10.1-8.4c-2.8-3.2-4.9-6.8-6.5-10.9
			s-2.3-8.8-2.3-14.3c0-5,0.9-9.6,2.8-13.9c1.8-4.3,4.4-8.1,7.8-11.2s7.4-5.6,12.3-7.4c4.8-1.8,10.2-2.7,16.2-2.7
			c8.5,0,15.8,1.6,21.9,4.9s11.4,8.8,15.9,16.6L601,384.3c-2.3-4-4.8-7-7.4-8.7s-5.9-2.7-9.7-2.7s-7,1.1-9.3,3.2
			c-2.3,2.1-3.4,4.9-3.4,8.2c0,4,1.3,7.1,3.9,9.2c2.6,2.1,6.8,4.4,12.4,6.9l6.7,2.8c5.7,2.4,10.7,4.9,15.1,7.5s8,5.5,11,8.7
			c3,3.2,5.3,6.9,6.8,11s2.4,9,2.4,14.5c0,5.9-1.1,11.2-3.3,15.8c-2.2,4.6-5.3,8.5-9.2,11.7s-8.6,5.5-14,7.1
			C597.6,481.2,591.8,481.9,585.4,481.9L585.4,481.9z"/>
		<path d="M665.4,351h85.5v23.4H692v41h51.9v22.8H692v18.6h61.6v23.4h-88.2V351z"/>
		<path d="M888.8,480.2h-30.8l-21.3-32.7c-2.5,0.4-5.1,0.6-7.6,0.6h-9.1v32.1h-26.6V351h35.7c18.1,0,32.3,4.2,42.5,12.5
			c10.2,8.4,15.3,20.5,15.3,36.3c0,10.1-2.2,18.4-6.5,24.9c-4.3,6.5-10.5,11.5-18.4,15.2L888.8,480.2L888.8,480.2z M828.4,424.7
			c10.9,0,18.8-1.9,23.8-5.7c4.9-3.8,7.4-10.2,7.4-19.3s-2.5-15.6-7.5-19.5c-5-3.9-12.9-5.9-23.7-5.9H820v50.4L828.4,424.7
			L828.4,424.7z"/>
		<path d="M910.1,351h28.5l22.2,49.8c1.3,2.8,2.5,5.9,3.6,9.3s2.2,6.6,3.2,9.5c1.1,3.4,2.2,6.9,3.2,10.5c0.9-3.5,1.9-7,3-10.5
			c1-2.9,2.1-6,3.2-9.4c1.1-3.4,2.3-6.5,3.6-9.4l21.7-49.8h25.8l-56.6,130.3H969L910.1,351L910.1,351z"/>
		<path d="M1061.6,351h26.6v129.2h-26.6V351z"/>
		<path d="M1192.8,481.9c-9.2,0-17.9-1.7-26-5c-8.1-3.4-15.1-8-21.1-13.9c-6-5.9-10.7-12.9-14.2-21c-3.5-8.1-5.2-16.9-5.2-26.4
			s1.7-18.3,5.2-26.4c3.5-8.1,8.2-15.1,14.2-21c5.9-5.9,13-10.5,21.1-13.8c8.1-3.3,16.8-4.9,26-4.9c11.8,0,21.9,2.1,30.3,6.4
			s15.6,10.9,21.4,20l-20.3,14.4c-3-4.9-7.2-9-12.3-12.2c-5.2-3.2-11.5-4.8-19-4.8c-5.8,0-11.2,1.1-16,3.2
			c-4.8,2.2-8.9,5.1-12.3,8.8c-3.4,3.7-6.1,8.2-8,13.3c-1.9,5.1-2.8,10.7-2.8,16.8s0.9,11.7,2.8,16.9c1.9,5.2,4.6,9.7,8,13.5
			c3.4,3.8,7.5,6.8,12.3,8.9c4.8,2.2,10.1,3.2,16,3.2c8.4,0,15.1-1.8,20.1-5.3c5.1-3.5,9.4-8.1,13.1-13.7l20.7,14.2
			c-5.7,8.7-13,15.7-21.8,20.8C1216.1,479.4,1205.4,481.9,1192.8,481.9L1192.8,481.9z"/>
		<path d="M1281.8,351h85.5v23.4h-58.9v41h51.9v22.8h-51.9v18.6h61.6v23.4h-88.2V351z"/>
	</g>
	<polygon class="st0" points="857,48.8 870.6,90.6 914.7,90.6 879,116.5 892.6,158.4 857,132.5 821.4,158.4 835,116.5 799.4,90.6 
		843.4,90.6 	"/>
	<g>
		<polygon points="0,243.8 7.6,287.4 2.3,309.9 44.7,324.4 44.7,229.4 		"/>
		<path d="M58.4,277c0,34.1,7.4,65.4,19.6,89.7V187.3C65.8,211.6,58.4,242.9,58.4,277L58.4,277z"/>
		<path d="M87.8,243.5c0,11.2,6.9,20.9,16.7,25c-0.9,2.8-1.4,5.6-1.4,8.6c0,3.3,0.6,6.6,1.8,9.6c-10,4-17,13.8-17,25.1
			c0,14.9,12.2,27.1,27.1,27.1s27.1-12.2,27.1-27.1s-12.2-27.1-27.1-27.1c-0.9,0-1.7,0.1-2.6,0.1c-1.1-2.4-1.6-5.1-1.6-7.8
			c0-2.3,0.4-4.5,1.2-6.7c1,0.1,2,0.2,3,0.2c14.9,0,27.1-12.2,27.1-27.1s-12.2-27.1-27.1-27.1S87.8,228.5,87.8,243.5L87.8,243.5z
			 M134.3,311.8c0,10.7-8.7,19.5-19.5,19.5s-19.5-8.7-19.5-19.5s8.7-19.5,19.5-19.5S134.3,301,134.3,311.8z M134.3,243.5
			c0,10.7-8.7,19.5-19.5,19.5s-19.5-8.7-19.5-19.5s8.7-19.5,19.5-19.5S134.3,232.7,134.3,243.5L134.3,243.5z"/>
	</g>
	<g>
		<path class="st1" d="M201.9,175.5c-3,1.6-11.7,3.4-15.5,4.1c-1.1,0.2-1.9,0.3-1.9,0.3l1.9,1.3v6.4c-2.3-0.9-14.8-6.2-15-13.3
			c-0.3-7.9,6.6-8.8,6.6-8.8s24.4,0.6,25.6,1.8S205.8,173.4,201.9,175.5L201.9,175.5z"/>
		<path class="st1" d="M178.4,166.2c-3.5-0.2-6.8-2-8.1-5.4c-1-2.7-0.8-6.1,1-8.4c2.3-3,6.2-2.3,9.5-2c8.8,0.7,17.7,1,26.3,3.1
			c0.6,0.1,1.1,0.3,1.7,0.4c2.1,0.6,3.7,2.3,4.2,4.5c0.6,2.3,0.8,5-0.7,7.1c-1.2,1.7-3.2,2.7-5.3,2.5
			C207,167.9,178.4,166.2,178.4,166.2L178.4,166.2z"/>
		<path class="st1" d="M176.7,150.5l27,1.5c0,0,8-0.3,6.8-7.8c-0.8-4.9-4.9-7.3-9.3-8.5c-7.7-2.2-16.1-4.1-24.2-2.8
			c-5,0.8-7.6,5.1-7.1,10C170.2,146.7,172.6,150.3,176.7,150.5L176.7,150.5z"/>
		<path class="st1" d="M178.8,132.7c0,0-5.8-3.6-4-10.3c1.8-6.7,9.4-4.8,9.4-4.8s7,1.5,9.1,2.7c4.6,2.6,1.5,10-0.9,10.6
			s-8.2,1.8-8.2,1.8L178.8,132.7L178.8,132.7z"/>
	</g>
	<g>
		<path class="st1" d="M198.9,448.5c-3,1.6-11.7,3.4-15.5,4c-1.1,0.2-1.9,0.3-1.9,0.3l1.9,1.3v6.4c-2.3-0.9-14.8-6.2-15-13.3
			c-0.3-7.9,6.6-8.8,6.6-8.8s24.4,0.6,25.6,1.8S202.8,446.4,198.9,448.5L198.9,448.5z"/>
		<path class="st1" d="M175.4,439.2c-3.5-0.2-6.8-2-8.1-5.4c-1-2.7-0.8-6.1,1-8.4c2.3-3,6.2-2.3,9.5-2c8.8,0.7,17.7,1,26.3,3.1
			c0.6,0.1,1.1,0.3,1.7,0.4c2.1,0.6,3.7,2.3,4.2,4.5c0.6,2.3,0.8,5-0.7,7.1c-1.2,1.7-3.2,2.6-5.3,2.5
			C204,440.9,175.4,439.2,175.4,439.2L175.4,439.2z"/>
		<path class="st1" d="M173.7,423.5l27,1.5c0,0,8-0.3,6.8-7.8c-0.8-4.9-4.9-7.3-9.3-8.5c-7.7-2.2-16.1-4.1-24.2-2.8
			c-5,0.8-7.6,5.1-7.1,10C167.2,419.7,169.6,423.3,173.7,423.5L173.7,423.5z"/>
		<path class="st1" d="M175.8,405.7c0,0-5.8-3.6-4-10.3s9.4-4.8,9.4-4.8s7,1.5,9.1,2.7c4.6,2.6,1.5,10-0.9,10.6s-8.2,1.8-8.2,1.8
			L175.8,405.7L175.8,405.7z"/>
	</g>
</g>
</svg>
