<svg width="214" height="89" viewBox="0 0 214 89" fill="none" xmlns="http://www.w3.org/2000/svg">
<path d="M32.5256 26.9565L31.7607 30.7672L40.0374 33.9167L51.3834 30.9704L49.925 26.9092L32.5256 26.9565Z" fill="#EAB13B"/>
<path d="M63.7943 34.8659C61.1371 36.6735 58.3848 36.8433 55.7296 37.1629C47.0389 38.2069 38.3184 38.272 29.6058 37.4688C26.9189 37.2221 24.2479 36.7367 21.5907 36.2473C20.6733 36.0776 19.8193 35.5606 18.9375 35.2014C18.9474 35.0356 18.9593 34.8718 18.9692 34.7061C23.059 33.3859 27.1032 31.89 31.2643 30.8461C32.6196 30.5067 34.2702 31.3533 35.788 31.6355C40.3276 32.4801 44.8117 32.2453 49.2938 31.1323C50.3757 30.8639 51.6676 30.8915 52.7336 31.2112C56.3538 32.2946 59.9205 33.5694 63.7943 34.8659ZM54.5368 34.1515C54.5427 34.3666 54.5507 34.5837 54.5566 34.7988C50.7442 35.4757 46.9339 36.1506 43.1215 36.8275C43.1314 36.9242 43.1433 37.0228 43.1532 37.1195C48.6518 36.49 54.1484 35.8625 59.647 35.233C59.6411 35.081 59.6371 34.931 59.6312 34.7791C57.186 33.9029 54.7429 33.0287 52.2977 32.1525C52.2601 32.2354 52.2244 32.3202 52.1868 32.4031C52.9694 32.9853 53.7541 33.5694 54.5368 34.1515Z" fill="#EFF7F9"/>
<path d="M32.5264 26.9566C33.0911 24.7641 33.527 22.7532 34.1333 20.7956C34.8665 18.4295 36.0059 17.7389 38.3638 18.3289C40.272 18.8084 42.0632 18.84 43.9873 18.3092C46.3254 17.6658 47.4113 18.3309 48.1523 20.6022C48.8102 22.6171 49.3075 24.6812 49.9258 26.9092C44.0744 27.8466 38.4569 27.7992 32.5264 26.9566ZM42.2178 26.3172C42.194 26.3823 42.1702 26.4474 42.1445 26.5126C44.1874 26.2146 46.2283 25.9146 48.3029 25.6107C48.2514 25.2614 48.2514 25.0542 48.19 24.8648C47.8393 23.7814 47.4965 22.6921 47.1081 21.6225C46.1887 19.0887 45.4417 18.7571 42.6755 19.7142C43.268 19.9569 43.7871 20.1207 44.2607 20.3694C45.6893 21.1212 46.0262 22.4612 46.0678 23.9136C46.1074 25.2141 44.8769 24.9792 44.1795 25.37C43.5494 25.7232 42.8737 26.0034 42.2178 26.3172Z" fill="#EFF7F9"/>
<path d="M38.1776 56.7784C34.1235 55.0734 30.2339 53.4394 26.2352 51.7581C27.337 50.7595 28.3317 49.8577 29.3937 48.8947C28.8052 47.8547 28.3634 47.0752 27.8858 46.2326C25.7518 47.0969 23.7425 47.9119 21.3291 48.8907C22.2584 47.0989 23.0292 45.6169 23.796 44.1348C24.6302 42.5206 25.407 40.8728 26.3363 39.3158C26.5741 38.9192 27.3211 38.56 27.7788 38.6192C28.4268 38.7041 29.1659 38.6626 29.4512 39.8033C30.7768 45.1058 33.3091 49.6189 38.4392 52.2573C38.7919 52.4389 39.0336 53.1079 39.0614 53.5677C39.0951 54.1103 38.8573 54.6747 38.7047 55.2214C38.5838 55.6634 38.4134 56.0916 38.1776 56.7784Z" fill="#EFF7F9"/>
<path d="M61.058 48.8633C58.276 47.7484 55.8942 46.7933 53.4075 45.7947C52.8328 46.5466 52.2741 47.2748 51.6202 48.1292C52.9002 49.0015 54.0891 49.8125 55.5039 50.7775C48.4439 51.7346 44.4215 56.5931 40.3495 61.4556C39.8918 58.606 41.4037 53.86 43.0582 51.6656C44.3323 49.9763 45.6579 48.2121 47.3184 46.9492C49.6327 45.1889 50.5878 42.9175 51.099 40.2515C51.1922 39.768 51.6558 39.0516 52.0363 38.9905C52.9081 38.8504 53.9405 38.0866 54.7212 39.2687C55.6624 40.6935 56.6571 42.0828 57.6003 43.5076C58.6842 45.1494 59.7363 46.813 61.058 48.8633ZM50.4452 49.6961C46.395 51.7011 43.1533 54.3711 41.4631 58.5922C44.6156 54.8368 48.0178 51.4485 53.3777 50.4204C52.0561 49.485 51.0237 48.7528 49.6228 47.7602C49.9993 48.6463 50.1935 49.1041 50.4452 49.6961ZM51.9392 45.7099C53.2945 44.6738 53.2965 44.6699 54.8322 45.3251C55.9557 45.8046 57.0712 46.2979 58.5791 46.9551C56.9424 44.4429 55.5138 42.2505 54.0851 40.0581C54.0376 40.0817 53.988 40.1054 53.9405 40.1291C54.2655 41.2993 54.5924 42.4696 54.9689 43.8213C54.1763 43.622 53.6096 43.4799 52.9933 43.326C52.6228 44.1608 52.28 44.9343 51.9392 45.7099Z" fill="#EFF7F9"/>
<path d="M48.8675 40.186C49.0558 41.7569 48.0016 43.5941 46.6562 44.1032C46.3174 44.2315 45.9587 44.3144 45.604 44.3933C43.1213 44.9459 43.0499 44.9794 41.8848 42.7633C40.8584 40.8116 39.7587 40.8274 38.7442 42.714C37.4602 45.1018 37.3096 45.0781 34.593 44.3262C32.8374 43.8408 31.6128 42.1653 31.6564 40.186C37.3551 40.186 43.0598 40.186 48.8675 40.186Z" fill="#EFF7F9"/>
<path d="M54.5374 34.1519C53.7547 33.5697 52.97 32.9876 52.1873 32.4035C52.225 32.3206 52.2607 32.2357 52.2983 32.1528C54.7435 33.029 57.1866 33.9032 59.6318 34.7794C59.6377 34.9314 59.6417 35.0813 59.6476 35.2333C54.149 35.8628 48.6524 36.4904 43.1538 37.1199C43.1439 37.0232 43.132 36.9245 43.1221 36.8278C46.9344 36.1509 50.7468 35.476 54.5572 34.7992C54.5513 34.5821 54.5433 34.367 54.5374 34.1519Z" fill="black"/>
<path d="M42.2178 26.3174C42.8737 26.0036 43.5474 25.7234 44.1815 25.3682C44.8789 24.9775 46.1094 25.2143 46.0698 23.9118C46.0262 22.4594 45.6894 21.1195 44.2627 20.3676C43.7891 20.119 43.27 19.9532 42.6775 19.7125C45.4437 18.7554 46.1887 19.0869 47.1101 21.6207C47.4985 22.6923 47.8413 23.7796 48.192 24.863C48.2534 25.0525 48.2554 25.2616 48.3049 25.609C46.2323 25.9129 44.1894 26.2108 42.1465 26.5108C42.1703 26.4477 42.194 26.3825 42.2178 26.3174Z" fill="black"/>
<path d="M50.445 49.6962C50.1933 49.1041 49.9972 48.6463 49.6207 47.7603C51.0216 48.7529 52.0539 49.483 53.3756 50.4204C48.0157 51.4485 44.6135 54.8368 41.4609 58.5922C43.1531 54.3711 46.3948 51.7011 50.445 49.6962Z" fill="black"/>
<path d="M51.9395 45.7099C52.2803 44.9344 52.6231 44.1608 52.9896 43.326C53.6059 43.48 54.1726 43.6221 54.9652 43.8214C54.5887 42.4696 54.2637 41.2994 53.9368 40.1292C53.9843 40.1055 54.0339 40.0818 54.0814 40.0581C55.5101 42.2505 56.9387 44.443 58.5754 46.9551C57.0675 46.298 55.952 45.8027 54.8285 45.3251C53.2968 44.6699 53.2928 44.6739 51.9395 45.7099Z" fill="black"/>
<path d="M185.109 31.6099C185.499 30.1556 185.832 28.9242 186.163 27.6888C186.991 24.5906 187.829 21.4924 188.634 18.3882C188.778 17.8317 189.014 17.6048 189.614 17.6225C191.031 17.664 192.452 17.6364 193.962 17.6364C193.9 17.8988 193.861 18.11 193.799 18.3172C191.584 25.8042 189.361 33.2873 187.167 40.7803C187.013 41.3072 186.787 41.4611 186.272 41.4335C185.562 41.394 184.849 41.3861 184.142 41.4335C183.571 41.471 183.361 41.2302 183.21 40.7093C182.033 36.6579 180.825 32.6144 179.624 28.5709C179.566 28.3795 179.499 28.1901 179.374 27.8112C179.239 28.194 179.15 28.4091 179.087 28.6301C177.93 32.6085 176.759 36.5849 175.633 40.5711C175.451 41.2164 175.185 41.5006 174.49 41.4256C173.887 41.3625 173.267 41.3644 172.665 41.4296C172.021 41.5006 171.791 41.2223 171.629 40.6481C170.039 35.0594 168.426 29.4767 166.815 23.894C166.227 21.8574 165.619 19.8248 164.969 17.6186C165.601 17.6186 166.168 17.6186 166.734 17.6186C167.572 17.6186 168.411 17.6442 169.247 17.6048C169.821 17.5772 170.097 17.7587 170.249 18.3448C171.335 22.5264 172.459 26.6982 173.572 30.8719C173.616 31.0317 173.681 31.1876 173.792 31.5034C174.335 29.6346 174.831 27.9177 175.332 26.2009C176.095 23.5802 176.877 20.9674 177.609 18.3389C177.769 17.7627 178.041 17.5614 178.615 17.6008C179.372 17.6541 180.327 17.3818 180.834 17.7488C181.334 18.11 181.407 19.0868 181.619 19.8051C182.693 23.4401 183.749 27.081 184.815 30.718C184.877 30.9469 184.96 31.1679 185.109 31.6099Z" fill="white"/>
<path d="M74.3436 41.4196C72.7247 41.4196 71.2545 41.4335 69.7862 41.3999C69.6376 41.396 69.4454 41.1296 69.3661 40.9441C69.2928 40.7704 69.3404 40.5454 69.3404 40.3441C69.3364 32.9893 69.3324 25.6345 69.3324 18.2796C69.3324 18.106 69.3542 17.9304 69.3701 17.6896C69.6297 17.6679 69.8754 17.6304 70.1211 17.6304C72.7862 17.6264 75.4512 17.6107 78.1144 17.6343C80.6487 17.658 82.9987 18.2224 84.8593 20.0952C88.3586 23.6157 88.1922 30.7022 83.5813 33.5241C83.498 33.5754 83.4247 33.6465 83.2622 33.7767C84.6671 36.277 86.07 38.7753 87.564 41.4354C86.2444 41.4354 85.0713 41.2993 83.9419 41.467C82.0793 41.7433 81.0668 41.0348 80.4525 39.2963C80.0027 38.0215 79.226 36.8611 78.6315 35.6337C78.4274 35.2133 78.1837 35.0318 77.7042 35.0456C76.6203 35.0791 75.5325 35.0555 74.3436 35.0555C74.3436 37.1867 74.3436 39.243 74.3436 41.4196ZM74.3377 30.5285C76.0477 30.4496 77.6665 30.4594 79.2597 30.2719C80.4168 30.1358 81.2927 29.4116 81.8336 28.3479C83.1929 25.67 81.5047 22.4711 78.5166 22.1633C77.3119 22.039 76.0873 22.1021 74.8727 22.0725C74.4922 22.0626 74.3317 22.2126 74.3337 22.6053C74.3436 25.1747 74.3377 27.746 74.3377 30.5285Z" fill="white"/>
<path d="M108.332 21.984C104.746 21.984 101.256 21.984 97.6281 21.984C97.6281 22.4793 97.6281 22.8957 97.6281 23.3121C97.6261 24.3225 97.6221 25.3348 97.6241 26.3452C97.6241 27.3122 97.6261 27.3181 98.6347 27.3181C101.274 27.3201 103.913 27.3161 106.553 27.3142C106.852 27.3142 107.151 27.3142 107.502 27.3142C107.502 28.8001 107.502 30.1973 107.502 31.705C104.224 31.705 100.969 31.705 97.6202 31.705C97.6202 33.4731 97.6043 35.1347 97.6499 36.7943C97.6539 36.9246 98.0799 37.1476 98.3117 37.1495C100.824 37.1752 103.337 37.1653 105.849 37.1653C106.705 37.1653 107.561 37.1653 108.469 37.1653C108.469 38.6098 108.469 39.9597 108.469 41.3746C103.226 41.3746 98.0125 41.3746 92.716 41.3746C92.7021 41.0726 92.6764 40.7766 92.6764 40.4826C92.6684 33.1791 92.6764 25.8736 92.6387 18.5701C92.6348 17.7827 92.8686 17.6051 93.6215 17.611C98.1651 17.6386 102.707 17.6169 107.25 17.613C108.332 17.613 108.332 17.6189 108.332 18.6648C108.332 19.7442 108.332 20.8237 108.332 21.984Z" fill="white"/>
<path d="M151.504 21.9798C151.504 23.7224 151.502 25.3109 151.506 26.8995C151.508 27.4185 151.91 27.3297 152.221 27.3297C154.353 27.3317 156.485 27.3218 158.617 27.3179C159.353 27.3159 160.092 27.2922 160.825 27.3356C161.007 27.3455 161.326 27.5685 161.33 27.7027C161.368 29.0091 161.354 30.3155 161.354 31.6949C158.069 31.6949 154.857 31.6949 151.571 31.6949C151.571 33.538 151.571 35.3121 151.571 37.1592C155.132 37.1592 158.651 37.1592 162.246 37.1592C162.246 38.5998 162.246 39.9653 162.246 41.3862C157.056 41.3862 151.892 41.3862 146.635 41.3862C146.635 40.9303 146.635 40.508 146.635 40.0857C146.628 32.9065 146.631 25.7273 146.592 18.5481C146.588 17.7667 146.804 17.5871 147.571 17.595C152.088 17.6344 156.606 17.6147 161.124 17.6167C161.425 17.6167 161.724 17.6167 162.087 17.6167C162.087 19.0888 162.087 20.486 162.087 21.9798C158.594 21.9798 155.104 21.9798 151.504 21.9798Z" fill="white"/>
<path d="M126.663 17.001C128.008 18.114 129.266 19.1283 130.479 20.1939C130.62 20.3163 130.598 20.7544 130.507 20.9892C128.2 26.8739 125.876 32.7506 123.554 38.6294C123.246 39.4049 122.965 40.1943 122.608 40.9461C122.507 41.1573 122.188 41.2698 121.964 41.4178C121.929 41.4414 121.865 41.4217 121.814 41.4217C119.985 41.4632 119.959 41.475 119.293 39.77C116.535 32.7052 113.793 25.6346 111.048 18.5659C110.947 18.3074 110.864 18.0429 110.731 17.668C111.064 17.6443 111.352 17.6088 111.639 17.6068C112.832 17.5989 114.031 17.6719 115.218 17.5772C116.004 17.5141 116.21 17.9147 116.414 18.5067C117.379 21.3286 118.352 24.1486 119.345 26.9607C119.922 28.5966 120.542 30.2188 121.21 32.0363C123.054 26.9469 124.832 22.045 126.663 17.001Z" fill="white"/>
<path d="M76.208 57.2583C78.4154 54.4561 80.5415 51.7565 82.7687 48.9286C82.8182 49.2581 82.8638 49.414 82.8638 49.5719C82.8678 53.4654 82.8539 57.3589 82.8797 61.2524C82.8836 61.8977 82.6676 62.099 82.0494 62.0497C81.4986 62.0043 80.9398 62.0398 80.2641 62.0398C80.2641 60.1651 80.2641 58.3397 80.2641 56.5143C80.1967 56.4926 80.1314 56.4709 80.064 56.4492C78.7919 57.9588 77.5178 59.4685 76.1426 61.0985C74.8487 59.5198 73.6182 58.0141 72.253 56.3485C72.253 58.3417 72.253 60.1217 72.253 61.9707C71.3395 61.9707 70.4934 61.9707 69.5879 61.9707C69.5879 57.647 69.5879 53.3174 69.5879 48.9878C69.6414 48.9562 69.6929 48.9246 69.7464 48.8931C71.8785 51.6499 74.0086 54.4107 76.208 57.2583Z" fill="#EAB13B"/>
<path d="M134.989 57.0154C136.081 58.6672 137.143 60.2774 138.31 62.0436C137.282 62.0436 136.453 62.0713 135.629 62.0219C135.439 62.0101 135.215 61.7713 135.088 61.5819C134.23 60.2991 133.396 59.0026 132.55 57.7101C132.447 57.5522 132.326 57.4081 132.053 57.2878C132.053 58.8349 132.053 60.384 132.053 61.9864C131.143 61.9864 130.344 61.9864 129.475 61.9864C129.475 57.8837 129.475 53.781 129.475 49.4751C131.351 49.5757 133.228 49.5461 135.058 49.8185C136.457 50.0276 137.442 51.4939 137.573 52.9976C137.704 54.4974 136.907 56.0307 135.649 56.6918C135.453 56.7964 135.251 56.8872 134.989 57.0154ZM132.033 52.0662C132.033 52.4904 132.025 52.8378 132.035 53.1851C132.082 54.9789 131.65 54.7243 133.675 54.7125C134.51 54.7066 134.991 54.2329 135.035 53.4831C135.078 52.7194 134.587 52.1471 133.759 52.0741C133.233 52.0306 132.698 52.0662 132.033 52.0662Z" fill="white"/>
<path d="M182.36 61.9945C182.36 57.8543 182.36 53.7693 182.36 49.6055C182.63 49.5937 182.874 49.5719 183.117 49.5719C185.097 49.568 187.076 49.5996 189.054 49.5522C189.747 49.5344 189.949 49.7673 189.888 50.4146C189.84 50.9119 189.878 51.4171 189.878 52.0229C188.206 52.0229 186.599 52.0229 184.897 52.0229C184.897 52.7471 184.853 53.3747 184.926 53.9864C184.946 54.1542 185.315 54.3949 185.533 54.4048C186.571 54.4502 187.613 54.4245 188.654 54.4265C188.927 54.4265 189.198 54.4265 189.579 54.4265C189.579 55.1547 189.615 55.8059 189.551 56.4453C189.537 56.5874 189.171 56.7946 188.961 56.8005C187.845 56.834 186.728 56.834 185.612 56.8044C185.091 56.7906 184.875 56.9643 184.901 57.4971C184.932 58.17 184.909 58.8449 184.909 59.581C186.648 59.581 188.263 59.581 189.953 59.581C189.953 60.4059 189.953 61.1696 189.953 61.9925C187.457 61.9945 184.96 61.9945 182.36 61.9945Z" fill="white"/>
<path d="M124.115 52.0522C123.247 52.0522 122.44 52.0522 121.632 52.0522C120.849 52.0522 120.067 52.0522 119.226 52.0522C119.226 52.8396 119.226 53.5579 119.226 54.3847C120.72 54.3847 122.226 54.3847 123.851 54.3847C123.851 55.1346 123.895 55.7878 123.821 56.4272C123.804 56.5831 123.407 56.8041 123.179 56.81C121.889 56.8475 120.598 56.8278 119.244 56.8278C119.244 57.7632 119.244 58.6295 119.244 59.5827C120.883 59.5827 122.494 59.5827 124.172 59.5827C124.172 60.4312 124.172 61.1929 124.172 62.006C121.689 62.006 119.238 62.006 116.714 62.006C116.714 57.8974 116.714 53.7967 116.714 49.6328C119.157 49.6328 121.604 49.6328 124.115 49.6328C124.115 50.3945 124.115 51.1602 124.115 52.0522Z" fill="white"/>
<path d="M177.854 51.8115C177.226 52.3049 176.636 52.7726 176.232 53.0883C175.118 52.6344 174.183 52.0898 173.176 51.8806C171.383 51.5076 169.699 52.4647 168.985 54.0454C168.203 55.78 168.648 57.7633 170.085 58.9276C171.422 60.0129 173.426 60.0544 174.914 59.0302C175.972 58.302 175.972 58.3 177.01 59.0835C177.23 59.2493 177.444 59.4209 177.654 59.5847C176.654 61.4476 173.652 62.606 171.23 62.0988C168.333 61.491 166.253 59.2394 166.049 56.4885C165.821 53.4139 167.43 50.815 170.202 49.775C172.922 48.7567 176.16 49.5895 177.854 51.8115Z" fill="white"/>
<path d="M135.667 27.9414C136.674 28.7959 137.538 29.7036 138.562 30.3628C140.149 31.385 140.648 32.7012 140.506 34.5523C140.335 36.7862 140.466 39.0437 140.466 41.3605C138.855 41.3605 137.3 41.3605 135.667 41.3605C135.667 36.9322 135.667 32.5039 135.667 27.9414Z" fill="white"/>
<path d="M109.808 52.7133C109.445 52.4272 109.18 52.0621 108.851 51.995C108.46 51.9161 107.896 51.9635 107.638 52.2022C107.454 52.3739 107.525 53.0212 107.704 53.331C107.945 53.7513 108.391 54.0612 108.764 54.4026C109.38 54.965 110.04 55.4859 110.626 56.078C112.011 57.4751 112.307 58.9611 111.538 60.4017C110.82 61.7456 109.168 62.4816 107.414 62.1797C105.918 61.9212 104.866 61.0509 104.125 59.6419C104.908 59.1742 105.633 58.7401 106.338 58.3178C106.689 58.746 106.933 59.1426 107.268 59.4347C107.753 59.855 108.33 59.934 108.861 59.4959C109.315 59.1209 109.326 58.4993 108.805 57.9448C108.06 57.1554 107.218 56.4569 106.455 55.6833C105.978 55.1998 105.5 54.6926 105.147 54.1204C104.113 52.445 104.71 50.5821 106.489 49.7414C108.338 48.8692 110.472 49.4947 111.587 51.3122C110.995 51.778 110.392 52.2516 109.808 52.7133Z" fill="white"/>
<path d="M132.068 19.7144C133.196 19.665 134.325 19.5486 135.449 19.5861C136.317 19.6157 136.711 19.3197 136.925 18.477C137.173 17.5101 137.605 16.5885 138.144 15.6255C138.5 16.5194 138.869 17.4094 139.212 18.3093C139.683 19.5427 139.675 19.5308 140.967 19.5742C142.017 19.6098 143.066 19.6907 144.114 19.7519C144.14 19.8209 144.163 19.888 144.189 19.9571C143.563 20.4406 142.943 20.9339 142.307 21.4075C140.593 22.6863 140.601 22.6804 141.272 24.7485C141.51 25.4846 141.689 26.2404 141.895 26.9863C141.841 27.0297 141.788 27.0712 141.734 27.1146C140.892 26.5423 140.044 25.9779 139.212 25.3958C138.096 24.6143 138.106 24.6143 136.977 25.4037C136.154 25.9779 135.318 26.5305 134.486 27.0929C134.42 27.0495 134.353 27.0041 134.288 26.9607C134.595 25.9601 134.882 24.9537 135.211 23.9591C135.595 22.7909 135.603 22.8067 134.603 22.0469C133.723 21.3779 132.863 20.6833 131.995 20.0005C132.019 19.9058 132.045 19.8091 132.068 19.7144Z" fill="#EAB13B"/>
<path d="M141.831 49.5838C142.707 49.5838 143.492 49.5364 144.262 49.6134C144.486 49.637 144.76 49.9863 144.865 50.2468C145.679 52.2597 146.456 54.2883 147.248 56.311C147.33 56.5202 147.429 56.7215 147.565 57.0333C147.69 56.7709 147.781 56.6051 147.853 56.4295C148.693 54.3456 149.545 52.2636 150.359 50.1698C150.536 49.716 150.779 49.5463 151.259 49.5719C151.941 49.6074 152.624 49.5818 153.433 49.5818C151.473 53.943 149.553 58.2193 147.544 62.695C145.59 58.2114 143.731 53.945 141.831 49.5838Z" fill="white"/>
<path d="M92.385 54.2032C93.0686 52.8494 93.7364 51.6101 94.3249 50.3334C94.6023 49.7354 94.9709 49.5104 95.6149 49.5657C96.1915 49.617 96.778 49.5756 97.4636 49.5756C97.3526 49.8282 97.2872 50.0038 97.2 50.1676C96.0983 52.216 94.9788 54.2584 93.9009 56.3187C93.7106 56.6818 93.6096 57.1277 93.5997 57.5382C93.564 58.9985 93.5858 60.4588 93.5858 61.9744C92.6981 61.9744 91.8996 61.9744 90.9762 61.9744C90.9762 60.7509 90.9267 59.5432 90.9901 58.3394C91.0475 57.2402 90.7919 56.2733 90.2629 55.3083C89.2563 53.473 88.3428 51.5865 87.3164 49.5756C88.2497 49.5756 89.07 49.546 89.8844 49.5993C90.0568 49.6111 90.2609 49.8953 90.3619 50.0965C90.9346 51.253 91.4775 52.4212 92.0343 53.5855C92.1215 53.7611 92.2285 53.9249 92.385 54.2032Z" fill="#EAB13B"/>
<path d="M160.571 61.9963C159.783 61.9963 159.006 61.9963 158.174 61.9963C158.174 57.862 158.174 53.7692 158.174 49.5895C158.893 49.5895 159.571 49.56 160.244 49.6113C160.405 49.6231 160.678 49.8954 160.678 50.0493C160.692 53.9586 160.676 57.8679 160.663 61.7772C160.665 61.8226 160.627 61.868 160.571 61.9963Z" fill="white"/>
<path d="M97.6953 71.2183V76.8227H96.7462V72.0747L95.7832 72.5641V71.7511L96.7462 71.2183H97.6953Z" fill="#EFF7F9"/>
<path d="M101.163 76.8797C100.517 76.8797 100.036 76.7356 99.7129 76.4495C99.3919 76.1633 99.2314 75.7746 99.2314 75.2871V72.7395C99.2314 72.2442 99.3939 71.8534 99.7209 71.5712C100.046 71.289 100.527 71.147 101.163 71.147C101.803 71.147 102.285 71.2871 102.608 71.5693C102.933 71.8515 103.093 72.2402 103.093 72.7395V75.2871C103.093 75.7825 102.931 76.1732 102.608 76.4554C102.283 76.7376 101.801 76.8797 101.163 76.8797ZM101.163 76.1318C101.51 76.1318 101.762 76.0568 101.914 75.9068C102.067 75.7568 102.144 75.5496 102.144 75.2891V72.7395C102.144 72.4751 102.067 72.2679 101.914 72.1199C101.762 71.9718 101.51 71.8969 101.163 71.8969C100.817 71.8969 100.565 71.9718 100.412 72.1199C100.26 72.2679 100.183 72.4751 100.183 72.7395V75.2871C100.183 75.5496 100.26 75.7548 100.412 75.9048C100.565 76.0568 100.817 76.1318 101.163 76.1318Z" fill="#EFF7F9"/>
<path d="M106.421 76.8797C105.775 76.8797 105.294 76.7356 104.971 76.4495C104.65 76.1633 104.489 75.7746 104.489 75.2871V72.7395C104.489 72.2442 104.652 71.8534 104.979 71.5712C105.304 71.289 105.785 71.147 106.421 71.147C107.061 71.147 107.541 71.2871 107.866 71.5693C108.191 71.8515 108.351 72.2402 108.351 72.7395V75.2871C108.351 75.7825 108.189 76.1732 107.866 76.4554C107.541 76.7376 107.059 76.8797 106.421 76.8797ZM106.421 76.1318C106.768 76.1318 107.02 76.0568 107.172 75.9068C107.325 75.7568 107.402 75.5496 107.402 75.2891V72.7395C107.402 72.4751 107.325 72.2679 107.172 72.1199C107.02 71.9718 106.768 71.8969 106.421 71.8969C106.074 71.8969 105.823 71.9718 105.67 72.1199C105.518 72.2679 105.44 72.4751 105.44 72.7395V75.2871C105.44 75.5496 105.518 75.7548 105.67 75.9048C105.823 76.0568 106.072 76.1318 106.421 76.1318Z" fill="#EFF7F9"/>
<path d="M110.642 73.6195C110.281 73.6195 110.004 73.5326 109.81 73.359C109.616 73.1853 109.517 72.9426 109.517 72.6328V72.1512C109.517 71.8395 109.614 71.5987 109.81 71.425C110.006 71.2514 110.283 71.1646 110.642 71.1646C111.003 71.1646 111.28 71.2514 111.474 71.427C111.668 71.6026 111.768 71.8454 111.768 72.1591V72.6328C111.768 72.9446 111.67 73.1853 111.474 73.359C111.278 73.5326 111.001 73.6195 110.642 73.6195ZM110.042 76.8223L113.717 71.2178H114.55L110.874 76.8223H110.042ZM110.642 73.0057C110.874 73.0057 110.991 72.8932 110.991 72.6703V72.1039C110.991 71.8888 110.874 71.7802 110.642 71.7802C110.41 71.7802 110.293 71.8888 110.293 72.1078V72.6703C110.291 72.8932 110.408 73.0057 110.642 73.0057ZM114.005 76.8795C113.644 76.8795 113.367 76.7927 113.172 76.619C112.978 76.4454 112.879 76.2026 112.879 75.8928V75.4113C112.879 75.0995 112.976 74.8587 113.172 74.6851C113.369 74.5114 113.646 74.4246 114.005 74.4246C114.363 74.4246 114.643 74.5114 114.837 74.6871C115.031 74.8627 115.13 75.1054 115.13 75.4192V75.8928C115.13 76.2046 115.033 76.4454 114.837 76.619C114.641 76.7927 114.365 76.8795 114.005 76.8795ZM114.005 76.2658C114.236 76.2658 114.353 76.1533 114.353 75.9303V75.3639C114.353 75.1488 114.236 75.0403 114.005 75.0403C113.773 75.0403 113.656 75.1488 113.656 75.3679V75.9303C113.656 76.1553 113.773 76.2658 114.005 76.2658Z" fill="#EFF7F9"/>
<path d="M118.343 76.8227L120.837 71.2183H121.648L124.143 76.8227H123.118L121.244 72.3017L119.369 76.8227H118.343ZM119.492 75.5933V74.8454H123.051V75.5933H119.492Z" fill="#EFF7F9"/>
<path d="M125.071 76.8225V72.8224H126.02V76.8225H125.071ZM128.002 76.8225V74.3972C128.002 74.115 127.915 73.8959 127.738 73.742C127.564 73.5881 127.314 73.5111 126.991 73.5111C126.68 73.5111 126.442 73.5782 126.272 73.7163C126.102 73.8545 126.018 74.0439 126.018 74.2906L125.921 73.519C126.07 73.2782 126.264 73.0908 126.506 72.9605C126.746 72.8303 127.013 72.7632 127.304 72.7632C127.83 72.7632 128.234 72.9053 128.521 73.1894C128.808 73.4736 128.951 73.8742 128.951 74.3932V76.8205H128.002V76.8225Z" fill="#EFF7F9"/>
<path d="M132.246 76.8797C131.614 76.8797 131.123 76.7277 130.776 76.4238C130.429 76.1199 130.255 75.6917 130.255 75.1392V74.4879C130.255 73.9413 130.429 73.517 130.776 73.2151C131.123 72.9151 131.614 72.7632 132.246 72.7632C132.878 72.7632 133.37 72.9132 133.717 73.2151C134.063 73.5151 134.238 73.9393 134.238 74.4879V75.151C134.238 75.7016 134.063 76.1258 133.717 76.4278C133.37 76.7277 132.88 76.8797 132.246 76.8797ZM132.246 76.1318C132.577 76.1318 132.835 76.0449 133.017 75.8733C133.199 75.7016 133.289 75.4588 133.289 75.149V74.486C133.289 74.1742 133.197 73.9354 133.017 73.7657C132.835 73.596 132.579 73.5111 132.246 73.5111C131.917 73.5111 131.662 73.596 131.477 73.7657C131.295 73.9354 131.202 74.1761 131.202 74.486V75.149C131.202 75.4608 131.293 75.7016 131.477 75.8733C131.662 76.0449 131.917 76.1318 132.246 76.1318Z" fill="#EFF7F9"/>
<path d="M135.587 76.8225V72.8224H136.536V76.8225H135.587ZM138.52 76.8225V74.3972C138.52 74.115 138.432 73.8959 138.256 73.742C138.082 73.5881 137.832 73.5111 137.509 73.5111C137.198 73.5111 136.96 73.5782 136.79 73.7163C136.619 73.8545 136.536 74.0439 136.536 74.2906L136.439 73.519C136.588 73.2782 136.782 73.0908 137.023 72.9605C137.263 72.8303 137.531 72.7632 137.822 72.7632C138.347 72.7632 138.751 72.9053 139.039 73.1894C139.326 73.4736 139.469 73.8742 139.469 74.3932V76.8205H138.52V76.8225Z" fill="#EFF7F9"/>
<path d="M142.326 77.1499L140.4 72.8223H141.367L142.851 76.2994L142.326 77.1499ZM143.707 72.8203H144.674L142.618 77.7577C142.503 78.032 142.336 78.2235 142.12 78.33C141.904 78.4366 141.605 78.4899 141.227 78.4899H141.036V77.7341H141.227C141.403 77.7341 141.544 77.7045 141.647 77.6453C141.75 77.5861 141.841 77.4854 141.918 77.3413L143.707 72.8203Z" fill="#EFF7F9"/>
<path d="M145.513 76.8225V72.8224H146.462V76.8225H145.513ZM148.398 76.8225V74.3972C148.398 74.115 148.315 73.8959 148.146 73.742C147.978 73.5881 147.742 73.5111 147.435 73.5111C147.124 73.5111 146.886 73.5782 146.715 73.7163C146.545 73.8545 146.462 74.0439 146.462 74.2906L146.365 73.519C146.513 73.2782 146.708 73.0908 146.949 72.9605C147.189 72.8303 147.457 72.7632 147.748 72.7632C148.257 72.7632 148.651 72.9053 148.931 73.1894C149.21 73.4736 149.349 73.8742 149.349 74.3932V76.8205H148.398V76.8225ZM151.283 76.8225V74.3972C151.283 74.115 151.196 73.8959 151.019 73.742C150.843 73.5881 150.595 73.5111 150.272 73.5111C149.977 73.5111 149.749 73.5861 149.589 73.7341C149.428 73.8821 149.347 74.0933 149.347 74.3656L149.157 73.594C149.311 73.3276 149.513 73.1204 149.761 72.9783C150.009 72.8342 150.284 72.7632 150.585 72.7632C151.11 72.7632 151.515 72.9053 151.802 73.1894C152.089 73.4736 152.232 73.8742 152.232 74.3932V76.8205H151.283V76.8225Z" fill="#EFF7F9"/>
<path d="M155.528 76.8797C154.895 76.8797 154.404 76.7277 154.057 76.4238C153.711 76.1199 153.536 75.6917 153.536 75.1392V74.4879C153.536 73.9413 153.711 73.517 154.057 73.2151C154.404 72.9151 154.895 72.7632 155.528 72.7632C156.16 72.7632 156.651 72.9132 156.998 73.2151C157.345 73.5151 157.519 73.9393 157.519 74.4879V75.151C157.519 75.7016 157.345 76.1258 156.998 76.4278C156.651 76.7277 156.162 76.8797 155.528 76.8797ZM155.528 76.1318C155.858 76.1318 156.116 76.0449 156.298 75.8733C156.481 75.7016 156.57 75.4588 156.57 75.149V74.486C156.57 74.1742 156.479 73.9354 156.298 73.7657C156.116 73.596 155.86 73.5111 155.528 73.5111C155.199 73.5111 154.943 73.596 154.759 73.7657C154.576 73.9354 154.483 74.1761 154.483 74.486V75.149C154.483 75.4608 154.574 75.7016 154.759 75.8733C154.943 76.0449 155.199 76.1318 155.528 76.1318Z" fill="#EFF7F9"/>
<path d="M159.816 72.8203V75.2515C159.816 75.5318 159.902 75.7488 160.074 75.9008C160.246 76.0527 160.488 76.1297 160.801 76.1297C161.114 76.1297 161.356 76.0606 161.524 75.9245C161.693 75.7863 161.778 75.5929 161.778 75.3443L161.843 76.181C161.756 76.3606 161.604 76.5224 161.388 76.6645C161.172 76.8066 160.886 76.8776 160.536 76.8776C160.003 76.8776 159.59 76.7355 159.299 76.4513C159.008 76.1672 158.863 75.7666 158.863 75.2515V72.8203H159.816ZM161.78 76.8223V72.8223H162.725V76.8223H161.78Z" fill="#EFF7F9"/>
<path d="M165.877 76.8796C165.449 76.8796 165.06 76.8283 164.712 76.7237C164.363 76.6191 164.05 76.4633 163.774 76.256L164.337 75.6818C164.601 75.8456 164.86 75.9699 165.116 76.0528C165.371 76.1357 165.625 76.1751 165.877 76.1751C166.251 76.1751 166.535 76.1278 166.721 76.0311C166.907 75.9344 167.002 75.7903 167.002 75.5969C167.002 75.4489 166.939 75.3424 166.814 75.2812C166.689 75.22 166.525 75.1786 166.321 75.1588C166.117 75.1391 165.899 75.1233 165.667 75.1115C165.471 75.0977 165.278 75.0779 165.084 75.0523C164.89 75.0266 164.716 74.9773 164.559 74.9063C164.401 74.8352 164.274 74.7306 164.181 74.5925C164.087 74.4543 164.038 74.2669 164.038 74.034C164.038 73.6097 164.194 73.292 164.508 73.0828C164.821 72.8737 165.288 72.7671 165.908 72.7671C166.287 72.7671 166.64 72.8085 166.965 72.8934C167.29 72.9782 167.597 73.1085 167.882 73.2821L167.309 73.8564C167.068 73.7281 166.83 73.6314 166.594 73.5683C166.36 73.5032 166.13 73.4716 165.908 73.4716C165.585 73.4716 165.344 73.517 165.183 73.6078C165.023 73.6985 164.941 73.8367 164.941 74.0182C164.941 74.1386 164.997 74.2254 165.108 74.2787C165.219 74.332 165.368 74.3655 165.55 74.3813C165.732 74.3971 165.93 74.4109 166.14 74.4228C166.342 74.4326 166.547 74.4524 166.753 74.478C166.959 74.5037 167.149 74.557 167.323 74.6339C167.498 74.7109 167.636 74.8253 167.741 74.9773C167.846 75.1292 167.9 75.3365 167.9 75.5969C167.9 76.0252 167.731 76.3468 167.395 76.56C167.06 76.7731 166.552 76.8796 165.877 76.8796Z" fill="#EFF7F9"/>
<path d="M70.5625 67.5454H192.725" stroke="#EFF7F9" stroke-miterlimit="10"/>
</svg>
