<svg width="16" height="16" viewBox="0 0 16 16" fill="none" xmlns="http://www.w3.org/2000/svg">
<g clip-path="url(#clip0_1230_1874)">
<path d="M4.5 1L4 1.5V3.027C4.33234 2.99066 4.66766 2.99066 5 3.027V2H14V7H12.293L11 8.293V7H8.973C9.00934 7.33234 9.00934 7.66766 8.973 8H10V9.5L10.854 9.854L12.707 8H14.5L15 7.5V1.5L14.5 1H4.5Z" fill="white"/>
<path fill-rule="evenodd" clip-rule="evenodd" d="M6.417 10.4291C7.04759 10.0163 7.52808 9.41092 7.78699 8.7031C8.04591 7.99527 8.06942 7.22278 7.85404 6.50052C7.63865 5.77826 7.19587 5.14482 6.59156 4.69442C5.98725 4.24403 5.25369 4.00073 4.5 4.00073C3.74631 4.00073 3.01275 4.24403 2.40844 4.69442C1.80413 5.14482 1.36135 5.77826 1.14596 6.50052C0.930575 7.22278 0.95409 7.99527 1.21301 8.7031C1.47192 9.41092 1.95241 10.0163 2.583 10.4291C1.81064 10.7927 1.15766 11.3686 0.700298 12.0895C0.242932 12.8103 4.82306e-05 13.6464 0 14.5001L0 15.0001H1V14.5001C1.03069 13.5923 1.41289 12.7319 2.06591 12.1006C2.71894 11.4693 3.5917 11.1164 4.5 11.1164C5.4083 11.1164 6.28106 11.4693 6.93409 12.1006C7.58711 12.7319 7.96931 13.5923 8 14.5001V15.0001H9V14.5001C8.99995 13.6464 8.75707 12.8103 8.2997 12.0895C7.84234 11.3686 7.18936 10.7927 6.417 10.4291ZM4.5 10.0001C3.83696 10.0001 3.20107 9.73667 2.73223 9.26783C2.26339 8.79899 2 8.1631 2 7.50006C2 6.83702 2.26339 6.20114 2.73223 5.73229C3.20107 5.26345 3.83696 5.00006 4.5 5.00006C5.16304 5.00006 5.79893 5.26345 6.26777 5.73229C6.73661 6.20114 7 6.83702 7 7.50006C7 8.1631 6.73661 8.79899 6.26777 9.26783C5.79893 9.73667 5.16304 10.0001 4.5 10.0001Z" fill="white"/>
</g>
<defs>
<clipPath id="clip0_1230_1874">
<rect width="16" height="16" fill="white"/>
</clipPath>
</defs>
</svg>
