<svg width="16" height="16" viewBox="0 0 16 16" fill="none" xmlns="http://www.w3.org/2000/svg">
<path d="M0.5 2C0.5 1.17157 1.17157 0.5 2 0.5H6C6.27614 0.5 6.5 0.723858 6.5 1V6C6.5 6.27614 6.27614 6.5 6 6.5H1C0.723858 6.5 0.5 6.27614 0.5 6V2Z" stroke="black"/>
<path d="M9.5 1C9.5 0.723858 9.72386 0.5 10 0.5H13C14.3807 0.5 15.5 1.61929 15.5 3V6C15.5 6.27614 15.2761 6.5 15 6.5H10C9.72386 6.5 9.5 6.27614 9.5 6V1Z" stroke="black"/>
<path d="M0.5 10C0.5 9.72386 0.723858 9.5 1 9.5H6C6.27614 9.5 6.5 9.72386 6.5 10V15C6.5 15.2761 6.27614 15.5 6 15.5H2C1.17157 15.5 0.5 14.8284 0.5 14V10Z" stroke="black"/>
<path d="M9.5 10C9.5 9.72386 9.72386 9.5 10 9.5H15C15.2761 9.5 15.5 9.72386 15.5 10V14C15.5 14.8284 14.8284 15.5 14 15.5H10C9.72386 15.5 9.5 15.2761 9.5 15V10Z" stroke="black"/>
</svg>
