<svg width="18" height="18" viewBox="0 0 18 18" fill="none" xmlns="http://www.w3.org/2000/svg">
<path d="M15.1676 9C15.1676 8.53933 15.1101 8.07333 14.9963 7.612L17 6.50867L15.3115 3.60733L13.3058 4.712C12.5774 4.01867 11.69 3.51533 10.7135 3.24067V1H7.28721V3.24067C6.31072 3.51533 5.42332 4.01867 4.69421 4.712L2.68847 3.60733L1.00069 6.50867L3.00368 7.612C2.88993 8.07333 2.83237 8.53933 2.83237 9C2.83237 9.46067 2.88993 9.92733 3.00368 10.388L1 11.4913L2.68778 14.392L4.69352 13.2873C5.42263 13.9813 6.31003 14.4847 7.28652 14.7593V17H10.7128V14.7593C11.6893 14.4847 12.5767 13.9813 13.3058 13.2873L15.3115 14.392L17 11.4913L14.9963 10.388C15.1101 9.92667 15.1676 9.46067 15.1676 9ZM16.066 11.7427L15.0525 13.4827L13.1797 12.4513L12.9954 12.6427C12.2628 13.4033 11.3268 13.934 10.29 14.178L10.0282 14.24V16.3333H7.97246V14.24L7.71069 14.178C6.67322 13.934 5.73785 13.4033 5.00463 12.6427L4.82029 12.4513L2.94749 13.4827L1.93469 11.7427L3.80543 10.712L3.73142 10.46C3.58958 9.976 3.51762 9.48533 3.51762 9C3.51762 8.51467 3.58958 8.02467 3.73142 7.54L3.80475 7.288L1.934 6.25733L2.94749 4.51667L4.82029 5.54867L5.00463 5.35733C5.73716 4.59667 6.67322 4.066 7.71069 3.822L7.97246 3.76V1.66667H10.0282V3.76L10.29 3.822C11.3275 4.066 12.2628 4.59667 12.9954 5.35733L13.1797 5.54867L15.0525 4.51667L16.0653 6.25733L14.1946 7.288L14.2679 7.54C14.4097 8.02533 14.4817 8.516 14.4817 9C14.4817 9.484 14.4097 9.97533 14.2679 10.46L14.1946 10.712L16.0653 11.7427H16.066ZM6.60675 9.04733V5.66667H5.9215V9.04733C5.33218 9.19667 4.89361 9.714 4.89361 10.3333C4.89361 10.9527 5.33218 11.47 5.9215 11.6193V12.3333H6.60675V11.6193C7.19607 11.47 7.63463 10.9527 7.63463 10.3333C7.63463 9.714 7.19607 9.19667 6.60675 9.04733ZM6.26412 11C5.88655 11 5.57887 10.7013 5.57887 10.3333C5.57887 9.96533 5.88655 9.66667 6.26412 9.66667C6.6417 9.66667 6.94938 9.96533 6.94938 10.3333C6.94938 10.7013 6.6417 11 6.26412 11ZM12.0888 9.04733V5.66667H11.4035V9.04733C10.8142 9.19667 10.3756 9.714 10.3756 10.3333C10.3756 10.9527 10.8142 11.47 11.4035 11.6193V12.3333H12.0888V11.6193C12.6781 11.47 13.1167 10.9527 13.1167 10.3333C13.1167 9.714 12.6781 9.19667 12.0888 9.04733ZM11.7462 11C11.3686 11 11.0609 10.7013 11.0609 10.3333C11.0609 9.96533 11.3686 9.66667 11.7462 9.66667C12.1237 9.66667 12.4314 9.96533 12.4314 10.3333C12.4314 10.7013 12.1237 11 11.7462 11ZM9.34777 6.38067V5.66667H8.66251V6.38067C8.07319 6.53 7.63463 7.04733 7.63463 7.66667C7.63463 8.286 8.07319 8.80333 8.66251 8.95267V12.3333H9.34777V8.95267C9.93709 8.80333 10.3756 8.286 10.3756 7.66667C10.3756 7.04733 9.93709 6.53 9.34777 6.38067ZM9.00514 8.33333C8.62756 8.33333 8.31989 8.03467 8.31989 7.66667C8.31989 7.29867 8.62756 7 9.00514 7C9.38272 7 9.69039 7.29867 9.69039 7.66667C9.69039 8.03467 9.38272 8.33333 9.00514 8.33333Z" fill="white" stroke="white" stroke-width="0.2"/>
</svg>
