<svg width="18" height="18" viewBox="0 0 18 18" fill="none" xmlns="http://www.w3.org/2000/svg">
<path d="M13.6667 14.6667H13V13.3333H13.6667V14.6667ZM15.6667 11H17V15.3333C17 16.2527 16.2527 17 15.3333 17H11.3333C10.414 17 9.66667 16.2527 9.66667 15.3333V11H11V10C11 8.71333 12.0467 7.66667 13.3333 7.66667C14.62 7.66667 15.6667 8.71333 15.6667 10V11ZM11.6667 11H15V10C15 9.08067 14.2527 8.33333 13.3333 8.33333C12.414 8.33333 11.6667 9.08067 11.6667 10V11ZM16.3333 11.6667H10.3333V15.3333C10.3333 15.8847 10.782 16.3333 11.3333 16.3333H15.3333C15.8847 16.3333 16.3333 15.8847 16.3333 15.3333V11.6667ZM3.33333 16.3333C2.782 16.3333 2.33333 15.8847 2.33333 15.3333V13H8.33333V12.3333H2.33333V8.77467C2.63667 8.91933 2.976 9 3.33333 9H4C4.848 9 5.59133 8.54533 6 7.86733C6.40867 8.54533 7.152 9 8 9H9.80867C9.87533 8.76467 9.96467 8.53933 10.0753 8.326C10.05 8.32733 8 8.33333 8 8.33333C7.08067 8.33333 6.33333 7.586 6.33333 6.66667V6.33333H5.66667V6.66667C5.66667 7.586 4.91933 8.33333 4 8.33333H3.33333C2.43067 8.33333 1.69333 7.612 1.66733 6.71533L3.24467 1.66667H5.66667V4.33333H6.33333V1.66667H11.6667V4.33333H12.3333V1.66667H14.7553L16.3327 6.71533C16.3233 7.028 16.224 7.316 16.0653 7.56267C16.2193 7.73533 16.3567 7.922 16.476 8.12067C16.7987 7.72067 17 7.21867 17 6.666L15.2447 1H2.75533L1 6.66667C1 7.30067 1.25467 7.87667 1.66667 8.298V15.3333C1.66667 16.2527 2.414 17 3.33333 17H8.84133C8.704 16.7953 8.602 16.5687 8.518 16.3333H3.33333Z" fill="white" stroke="white" stroke-width="0.3"/>
</svg>
