<svg width="18" height="18" viewBox="0 0 18 18" fill="none" xmlns="http://www.w3.org/2000/svg">
<path d="M16.1165 12.3333C16.1165 11.8467 16.011 11.384 15.8209 10.9667L17 10.2927L16.6647 9.71533L15.485 10.39C14.9361 9.634 14.0768 9.114 13.0939 9.01667V7.66667H12.422V9.01667C11.4391 9.114 10.5792 9.634 10.0309 10.39L8.85119 9.71533L8.51593 10.2927L9.69502 10.9667C9.50489 11.384 9.39941 11.8467 9.39941 12.3333C9.39941 12.82 9.50489 13.2827 9.69502 13.7L8.51593 14.374L8.85119 14.9513L10.0309 14.2767C10.5798 15.0327 11.4391 15.5527 12.422 15.65V17H13.0939V15.65C14.0768 15.5527 14.9368 15.0327 15.485 14.2767L16.6647 14.9513L17 14.374L15.8209 13.7C16.011 13.2827 16.1165 12.82 16.1165 12.3333ZM12.7573 15C11.2752 15 10.0699 13.804 10.0699 12.3333C10.0699 10.8627 11.2752 9.66667 12.7573 9.66667C14.2394 9.66667 15.4447 10.8627 15.4447 12.3333C15.4447 13.804 14.2394 15 12.7573 15ZM5.367 13H7.71845V13.6667H5.367C4.81138 13.6667 4.35923 14.1153 4.35923 14.6667V17H3.68738V14.6667C3.68738 13.748 4.44119 13 5.367 13ZM5.04921 7H2.67961C2.124 7 1.67185 7.44867 1.67185 8V10.3333H1V8C1 7.08133 1.75381 6.33333 2.67961 6.33333H6.03884C6.18665 6.33333 6.32841 6.35533 6.46479 6.39133C5.93941 6.48267 5.46038 6.696 5.04921 7ZM7.04661 7.66667C7.56527 7.66667 8.03489 7.86733 8.39232 8.18867C8.23846 8.34867 8.09469 8.51733 7.9583 8.69333C7.71845 8.472 7.39933 8.33333 7.04661 8.33333C6.30556 8.33333 5.70292 8.93133 5.70292 9.66667C5.70292 10.342 6.21285 10.8953 6.87059 10.982C6.82087 11.1967 6.78056 11.4147 6.75503 11.6373C5.78287 11.4953 5.03174 10.67 5.03174 9.66667C5.03174 8.564 5.93605 7.66667 7.04728 7.66667H7.04661ZM4.35923 5C5.47046 5 6.37476 4.10267 6.37476 3C6.37476 1.89733 5.47046 1 4.35923 1C3.24799 1 2.34369 1.89733 2.34369 3C2.34369 4.10267 3.24799 5 4.35923 5ZM4.35923 1.66667C5.10027 1.66667 5.70292 2.26467 5.70292 3C5.70292 3.73533 5.10027 4.33333 4.35923 4.33333C3.61818 4.33333 3.01554 3.73533 3.01554 3C3.01554 2.26467 3.61818 1.66667 4.35923 1.66667ZM9.73399 5C10.8452 5 11.7495 4.10267 11.7495 3C11.7495 1.89733 10.8452 1 9.73399 1C8.62276 1 7.71845 1.89733 7.71845 3C7.71845 4.10267 8.62276 5 9.73399 5ZM9.73399 1.66667C10.475 1.66667 11.0777 2.26467 11.0777 3C11.0777 3.73533 10.475 4.33333 9.73399 4.33333C8.99295 4.33333 8.3903 3.73533 8.3903 3C8.3903 2.26467 8.99295 1.66667 9.73399 1.66667ZM9.04401 7C8.58178 6.658 8.02952 6.43933 7.42687 6.37133C7.53034 6.34933 7.63582 6.33333 7.746 6.33333H11.7495V7H9.04401Z" fill="white" stroke="white" stroke-width="0.4"/>
</svg>
