<svg width="18" height="17" viewBox="0 0 18 17" fill="none" xmlns="http://www.w3.org/2000/svg">
<path d="M17 2.70455V6.47364C16.79 6.31136 16.566 6.17636 16.3333 6.06864V2.70455C16.3333 2.14068 15.8847 1.68182 15.3333 1.68182H2.66667C2.11533 1.68182 1.66667 2.14068 1.66667 2.70455V13.9545H7V14.6364H1V2.70455C1 1.765 1.74733 1 2.66667 1H15.3333C16.2527 1 17 1.765 17 2.70455ZM15 4.40909H9.66667V5.09091H15V4.40909ZM16.512 7.63545C16.8273 7.95727 17 8.38545 17 8.84091C17 9.29636 16.8267 9.72455 16.512 10.0464L10.6907 16H8.334V13.5891L14.1553 7.63545C14.8053 6.97 15.8627 6.97136 16.512 7.63545ZM16.3333 8.84091C16.3333 8.5675 16.2293 8.31114 16.0407 8.1175C15.6513 7.71864 15.016 7.71864 14.6267 8.1175L9.00067 13.8714V15.3182H10.4147L16.0407 9.56432C16.2293 9.37136 16.3333 9.11432 16.3333 8.84091ZM6 4.40909H5.66667V3.04545H5V4.40909H4.66667C3.74733 4.40909 3 5.17409 3 6.11364C3 7.04295 3.64867 7.84205 4.54133 8.01318L6.002 8.29341C6.58 8.40455 6.99933 8.92136 6.99933 9.52273C6.99933 10.0866 6.55067 10.5455 5.99933 10.5455H4.666C4.11467 10.5455 3.666 10.0866 3.666 9.52273V9.18182H2.99933V9.52273C2.99933 10.4623 3.74667 11.2273 4.666 11.2273H4.99933V12.5909H5.666V11.2273H5.99933C6.91867 11.2273 7.666 10.4623 7.666 9.52273C7.666 8.59341 7.01733 7.79432 6.124 7.62318L4.66333 7.34296C4.08533 7.23182 3.666 6.715 3.666 6.11364C3.666 5.54977 4.11467 5.09091 4.666 5.09091H5.99933C6.55067 5.09091 6.99933 5.54977 6.99933 6.11364V6.45455H7.666V6.11364C7.666 5.17409 6.91933 4.40909 6 4.40909ZM9.66667 7.81818H12.0913L12.758 7.13636H9.66667V7.81818Z" fill="white" stroke="white" stroke-width="0.2"/>
</svg>
