<svg width="16" height="16" viewBox="0 0 16 16" fill="none" xmlns="http://www.w3.org/2000/svg">
<path d="M8.00033 3.33325C4.371 3.33325 2.35433 6.15592 1.63766 7.41059C1.49033 7.66792 1.417 7.79725 1.42433 7.98925C1.433 8.18125 1.51966 8.30659 1.69233 8.55725C2.54566 9.79592 4.863 12.6666 8.00033 12.6666C11.1377 12.6666 13.455 9.79592 14.3083 8.55725C14.4817 8.30659 14.5683 8.18125 14.5757 7.98925C14.5837 7.79725 14.5103 7.66792 14.363 7.41059C13.647 6.15592 11.6297 3.33325 8.00033 3.33325Z" stroke="white"/>
<path d="M8 10C9.10457 10 10 9.10457 10 8C10 6.89543 9.10457 6 8 6C6.89543 6 6 6.89543 6 8C6 9.10457 6.89543 10 8 10Z" stroke="white"/>
</svg>
