<svg width="18" height="18" viewBox="0 0 18 18" fill="none" xmlns="http://www.w3.org/2000/svg">
<path d="M6 7H2.66667C2.11533 7 1.66667 7.44867 1.66667 8V9.66667H1V8C1 7.08067 1.748 6.33333 2.66667 6.33333H6C6.91867 6.33333 7.66667 7.08067 7.66667 8V9.66667H7V8C7 7.44867 6.55133 7 6 7ZM2.33333 3C2.33333 1.89733 3.23067 1 4.33333 1C5.436 1 6.33333 1.89733 6.33333 3C6.33333 4.10267 5.436 5 4.33333 5C3.23067 5 2.33333 4.10267 2.33333 3ZM3 3C3 3.73533 3.598 4.33333 4.33333 4.33333C5.06867 4.33333 5.66667 3.73533 5.66667 3C5.66667 2.26467 5.06867 1.66667 4.33333 1.66667C3.598 1.66667 3 2.26467 3 3ZM15.3333 6.33333H12C11.0813 6.33333 10.3333 7.08067 10.3333 8V9.66667H11V8C11 7.44867 11.4487 7 12 7H15.3333C15.8847 7 16.3333 7.44867 16.3333 8V9.66667H17V8C17 7.08067 16.252 6.33333 15.3333 6.33333ZM11.6667 3C11.6667 1.89733 12.564 1 13.6667 1C14.7693 1 15.6667 1.89733 15.6667 3C15.6667 4.10267 14.7693 5 13.6667 5C12.564 5 11.6667 4.10267 11.6667 3ZM12.3333 3C12.3333 3.73533 12.9313 4.33333 13.6667 4.33333C14.402 4.33333 15 3.73533 15 3C15 2.26467 14.402 1.66667 13.6667 1.66667C12.9313 1.66667 12.3333 2.26467 12.3333 3ZM13.3693 11.268L11.5967 13.0407L12.068 13.512L13.6667 11.9133V15.3333C13.6667 15.8847 13.218 16.3333 12.6667 16.3333H5.33333C4.782 16.3333 4.33333 15.8847 4.33333 15.3333V11H3.66667V15.3333C3.66667 16.2527 4.41467 17 5.33333 17H12.6667C13.5853 17 14.3333 16.2527 14.3333 15.3333V11.8793L15.9667 13.5127L16.438 13.0413L14.6653 11.2687C14.308 10.912 13.7273 10.912 13.3693 11.268Z" fill="white" stroke="white" stroke-width="0.5"/>
</svg>
