<svg width="16" height="16" viewBox="0 0 16 16" fill="none" xmlns="http://www.w3.org/2000/svg">
<path d="M11.4758 15.99C11.4758 15.8004 11.4758 15.6574 11.4758 15.4705C12.2578 15.4705 13.039 15.4705 13.8612 15.4705C13.8612 14.4699 13.8612 13.5121 13.8612 12.5405C14.0547 12.5405 14.206 12.5405 14.3848 12.5405C14.3848 13.4911 14.3848 14.4308 14.3848 15.3719C14.8995 15.3403 15.3905 14.9025 15.4366 14.3353C15.4827 13.7655 15.4856 13.1759 15.3901 12.6151C15.2496 11.79 14.5259 11.226 13.6854 11.2032C12.9528 11.1835 12.2192 11.1977 11.486 11.1989C11.4439 11.1989 11.4015 11.2177 11.4575 11.2357C11.4575 12.4305 11.4815 13.6259 11.4471 14.8196C11.4306 15.3949 10.9347 15.8681 10.3532 15.9491C10.0287 15.9944 9.69651 15.9843 9.34928 16.0001C9.34928 14.5589 9.34928 13.1656 9.34928 11.7493C9.51559 11.7493 9.67335 11.7493 9.8613 11.7493C9.8613 12.979 9.8613 14.1953 9.8613 15.4051C10.4905 15.5329 10.926 15.1967 10.9303 14.5934C10.9368 13.7168 10.9398 12.8398 10.9296 11.9632C10.918 10.9664 10.1417 10.1656 9.14196 10.1374C8.37611 10.1157 7.60856 10.1159 6.8429 10.1391C5.8441 10.1692 5.07787 10.9694 5.06648 11.974C5.0568 12.8284 5.06211 13.683 5.06458 14.5376C5.06648 15.1794 5.44143 15.5022 6.1209 15.4247C6.1209 14.2129 6.1209 12.997 6.1209 11.7538C6.30809 11.7538 6.46586 11.7538 6.6445 11.7538C6.6445 13.148 6.6445 14.5424 6.6445 15.9371C5.5206 16.1474 4.80145 15.7915 4.57876 14.9695C4.54459 14.8434 4.53509 14.7077 4.53414 14.5763C4.52978 13.9438 4.52522 13.3111 4.53433 12.6786C4.54136 12.1953 4.56851 11.7125 4.58692 11.2199C3.76241 11.2199 2.89366 11.1632 2.03573 11.2362C1.21236 11.3064 0.556623 12.1354 0.533271 12.9822C0.52245 13.3703 0.523019 13.7593 0.532892 14.1475C0.548839 14.7722 0.978277 15.2773 1.59775 15.3901C1.59775 14.4472 1.59775 13.5087 1.59775 12.5481C1.7745 12.5481 1.92467 12.5481 2.11661 12.5481C2.11661 13.4985 2.11661 14.4559 2.11661 15.4429C2.93106 15.4429 3.70507 15.4429 4.50453 15.4429C4.50453 15.6312 4.50453 15.7899 4.50453 15.9898C4.14002 15.9898 3.77627 15.994 3.41271 15.9889C2.80253 15.9804 2.1878 16.0088 1.58332 15.9437C0.672051 15.8457 0.00207431 15.0548 0.002454 14.1354C0.00264385 13.6047 -0.0203279 13.0638 0.0706096 12.5455C0.25837 11.4739 1.17819 10.7065 2.27058 10.6718C3.06946 10.6464 3.87005 10.676 4.66951 10.6616C4.79993 10.6593 4.96928 10.5903 5.0511 10.4934C5.53009 9.92647 6.1247 9.60841 6.86966 9.59912C7.61387 9.59001 8.35827 9.59039 9.10248 9.59798C9.85921 9.60575 10.4675 9.91926 10.9503 10.5017C11.0258 10.5929 11.183 10.6612 11.3036 10.6631C12.0698 10.6747 12.8366 10.6504 13.6026 10.6644C14.9937 10.6902 15.9942 11.7223 15.9974 13.1131C15.9982 13.4681 16.0037 13.8234 15.9959 14.1784C15.9767 15.0571 15.3058 15.8171 14.4367 15.9492C14.3053 15.9692 14.172 15.987 14.0397 15.9876C13.1969 15.9917 12.3544 15.99 11.4758 15.99Z" fill="white"/>
<path d="M3.69526 4.38933C3.47712 4.94294 3.27683 5.42107 3.10293 5.90868C3.0454 6.07027 2.98143 6.14234 2.80411 6.13665C2.43789 6.12489 2.07091 6.13912 1.7045 6.13172C1.43663 6.12641 1.3212 6.24267 1.32765 6.51198C1.33733 6.9224 1.32917 7.3332 1.3305 7.74381C1.33126 7.93973 1.31227 8.11858 1.52661 8.26689C1.62249 8.33327 1.58945 8.58589 1.61603 8.76133C1.11844 8.7361 0.813542 8.45977 0.802341 8.02488C0.788102 7.47032 0.789052 6.91482 0.802151 6.36026C0.812213 5.93751 1.11578 5.63254 1.53971 5.6075C1.82771 5.59043 2.11875 5.61737 2.40504 5.58949C2.50547 5.57962 2.63666 5.48536 2.68298 5.39395C2.82214 5.11913 2.92656 4.82687 3.06933 4.48112C2.8491 4.27591 2.59774 4.05857 2.36613 3.82187C2.0225 3.47063 2.01339 3.02019 2.35094 2.66268C2.70899 2.28337 3.07844 1.91372 3.45889 1.55679C3.82132 1.21673 4.25398 1.22773 4.62514 1.55811C4.64165 1.57291 4.65665 1.58941 4.67317 1.6042C4.90972 1.81472 5.12292 2.14947 5.38985 2.19973C5.645 2.24771 5.96129 2.01045 6.23904 1.87503C6.31384 1.83862 6.38503 1.71838 6.39111 1.63208C6.41047 1.35594 6.39244 1.07752 6.40003 0.800241C6.41275 0.341648 6.71214 0.0249192 7.17215 0.0116432C7.71606 -0.00390877 8.26093 -0.00333983 8.80504 0.0101259C9.2844 0.0220743 9.58437 0.338045 9.59576 0.815414C9.60202 1.08169 9.57905 1.35006 9.60639 1.61349C9.61664 1.71231 9.72011 1.81415 9.8044 1.88812C9.86648 1.94255 9.97811 1.93762 10.048 1.98712C10.5046 2.30973 10.8224 2.17393 11.1778 1.77053C11.746 1.12532 12.1441 1.15471 12.7619 1.77281C13.0445 2.05559 13.3324 2.33325 13.6088 2.62172C13.99 3.01943 13.9854 3.46133 13.597 3.85487C13.3791 4.07564 13.1478 4.28331 12.9314 4.48852C13.0713 4.83104 13.1858 5.14094 13.3276 5.43795C13.3633 5.51286 13.4833 5.58512 13.5695 5.59157C13.8457 5.61187 14.1248 5.59195 14.4022 5.60333C14.8825 5.62306 15.1879 5.93087 15.1952 6.40691C15.2031 6.92847 15.2026 7.45022 15.1953 7.97178C15.1889 8.43625 14.9225 8.70993 14.4204 8.77195C14.3949 8.53696 14.3182 8.30311 14.5973 8.14114C14.6495 8.1108 14.6613 7.98145 14.6624 7.89724C14.6683 7.43126 14.6602 6.96489 14.6674 6.4989C14.6712 6.2476 14.5635 6.13001 14.3107 6.13286C13.933 6.13703 13.5543 6.14708 13.178 6.12337C13.084 6.11749 12.9546 6.01148 12.9149 5.91987C12.7049 5.43435 12.5185 4.93877 12.2931 4.36885C12.5492 4.12533 12.8583 3.82434 13.1754 3.53208C13.3952 3.32952 13.3899 3.14972 13.1731 2.94451C12.8585 2.64713 12.5489 2.3433 12.2557 2.02505C12.0338 1.78419 11.8553 1.8115 11.6476 2.03738C11.4225 2.28242 11.1707 2.50318 10.9458 2.74841C10.8112 2.89501 10.7062 2.90905 10.5199 2.8165C10.1251 2.6202 9.71593 2.44552 9.29788 2.30613C9.10766 2.24278 9.05716 2.16483 9.06247 1.98333C9.0731 1.61748 9.06209 1.25087 9.06665 0.884639C9.0695 0.648136 8.95976 0.537944 8.72435 0.539082C8.24669 0.541358 7.76884 0.542875 7.29118 0.538134C7.04172 0.535668 6.92382 0.643015 6.92895 0.898294C6.93636 1.26433 6.92458 1.63094 6.93332 1.99698C6.9373 2.16388 6.89155 2.23956 6.71594 2.30044C6.28878 2.44818 5.8694 2.62456 5.46256 2.82181C5.28752 2.90658 5.19032 2.89179 5.06388 2.75618C4.82182 2.49635 4.55983 2.2553 4.31283 2.00002C4.13191 1.81302 3.96788 1.79291 3.77689 1.99224C3.45415 2.32889 3.12229 2.6568 2.78854 2.98226C2.60761 3.15883 2.60932 3.32212 2.78683 3.49547C3.10331 3.80499 3.41846 4.11679 3.69526 4.38933Z" fill="white"/>
<path d="M11.7379 7.18846C11.5349 7.18846 11.3931 7.18846 11.2184 7.18846C11.1512 6.11499 10.736 5.21886 9.8481 4.58445C9.22027 4.13572 8.51498 3.96579 7.7442 4.01036C6.16105 4.10196 5.11384 5.2016 4.76186 7.18087C4.61454 7.18087 4.4638 7.18087 4.26465 7.18087C4.3011 5.9187 4.79186 4.8953 5.81438 4.17726C7.11409 3.26443 8.50777 3.19654 9.88303 3.9821C11.0888 4.67094 11.6724 5.76963 11.7379 7.18846Z" fill="white"/>
<path d="M8.00866 6.13528C8.9074 6.1404 9.60813 6.85371 9.59655 7.75193C9.58535 8.61847 8.85216 9.335 7.98626 9.32533C7.09795 9.31547 6.38811 8.58737 6.39855 7.69674C6.4088 6.82128 7.12131 6.13016 8.00866 6.13528ZM7.99233 6.66936C7.40342 6.67145 6.93165 7.13914 6.9307 7.72158C6.92975 8.29909 7.40646 8.78215 7.98607 8.79068C8.57308 8.79941 9.07105 8.3008 9.06441 7.71115C9.05757 7.12833 8.58314 6.66727 7.99233 6.66936Z" fill="white"/>
<path d="M5.06307 8.77675C5.06763 9.66378 4.3426 10.3938 3.46018 10.3907C2.58878 10.3877 1.8702 9.67212 1.86526 8.80273C1.86014 7.9064 2.56808 7.19898 3.46816 7.20069C4.35418 7.20258 5.05852 7.89844 5.06307 8.77675ZM3.4524 7.73495C2.86387 7.7397 2.39494 8.21024 2.39722 8.79362C2.3995 9.37056 2.88095 9.85249 3.45885 9.85628C4.04795 9.86026 4.5408 9.36089 4.53055 8.7703C4.52049 8.18748 4.04435 7.73021 3.4524 7.73495Z" fill="white"/>
<path d="M12.518 7.20096C13.4063 7.19527 14.1186 7.88449 14.1296 8.76052C14.1408 9.65097 13.433 10.3785 12.5432 10.391C11.6798 10.4031 10.9428 9.68454 10.9318 8.81951C10.9202 7.92053 11.6198 7.20665 12.518 7.20096ZM12.5449 7.73504C11.953 7.72935 11.4753 8.18586 11.4641 8.76792C11.4527 9.35737 11.9448 9.85845 12.5332 9.85637C13.1114 9.85447 13.5938 9.37387 13.5974 8.79618C13.6011 8.21241 13.1331 7.74054 12.5449 7.73504Z" fill="white"/>
<path d="M9.04447 15.974C8.33842 15.974 7.65516 15.974 6.95215 15.974C6.95215 15.8082 6.95215 15.6584 6.95215 15.4822C7.64206 15.4822 8.3333 15.4822 9.04447 15.4822C9.04447 15.6367 9.04447 15.7871 9.04447 15.974Z" fill="white"/>
</svg>
