<svg width="18" height="18" viewBox="0 0 18 18" fill="none" xmlns="http://www.w3.org/2000/svg">
<path d="M4.33333 14.342C4.33333 14.56 4.354 14.7826 4.39 15.0065H3.72267C3.692 14.7832 3.66667 14.5613 3.66667 14.342C3.66667 11.4109 6.05933 9.02604 9 9.02604C9.86333 9.02604 10.6773 9.23602 11.3993 9.60083L10.9007 10.0979C10.3193 9.83805 9.67733 9.69054 9 9.69054C6.42667 9.69054 4.33333 11.7777 4.33333 14.342ZM14.2773 15.0065C14.308 14.7832 14.3333 14.5613 14.3333 14.342C14.3333 13.4815 14.1227 12.6701 13.7567 11.9505L13.258 12.4475C13.5187 13.027 13.6667 13.6669 13.6667 14.342C13.6667 14.56 13.646 14.7826 13.61 15.0065H14.2773ZM10.1447 13.6709C10.262 13.8682 10.3333 14.0961 10.3333 14.342C10.3333 15.075 9.73533 15.671 9 15.671C8.26467 15.671 7.66667 15.075 7.66667 14.342C7.66667 13.6091 8.26467 13.013 9 13.013C9.24667 13.013 9.47467 13.0848 9.67333 13.2011L12.7647 10.1198L13.236 10.5896L10.1447 13.6709ZM9.66667 14.342C9.66667 13.9752 9.36733 13.6775 9 13.6775C8.63267 13.6775 8.33333 13.9752 8.33333 14.342C8.33333 14.7088 8.63267 15.0065 9 15.0065C9.36733 15.0065 9.66667 14.7088 9.66667 14.342ZM14.3333 8.41537V3.9041L15.928 5.49358L16.3993 5.02378L14.618 3.24824C14.2767 2.90802 13.7227 2.90735 13.382 3.24824L11.6007 5.02378L12.072 5.49358L13.6667 3.9041V7.87845C12.436 6.99334 10.9467 6.45178 9.33333 6.38467V1.91061L10.928 3.50009L11.3993 3.03029L9.618 1.25542C9.27667 0.915194 8.72267 0.914529 8.382 1.25542L6.60067 3.03095L7.072 3.50075L8.66667 1.91127V6.38533C7.05333 6.45178 5.564 6.99401 4.33333 7.87912V3.90476L5.928 5.49424L6.39933 5.02444L4.618 3.24891C4.27667 2.90868 3.72267 2.90802 3.382 3.24891L1.60067 5.02444L2.072 5.49424L3.66667 3.90476V8.41603C2.03467 9.87593 1 11.9884 1 14.342C1 15.1354 1.136 15.9534 1.40467 16.7707L1.48 17H5.66667V16.3355H1.96733C1.768 15.661 1.66667 14.9919 1.66667 14.342C1.66667 10.3118 4.95667 7.03255 9 7.03255C13.0433 7.03255 16.3333 10.3118 16.3333 14.342C16.3333 14.9919 16.2327 15.661 16.0327 16.3355H12.3333V17H16.52L16.5953 16.7707C16.864 15.9534 17 15.1354 17 14.342C17 11.9884 15.9653 9.87593 14.3333 8.41537Z" fill="white" stroke="white" stroke-width="0.2"/>
</svg>
