<svg width="18" height="19" viewBox="0 0 18 19" fill="none" xmlns="http://www.w3.org/2000/svg">
<path d="M16.4849 1.5179C15.7997 0.827722 14.6851 0.827014 14.0006 1.5179L12.8818 2.64695C12.8818 2.64695 12.8762 2.64979 12.8741 2.65191C12.872 2.65403 12.8713 2.65757 12.8692 2.6597L8.79036 6.77739C8.20144 7.37059 7.86412 8.19101 7.86412 9.02984V9.85947C7.86412 10.0548 8.02154 10.2134 8.2155 10.2134H9.03913C9.8719 10.2134 10.6864 9.87362 11.2753 9.28043L16.4856 4.02023C16.818 3.6854 17 3.24086 17 2.76871C17 2.29656 16.8173 1.85131 16.4856 1.51719L16.4849 1.5179ZM10.7778 8.77996C10.3203 9.24079 9.68567 9.50553 9.03843 9.50553H8.56617V9.02984C8.56617 8.37789 8.82901 7.73939 9.2865 7.27785L13.1236 3.40438L14.6141 4.90577L10.7771 8.77925L10.7778 8.77996ZM15.988 3.51976L15.111 4.4046L13.6204 2.9032L14.4975 2.01836C14.9079 1.60497 15.5776 1.60497 15.988 2.01836C16.1869 2.21869 16.2965 2.48485 16.2965 2.76942C16.2965 3.05398 16.1869 3.31943 15.988 3.52047V3.51976ZM16.0688 12.3469C16.1946 12.8028 16.1363 13.2799 15.9044 13.6912C15.6739 14.1025 15.2972 14.3983 14.8446 14.5251C14.3914 14.6511 13.9191 14.593 13.5101 14.3587L12.9823 14.0579C12.2353 14.7948 11.3252 15.3292 10.3238 15.6208V16.2303C10.3238 17.2065 9.53598 18 8.56688 18C7.59777 18 6.80998 17.2065 6.80998 16.2303V15.6208C5.80854 15.3292 4.89847 14.7948 4.15144 14.0579L3.62296 14.3594C3.21395 14.593 2.73889 14.6489 2.28912 14.5251C1.83654 14.3983 1.45986 14.1025 1.22866 13.6905C0.997448 13.2799 0.939119 12.8021 1.06491 12.3469C1.19 11.8911 1.48446 11.5116 1.89276 11.2788L2.41843 10.9793C2.30177 10.4902 2.24274 9.99467 2.24274 9.50553C2.24274 9.01639 2.30177 8.52088 2.41843 8.03174L1.89276 7.73231C1.48446 7.49871 1.19 7.12 1.06491 6.66413C0.939119 6.20826 0.997448 5.73115 1.22936 5.31988C1.45986 4.90861 1.83654 4.61272 2.28912 4.48601C2.7424 4.36142 3.21466 4.41805 3.62366 4.65236L4.15144 4.9532C4.89847 4.21631 5.80854 3.68186 6.80998 3.39022V2.78074C6.80998 1.80459 7.59777 1.01106 8.56688 1.01106C9.53598 1.01106 10.3238 1.80459 10.3238 2.78074V3.48861C10.3238 3.68399 10.1664 3.84255 9.9724 3.84255C9.77844 3.84255 9.62102 3.68399 9.62102 3.48861V2.78074C9.62102 2.19533 9.14806 1.71893 8.56688 1.71893C7.9857 1.71893 7.51274 2.19533 7.51274 2.78074V3.66275C7.51274 3.82556 7.4017 3.96855 7.24358 4.00678C6.1803 4.26586 5.22104 4.82932 4.46979 5.63701C4.35805 5.75593 4.18165 5.78212 4.0404 5.70355L3.2772 5.26891C3.03194 5.12875 2.74732 5.09478 2.47606 5.1684C2.20479 5.24414 1.9792 5.42181 1.84076 5.66886C1.70161 5.91591 1.66648 6.20189 1.74167 6.47513C1.81616 6.74907 1.99256 6.9763 2.23852 7.11646L2.99891 7.54968C3.14016 7.63038 3.20833 7.79814 3.16335 7.95458C3.01788 8.4692 2.94409 8.99091 2.94409 9.50482C2.94409 10.0187 3.01718 10.5411 3.16335 11.0551C3.20763 11.2122 3.14016 11.3793 2.99891 11.46L2.23782 11.8939C1.99256 12.0333 1.81616 12.2613 1.74167 12.5338C1.66648 12.8078 1.70091 13.0937 1.84006 13.3401C1.9792 13.5878 2.20549 13.7655 2.47606 13.8412C2.74732 13.9163 3.03124 13.8816 3.2765 13.7414L4.0404 13.3061C4.18236 13.2282 4.35875 13.2537 4.46979 13.3726C5.22104 14.1803 6.18101 14.7438 7.24358 15.0029C7.4017 15.0418 7.51274 15.1841 7.51274 15.3469V16.2289C7.51274 16.8143 7.9857 17.2907 8.56688 17.2907C9.14806 17.2907 9.62102 16.8143 9.62102 16.2289V15.3469C9.62102 15.1841 9.73205 15.0411 9.89017 15.0029C10.9535 14.7438 11.9127 14.1803 12.664 13.3726C12.775 13.253 12.9514 13.2268 13.0934 13.3061L13.8566 13.7407C14.1025 13.8809 14.3871 13.9163 14.6577 13.8412C14.929 13.7655 15.1546 13.5878 15.293 13.3408C15.4321 13.0937 15.4673 12.8078 15.3921 12.5338C15.3176 12.2606 15.1412 12.0333 14.8959 11.8939L14.1348 11.46C13.9936 11.3793 13.9254 11.2115 13.9704 11.0551C14.1159 10.5404 14.1897 10.0187 14.1897 9.50482C14.1897 9.17141 14.1587 8.83659 14.099 8.50743C14.0632 8.3156 14.1897 8.13084 14.3801 8.09545C14.5677 8.05722 14.754 8.18606 14.7891 8.3786C14.858 8.74952 14.8917 9.12894 14.8917 9.50482C14.8917 9.99396 14.8327 10.4895 14.716 10.9786L15.2417 11.278C15.65 11.5109 15.9445 11.8904 16.0695 12.3462L16.0688 12.3469ZM5.9505 8.46779C5.63848 9.26627 5.70524 10.1681 6.13954 11.0091C6.34616 11.4083 6.67856 11.7431 7.07492 11.9512C7.90909 12.388 8.80441 12.4552 9.59783 12.1416C10.3561 11.8401 10.9471 11.2235 11.2184 10.4498C11.2845 10.2658 11.4847 10.1695 11.6675 10.2339C11.8502 10.2998 11.9457 10.5015 11.8818 10.6863C11.5424 11.6532 10.8038 12.4234 9.85574 12.7993C9.44322 12.9635 9.00962 13.0449 8.57039 13.0449C7.9618 13.0449 7.34267 12.8885 6.75165 12.5791C6.22739 12.3052 5.78887 11.8635 5.5169 11.3354C4.98702 10.3111 4.90971 9.19973 5.29764 8.20871C5.6708 7.25379 6.43541 6.51052 7.39538 6.16791C7.5788 6.10208 7.77838 6.19906 7.84444 6.38381C7.90909 6.56857 7.81282 6.77031 7.6301 6.83614C6.86198 7.10938 6.24988 7.70399 5.9505 8.46779Z" fill="white" stroke="white" stroke-width="0.3"/>
</svg>
