<svg width="18" height="18" viewBox="0 0 18 18" fill="none" xmlns="http://www.w3.org/2000/svg">
<path d="M16.7876 4.97733C16.7476 4.99267 16.707 5 16.6663 5C16.533 5 16.407 4.91933 16.3556 4.788L15.3197 2.13267C12.9604 7.698 8.2865 11.354 1.41066 12.9907C1.38466 12.9973 1.35866 13 1.33333 13C1.18266 13 1.046 12.8973 1.00933 12.744C0.966667 12.5647 1.07733 12.3847 1.25666 12.342C7.95784 10.7467 12.4944 7.18733 14.7523 1.76733L11.9571 2.858C11.7871 2.92533 11.5924 2.84 11.5258 2.66867C11.4591 2.49733 11.5438 2.304 11.7151 2.23733L14.6477 1.09267C14.875 1.004 15.123 1.008 15.347 1.10667C15.571 1.20533 15.7437 1.38467 15.8323 1.61267L16.977 4.546C17.0443 4.71733 16.959 4.91067 16.7876 4.97733ZM15.333 6.33333C15.149 6.33333 14.9997 6.48267 14.9997 6.66667V16.6667C14.9997 16.8507 15.149 17 15.333 17C15.517 17 15.6663 16.8507 15.6663 16.6667V6.66667C15.6663 6.48267 15.517 6.33333 15.333 6.33333ZM11.9997 9.66667C11.8157 9.66667 11.6664 9.816 11.6664 10V16.6667C11.6664 16.8507 11.8157 17 11.9997 17C12.1837 17 12.3331 16.8507 12.3331 16.6667V10C12.3331 9.816 12.1837 9.66667 11.9997 9.66667ZM5.33323 13C5.14924 13 4.99991 13.1493 4.99991 13.3333V16.6667C4.99991 16.8507 5.14924 17 5.33323 17C5.51723 17 5.66656 16.8507 5.66656 16.6667V13.3333C5.66656 13.1493 5.51723 13 5.33323 13ZM1.99998 14.3333C1.81598 14.3333 1.66665 14.4827 1.66665 14.6667V16.6667C1.66665 16.8507 1.81598 17 1.99998 17C2.18397 17 2.3333 16.8507 2.3333 16.6667V14.6667C2.3333 14.4827 2.18397 14.3333 1.99998 14.3333ZM8.66649 11.6667C8.48249 11.6667 8.33316 11.816 8.33316 12V16.6667C8.33316 16.8507 8.48249 17 8.66649 17C8.85048 17 8.99981 16.8507 8.99981 16.6667V12C8.99981 11.816 8.85048 11.6667 8.66649 11.6667ZM1 5C1 2.794 2.79396 1 4.99991 1C7.20585 1 8.99981 2.794 8.99981 5C8.99981 7.206 7.20585 9 4.99991 9C2.79396 9 1 7.206 1 5ZM4.99991 8.33333C5.47789 8.33333 5.93055 8.228 6.34254 8.046C6.34054 8.03067 6.33321 8.01667 6.33321 8V7.66667C6.33321 6.93133 5.73522 6.33333 4.99991 6.33333C4.26459 6.33333 3.6666 6.93133 3.6666 7.66667V8C3.6666 8.016 3.65994 8.03 3.65727 8.046C4.06859 8.228 4.52125 8.33333 4.99991 8.33333ZM1.66665 5C1.66665 6.08533 2.19597 7.042 3.00129 7.65067C3.00995 6.55533 3.90193 5.66667 4.99991 5.66667C6.09788 5.66667 6.98986 6.55533 6.99853 7.65067C7.80384 7.04133 8.33316 6.08533 8.33316 5C8.33316 3.162 6.83786 1.66667 4.99991 1.66667C3.16195 1.66667 1.66665 3.162 1.66665 5ZM3.6666 3.66667C3.6666 2.93133 4.26459 2.33333 4.99991 2.33333C5.73522 2.33333 6.33321 2.93133 6.33321 3.66667C6.33321 4.402 5.73522 5 4.99991 5C4.26459 5 3.6666 4.402 3.6666 3.66667ZM4.33325 3.66667C4.33325 4.03467 4.63258 4.33333 4.99991 4.33333C5.36723 4.33333 5.66656 4.03467 5.66656 3.66667C5.66656 3.29867 5.36723 3 4.99991 3C4.63258 3 4.33325 3.29867 4.33325 3.66667Z" fill="white" stroke="white" stroke-width="0.2"/>
</svg>
