<svg width="87" height="86" viewBox="0 0 87 86" fill="none" xmlns="http://www.w3.org/2000/svg">
<path d="M43.3984 86C67.1467 86 86.3984 66.7482 86.3984 43C86.3984 19.2518 67.1467 0 43.3984 0C19.6502 0 0.398438 19.2518 0.398438 43C0.398438 66.7482 19.6502 86 43.3984 86Z" fill="#01565A" fill-opacity="0.26"/>
<g opacity="0.31">
<path d="M53.5422 22.2877H32.7465C32.098 22.2877 31.4936 22.5353 31.0137 22.9426L37.7833 32.1928H50.3904L55.8317 23.5742C55.3412 22.7805 54.4801 22.2877 53.5422 22.2877Z" fill="#01565A"/>
</g>
<g opacity="0.5">
<path d="M55.8324 23.5746L50.3906 32.1932L56.6942 42.999H66.6417C66.6417 42.5324 66.5209 42.0664 66.2797 41.6486L55.8818 23.6385L55.8324 23.5746Z" fill="#01565A"/>
</g>
<g opacity="0.5">
<path d="M55.8328 62.4244L50.3904 53.8058H37.7833L31.0137 63.0566C31.4936 63.4628 32.098 63.7115 32.7465 63.7115H53.5422C54.4795 63.7115 55.3412 63.2187 55.8328 62.4244Z" fill="#01565A"/>
</g>
<g opacity="0.31">
<path d="M50.3906 53.805L55.7726 62.5021C55.8063 62.4515 55.8522 62.4126 55.8818 62.3597L66.2797 44.3502C66.5209 43.9325 66.6417 43.4658 66.6417 42.9992H56.6942L50.3906 53.805Z" fill="#01565A"/>
</g>
<g opacity="0.5">
<path d="M37.7831 32.194L31.0124 22.9431C30.7782 23.1425 30.5638 23.3656 30.4063 23.6393L20.4873 41.6993C20.2647 42.1049 20.1543 42.5523 20.1543 42.9997H30.5789L37.7831 32.194Z" fill="#01565A"/>
</g>
<g opacity="0.31">
<path d="M20.1543 42.9992C20.1543 43.4467 20.2659 43.8947 20.4873 44.2997L30.4063 62.3597C30.5649 62.6334 30.7782 62.8577 31.013 63.0558L37.7831 53.805L30.5789 42.9992H20.1543Z" fill="#01565A"/>
</g>
<path opacity="0.9" d="M50.3903 32.1937H37.7837L30.5801 42.9995L37.7837 53.8053H50.3903L56.6938 42.9995L50.3903 32.1937Z" fill="#01565A"/>
</svg>
