<svg width="23" height="23" viewBox="0 0 23 23" fill="none" xmlns="http://www.w3.org/2000/svg">
<path fill-rule="evenodd" clip-rule="evenodd" d="M11.5 1.4375C5.94781 1.4375 1.4375 5.94781 1.4375 11.5C1.4375 17.0522 5.94781 21.5625 11.5 21.5625C17.0522 21.5625 21.5625 17.0522 21.5625 11.5C21.5625 5.94781 17.0522 1.4375 11.5 1.4375ZM11.5 2.31251C16.5793 2.31251 20.6875 6.42071 20.6875 11.5C20.6875 16.5793 16.5793 20.6875 11.5 20.6875C10.5709 20.6875 9.67462 20.5485 8.82971 20.2927C9.20606 19.6635 9.69198 18.7641 9.88501 18.0215C9.9997 17.5812 10.4712 15.7853 10.4712 15.7853C10.7776 16.3703 11.6729 16.8654 12.6262 16.8654C15.4629 16.8654 17.5079 14.2565 17.5079 11.0146C17.5079 7.90661 14.9717 5.58179 11.7085 5.58179C7.64862 5.58179 5.49379 8.30662 5.49379 11.2735C5.49379 12.6534 6.22765 14.371 7.40272 14.918C7.5807 15.0008 7.67629 14.9649 7.71717 14.7924C7.74862 14.6614 7.90737 14.023 7.97862 13.7259C8.00144 13.6312 7.99039 13.5493 7.91371 13.4559C7.52477 12.9842 7.21302 12.1177 7.21302 11.3094C7.21302 9.23463 8.78375 7.22669 11.4598 7.22669C13.7705 7.22669 15.3888 8.80188 15.3888 11.0539C15.3888 13.5983 14.104 15.3614 12.4323 15.3614C11.509 15.3614 10.8177 14.5977 11.0394 13.661C11.3053 12.5431 11.8187 11.3368 11.8187 10.5293C11.8187 9.80719 11.4312 9.20483 10.6284 9.20483C9.68453 9.20483 8.92627 10.1807 8.92627 11.4889C8.92627 12.3214 9.20824 12.8851 9.20824 12.8851C9.20824 12.8851 8.27587 16.8272 8.1051 17.5609C7.93397 18.2941 7.97981 19.2815 8.0504 20.0167C4.68425 18.6542 2.31251 15.3585 2.31251 11.5C2.31251 6.42068 6.42068 2.31251 11.5 2.31251Z" fill="black"/>
</svg>
