<svg width="23" height="23" viewBox="0 0 23 23" fill="none" xmlns="http://www.w3.org/2000/svg">
<path fill-rule="evenodd" clip-rule="evenodd" d="M4.79167 1.19824C4.09271 1.19824 3.42238 1.4759 2.92815 1.97014C2.43391 2.46437 2.15625 3.1347 2.15625 3.83366C2.15625 4.53261 2.43391 5.20294 2.92815 5.69718C3.42238 6.19142 4.09271 6.46908 4.79167 6.46908C5.49062 6.46908 6.16095 6.19142 6.65519 5.69718C7.14942 5.20294 7.42708 4.53261 7.42708 3.83366C7.42708 3.1347 7.14942 2.46437 6.65519 1.97014C6.16095 1.4759 5.49062 1.19824 4.79167 1.19824ZM3.59375 3.83366C3.59375 3.51595 3.71996 3.21126 3.94461 2.9866C4.16926 2.76195 4.47396 2.63574 4.79167 2.63574C5.10937 2.63574 5.41407 2.76195 5.63872 2.9866C5.86337 3.21126 5.98958 3.51595 5.98958 3.83366C5.98958 4.15137 5.86337 4.45606 5.63872 4.68071C5.41407 4.90537 5.10937 5.03158 4.79167 5.03158C4.47396 5.03158 4.16926 4.90537 3.94461 4.68071C3.71996 4.45606 3.59375 4.15137 3.59375 3.83366ZM2.15625 7.66699C2.15625 7.47637 2.23198 7.29355 2.36677 7.15876C2.50156 7.02397 2.68438 6.94824 2.875 6.94824H6.70833C6.89896 6.94824 7.08177 7.02397 7.21657 7.15876C7.35136 7.29355 7.42708 7.47637 7.42708 7.66699V20.1253C7.42708 20.316 7.35136 20.4988 7.21657 20.6336C7.08177 20.7684 6.89896 20.8441 6.70833 20.8441H2.875C2.68438 20.8441 2.50156 20.7684 2.36677 20.6336C2.23198 20.4988 2.15625 20.316 2.15625 20.1253V7.66699ZM3.59375 8.38574V19.4066H5.98958V8.38574H3.59375ZM8.86458 7.66699C8.86458 7.47637 8.94031 7.29355 9.0751 7.15876C9.20989 7.02397 9.39271 6.94824 9.58333 6.94824H13.4167C13.6073 6.94824 13.7901 7.02397 13.9249 7.15876C14.0597 7.29355 14.1354 7.47637 14.1354 7.66699V8.08291L14.5523 7.9037C15.2711 7.59653 16.0336 7.40412 16.812 7.33349C19.4714 7.09199 21.8021 9.18116 21.8021 11.8645V20.1253C21.8021 20.316 21.7264 20.4988 21.5916 20.6336C21.4568 20.7684 21.274 20.8441 21.0833 20.8441H17.25C17.0594 20.8441 16.8766 20.7684 16.7418 20.6336C16.607 20.4988 16.5313 20.316 16.5313 20.1253V13.417C16.5313 13.0993 16.405 12.7946 16.1804 12.5699C15.9557 12.3453 15.651 12.2191 15.3333 12.2191C15.0156 12.2191 14.7109 12.3453 14.4863 12.5699C14.2616 12.7946 14.1354 13.0993 14.1354 13.417V20.1253C14.1354 20.316 14.0597 20.4988 13.9249 20.6336C13.7901 20.7684 13.6073 20.8441 13.4167 20.8441H9.58333C9.39271 20.8441 9.20989 20.7684 9.0751 20.6336C8.94031 20.4988 8.86458 20.316 8.86458 20.1253V7.66699ZM10.3021 8.38574V19.4066H12.6979V13.417C12.6979 12.718 12.9756 12.0477 13.4698 11.5535C13.964 11.0592 14.6344 10.7816 15.3333 10.7816C16.0323 10.7816 16.7026 11.0592 17.1969 11.5535C17.6911 12.0477 17.9688 12.718 17.9688 13.417V19.4066H20.3646V11.8645C20.3646 10.0398 18.7728 8.59849 16.9433 8.76524C16.3148 8.82242 15.6992 8.97763 15.1187 9.22524L13.7003 9.83378C13.5909 9.88077 13.4716 9.89985 13.353 9.8893C13.2344 9.87875 13.1203 9.83891 13.0209 9.77335C12.9215 9.70779 12.84 9.61857 12.7836 9.5137C12.7272 9.40883 12.6978 9.2916 12.6979 9.17253V8.38574H10.3021Z" fill="black"/>
</svg>
