<svg width="23" height="23" viewBox="0 0 23 23" fill="none" xmlns="http://www.w3.org/2000/svg">
<path fill-rule="evenodd" clip-rule="evenodd" d="M10.0507 3.63017C10.9941 2.68659 12.2737 2.15641 13.608 2.15625H16.1955C16.3861 2.15625 16.5689 2.23198 16.7037 2.36677C16.8385 2.50156 16.9143 2.68438 16.9143 2.875V6.325C16.9143 6.51562 16.8385 6.69844 16.7037 6.83323C16.5689 6.96802 16.3861 7.04375 16.1955 7.04375H13.608C13.5891 7.04375 13.5704 7.04747 13.553 7.05469C13.5356 7.06192 13.5197 7.0725 13.5064 7.08585C13.493 7.0992 13.4824 7.11505 13.4752 7.13249C13.468 7.14993 13.4643 7.16862 13.4643 7.1875V9.05625H16.1955C16.3048 9.05619 16.4126 9.08104 16.5108 9.12892C16.6091 9.1768 16.6951 9.24644 16.7623 9.33255C16.8296 9.41867 16.8763 9.51898 16.899 9.62587C16.9217 9.73276 16.9197 9.84341 16.8932 9.94942L16.0307 13.3994C15.9918 13.555 15.902 13.693 15.7755 13.7917C15.6491 13.8903 15.4934 13.9438 15.333 13.9438H13.4643V20.125C13.4643 20.3156 13.3885 20.4984 13.2537 20.6332C13.1189 20.768 12.9361 20.8438 12.7455 20.8438H9.29551C9.10488 20.8438 8.92207 20.768 8.78727 20.6332C8.65248 20.4984 8.57676 20.3156 8.57676 20.125V13.9438H6.70801C6.51738 13.9438 6.33457 13.868 6.19977 13.7332C6.06498 13.5984 5.98926 13.4156 5.98926 13.225V9.775C5.98926 9.68061 6.00785 9.58715 6.04397 9.49995C6.08009 9.41274 6.13303 9.33351 6.19977 9.26677C6.26652 9.20003 6.34575 9.14708 6.43295 9.11096C6.52016 9.07484 6.61362 9.05625 6.70801 9.05625H8.57676V7.1875C8.57692 5.85319 9.1071 4.57359 10.0507 3.63017ZM13.608 3.59375C12.6549 3.59375 11.7408 3.97238 11.0668 4.64633C10.3929 5.32029 10.0143 6.23438 10.0143 7.1875V9.775C10.0143 9.96562 9.93853 10.1484 9.80374 10.2832C9.66895 10.418 9.48613 10.4937 9.29551 10.4937H7.42676V12.5063H9.29551C9.48613 12.5063 9.66895 12.582 9.80374 12.7168C9.93853 12.8516 10.0143 13.0344 10.0143 13.225V19.4062H12.0268V13.225C12.0268 13.0344 12.1025 12.8516 12.2373 12.7168C12.3721 12.582 12.5549 12.5063 12.7455 12.5063H14.7714L15.2745 10.4937H12.7455C12.5549 10.4937 12.3721 10.418 12.2373 10.2832C12.1025 10.1484 12.0268 9.96562 12.0268 9.775V7.1875C12.0268 6.76813 12.1934 6.36593 12.4899 6.06939C12.7864 5.77285 13.1886 5.60625 13.608 5.60625H15.4768V3.59375H13.608Z" fill="black"/>
</svg>
