<svg width="29" height="29" viewBox="0 0 29 29" fill="none" xmlns="http://www.w3.org/2000/svg">
<rect width="29" height="29" rx="4" fill="#EFF7F9"/>
<path d="M13.6931 20.1663H20.1693M18.5502 11.2616L19.3597 12.0711M19.7645 9.23775C19.924 9.3972 20.0505 9.5865 20.1368 9.79485C20.2232 10.0032 20.2676 10.2265 20.2676 10.452C20.2676 10.6776 20.2232 10.9009 20.1368 11.1092C20.0505 11.3176 19.924 11.5069 19.7645 11.6663L12.074 19.3568L8.83594 20.1663L9.64546 16.9736L17.3392 9.24099C17.6424 8.93626 18.0492 8.7567 18.4787 8.73796C18.9082 8.71921 19.329 8.86265 19.6577 9.1398L19.7645 9.23775Z" stroke="black" stroke-linecap="round" stroke-linejoin="round"/>
</svg>
