<svg width="122" height="122" viewBox="0 0 122 122" fill="none" xmlns="http://www.w3.org/2000/svg">
<rect width="122" height="122" rx="61" fill="#FFC500"/>
<g clip-path="url(#clip0_1884_21230)">
<path d="M96.0009 61.2144C96.0009 41.7631 80.3297 25.9956 61.0009 25.9956C41.6634 26 25.9922 41.7631 25.9922 61.2187C25.9922 78.7931 38.7934 93.3619 55.5234 96.0044V71.395H46.6422V61.2187H55.5322V53.4531C55.5322 44.6287 60.7603 39.755 68.7534 39.755C72.5859 39.755 76.5891 40.4419 76.5891 40.4419V49.1044H72.1747C67.8303 49.1044 66.4741 51.8212 66.4741 54.6081V61.2144H76.1778L74.6291 71.3906H66.4697V96C83.1997 93.3575 96.0009 78.7887 96.0009 61.2144Z" fill="black"/>
</g>
<defs>
<clipPath id="clip0_1884_21230">
<rect width="70" height="70" fill="white" transform="translate(26 26)"/>
</clipPath>
</defs>
</svg>
