<svg width="23" height="23" viewBox="0 0 23 23" fill="none" xmlns="http://www.w3.org/2000/svg">
<g clip-path="url(#clip0_2993_24332)">
<path d="M15.8126 6.3251C14.7076 5.39862 13.3334 4.85288 11.8939 4.76877C10.4543 4.68466 9.02596 5.06667 7.82057 5.85816C6.61518 6.64965 5.69691 7.80848 5.2019 9.16288C4.70689 10.5173 4.66149 11.9951 5.07242 13.3774C5.48336 14.7596 6.32875 15.9726 7.48328 16.8366C8.63781 17.7006 10.04 18.1696 11.482 18.174C12.924 18.1784 14.3291 17.718 15.4889 16.8612C16.6487 16.0043 17.5015 14.7964 17.9209 13.4168H11.5001V9.58343H21.8501C22.3147 12.0479 21.8855 14.5973 20.6395 16.7737C19.3935 18.9502 17.4124 20.6111 15.052 21.4583C12.6915 22.3055 10.1064 22.2834 7.76074 21.3959C5.41513 20.5085 3.46272 18.814 2.25413 16.6165C1.04554 14.4191 0.659951 11.8628 1.16661 9.40661C1.67326 6.95045 3.03897 4.75538 5.01847 3.21558C6.99798 1.67579 9.46159 0.892148 11.9669 1.00539C14.4722 1.11863 16.8551 2.12133 18.6876 3.83343L15.8126 6.3251Z" stroke="black" stroke-width="1.5" stroke-linecap="round" stroke-linejoin="round"/>
</g>
<defs>
<clipPath id="clip0_2993_24332">
<rect width="23" height="23" fill="white"/>
</clipPath>
</defs>
</svg>
