<svg width="167" height="57" viewBox="0 0 167 57" fill="none" xmlns="http://www.w3.org/2000/svg">
<g id="Group 110">
<path id="Vector" d="M55.4243 29.7561C54.617 29.7561 54.0434 29.6003 53.7035 29.2887C53.3777 28.963 53.2148 28.4885 53.2148 27.8653C53.2148 27.6954 53.2219 27.4121 53.2361 27.0156C53.2644 26.6049 53.2998 26.1233 53.3423 25.571C53.3848 25.0186 53.4273 24.4167 53.4698 23.7652C53.5264 23.0995 53.5831 22.4268 53.6397 21.747C53.753 20.3165 53.8309 19.1552 53.8734 18.2629C53.9301 17.3707 53.9726 16.6696 54.0009 16.1597C54.0434 15.5224 54.0859 15.1188 54.1283 14.9488C54.1708 14.7647 54.2629 14.6726 54.4045 14.6726C54.8436 14.6726 55.2897 14.6656 55.7429 14.6514C56.2103 14.6231 56.6564 14.5948 57.0813 14.5664C57.5062 14.5381 57.9027 14.5169 58.271 14.5027C58.6534 14.4744 58.9933 14.4602 59.2907 14.4602C60.1971 14.4602 60.9761 14.5735 61.6276 14.8001C62.2791 15.0267 62.8031 15.3454 63.1997 15.7561C63.6104 16.1668 63.9078 16.6625 64.0919 17.2432C64.2902 17.8239 64.3893 18.4754 64.3893 19.1977C64.3893 20.3024 64.1698 21.2867 63.7308 22.1506C63.2917 23.0146 62.5907 23.6731 61.6276 24.1264L63.4121 26.6757C63.7378 27.1572 63.9857 27.5325 64.1557 27.8016C64.3256 28.0565 64.4106 28.2477 64.4106 28.3752C64.4106 28.4744 64.3469 28.616 64.2194 28.8001C64.1061 28.9701 63.929 29.1471 63.6883 29.3312C63.4617 29.5012 63.1784 29.6499 62.8385 29.7773C62.5128 29.9048 62.1445 29.9685 61.7338 29.9685C61.2806 29.9685 60.884 29.8198 60.5441 29.5224C60.2184 29.225 59.921 28.8355 59.6519 28.354C59.3969 27.8583 59.1703 27.2918 58.972 26.6544C58.7879 26.0171 58.6109 25.3514 58.4409 24.6575C57.9311 24.6291 57.5133 24.5796 57.1875 24.5087C57.145 25.1319 57.1025 25.7268 57.0601 26.2933C57.0176 26.8598 56.9822 27.3696 56.9538 27.8229C56.9255 28.2619 56.8972 28.6301 56.8689 28.9276C56.8405 29.2108 56.8264 29.3808 56.8264 29.4374C56.8122 29.5507 56.7839 29.6357 56.7414 29.6924C56.6989 29.7348 56.6139 29.7561 56.4865 29.7561H55.4243ZM58.8658 17.6468C58.6959 17.6468 58.5047 17.661 58.2922 17.6893C58.0798 17.7035 57.8532 17.7247 57.6124 17.7531C57.5841 18.2488 57.5487 18.8436 57.5062 19.5376C57.4779 20.2174 57.4354 20.9468 57.3787 21.7258C57.8744 21.8391 58.3064 21.8957 58.6746 21.8957C59.1137 21.8957 59.4677 21.8107 59.7368 21.6408C60.0201 21.4708 60.2396 21.2655 60.3954 21.0247C60.5512 20.7698 60.6503 20.5007 60.6928 20.2174C60.7495 19.9341 60.7778 19.6792 60.7778 19.4526C60.7778 18.8719 60.6362 18.4258 60.3529 18.1142C60.0697 17.8026 59.574 17.6468 58.8658 17.6468ZM68.5359 29.7561C67.7427 29.7561 67.1762 29.6003 66.8363 29.2887C66.4964 28.9771 66.3265 28.531 66.3265 27.9503C66.3265 27.6671 66.3477 27.1855 66.3902 26.5057C66.4327 25.8117 66.4893 25.0257 66.5602 24.1476C66.631 23.2695 66.7018 22.3418 66.7726 21.3646C66.8434 20.3874 66.9142 19.4668 66.985 18.6028C67.0558 17.7389 67.1125 16.9812 67.155 16.3297C67.1975 15.6782 67.2187 15.2321 67.2187 14.9913C67.2187 14.7789 67.332 14.6726 67.5586 14.6726H75.0366C75.1216 14.6726 75.1995 14.6939 75.2703 14.7364C75.3411 14.7789 75.3765 14.8568 75.3765 14.9701L75.2916 16.2235C75.2632 16.6484 75.1428 16.9954 74.9304 17.2645C74.7321 17.5194 74.3143 17.6468 73.677 17.6468H70.7453L70.5328 20.6423H73.5495C73.6345 20.6423 73.7124 20.6635 73.7832 20.706C73.854 20.7485 73.8894 20.8264 73.8894 20.9397L73.8045 22.1931C73.7761 22.618 73.6557 22.965 73.4433 23.2341C73.245 23.489 72.8272 23.6165 72.1899 23.6165H70.3416L70.1079 26.7819H74.7817C74.8667 26.7819 74.9446 26.8102 75.0154 26.8669C75.0862 26.9094 75.1216 26.9802 75.1216 27.0793L75.0366 28.3327C75.0083 28.7576 74.8879 29.1046 74.6755 29.3737C74.4772 29.6286 74.0594 29.7561 73.4221 29.7561H68.5359ZM82.408 26.5907C82.7055 25.5993 82.9604 24.7283 83.1728 23.9776C83.3853 23.227 83.5977 22.4551 83.8102 21.662C84.0226 20.8689 84.2492 19.9766 84.49 18.9852C84.7307 17.9938 85.0352 16.7617 85.4035 15.2887C85.4743 15.0196 85.5522 14.8497 85.6372 14.7789C85.7363 14.6939 85.9487 14.6514 86.2745 14.6514C86.4161 14.6514 86.6357 14.6656 86.9331 14.6939C87.2447 14.7081 87.5562 14.7718 87.8678 14.8851C88.1794 14.9842 88.4556 15.14 88.6963 15.3525C88.9371 15.5507 89.0575 15.8411 89.0575 16.2235C89.0575 16.5634 88.9584 17.0874 88.7601 17.7956C88.576 18.4895 88.3352 19.2827 88.0378 20.1749C87.7404 21.0672 87.4075 22.0019 87.0393 22.9792C86.6852 23.9422 86.3311 24.8557 85.9771 25.7197C85.623 26.5836 85.2973 27.3413 84.9998 27.9928C84.7166 28.6443 84.5041 29.0975 84.3625 29.3524C84.2067 29.6215 83.9305 29.7561 83.534 29.7561H81.3033C80.9493 29.7561 80.6518 29.6924 80.4111 29.5649C80.1845 29.4233 79.9933 29.2391 79.8375 29.0125C79.6817 28.7859 79.5542 28.531 79.4551 28.2477C79.3559 27.9503 79.271 27.6529 79.2002 27.3555C78.7186 25.3444 78.3008 23.6023 77.9467 22.1294C77.6068 20.6423 77.3236 19.403 77.097 18.4116C76.8704 17.4061 76.7004 16.6342 76.5871 16.096C76.4738 15.5578 76.4171 15.225 76.4171 15.0975C76.4171 14.9417 76.5304 14.8284 76.757 14.7576C76.9837 14.6726 77.3661 14.6302 77.9042 14.6302C78.4708 14.6302 78.9311 14.6868 79.2851 14.8001C79.6534 14.9134 79.9437 15.0763 80.1561 15.2887C80.3827 15.487 80.5456 15.7278 80.6448 16.011C80.7581 16.2801 80.836 16.5776 80.8784 16.9033C80.9209 17.1441 80.9634 17.4344 81.0059 17.7743C81.0484 18.1001 81.1192 18.6028 81.2184 19.2827C81.3317 19.9625 81.4804 20.8831 81.6645 22.0444C81.8486 23.1916 82.0965 24.707 82.408 26.5907ZM92.4152 29.7561C91.622 29.7561 91.0555 29.6003 90.7156 29.2887C90.3757 28.9771 90.2057 28.531 90.2057 27.9503C90.2057 27.6671 90.227 27.1855 90.2695 26.5057C90.312 25.8117 90.3686 25.0257 90.4394 24.1476C90.5103 23.2695 90.5811 22.3418 90.6519 21.3646C90.7227 20.3874 90.7935 19.4668 90.8643 18.6028C90.9351 17.7389 90.9918 16.9812 91.0343 16.3297C91.0768 15.6782 91.098 15.2321 91.098 14.9913C91.098 14.7789 91.2113 14.6726 91.4379 14.6726H92.6063C93.4703 14.6726 94.051 14.8568 94.3484 15.225C94.6458 15.5932 94.7945 16.1385 94.7945 16.8608C94.7945 16.9316 94.7803 17.1582 94.752 17.5406C94.7379 17.923 94.7095 18.4046 94.667 18.9852C94.6246 19.5659 94.575 20.2174 94.5183 20.9397C94.4759 21.6479 94.4263 22.3772 94.3696 23.1279C94.3271 23.8785 94.2776 24.615 94.2209 25.3373C94.1784 26.0454 94.1359 26.6898 94.0935 27.2705C94.051 27.8512 94.0156 28.3398 93.9872 28.7364C93.9589 29.1188 93.9377 29.3525 93.9235 29.4374C93.9093 29.5507 93.881 29.6357 93.8385 29.6924C93.796 29.7348 93.7111 29.7561 93.5836 29.7561H92.4152ZM99.0954 29.7561C98.3023 29.7561 97.7358 29.6003 97.3959 29.2887C97.056 28.9771 96.886 28.531 96.886 27.9503C96.886 27.6671 96.9073 27.1855 96.9497 26.5057C96.9922 25.8117 97.0489 25.0257 97.1197 24.1476C97.1905 23.2695 97.2613 22.3418 97.3321 21.3646C97.403 20.3874 97.4738 19.4668 97.5446 18.6028C97.6154 17.7389 97.6721 16.9812 97.7145 16.3297C97.757 15.6782 97.7783 15.2321 97.7783 14.9913C97.7783 14.7789 97.8916 14.6726 98.1182 14.6726H105.596C105.681 14.6726 105.759 14.6939 105.83 14.7364C105.901 14.7789 105.936 14.8568 105.936 14.9701L105.851 16.2235C105.823 16.6484 105.702 16.9954 105.49 17.2645C105.292 17.5194 104.874 17.6468 104.237 17.6468H101.305L101.092 20.6423H104.109C104.194 20.6423 104.272 20.6635 104.343 20.706C104.414 20.7485 104.449 20.8264 104.449 20.9397L104.364 22.1931C104.336 22.618 104.215 22.965 104.003 23.2341C103.805 23.489 103.387 23.6165 102.749 23.6165H100.901L100.667 26.7819H105.341C105.426 26.7819 105.504 26.8102 105.575 26.8669C105.646 26.9094 105.681 26.9802 105.681 27.0793L105.596 28.3327C105.568 28.7576 105.447 29.1046 105.235 29.3737C105.037 29.6286 104.619 29.7561 103.982 29.7561H99.0954ZM120.636 26.5907C120.778 25.8401 120.906 25.1886 121.019 24.6362C121.132 24.0697 121.231 23.5457 121.316 23.0641C121.401 22.5826 121.479 22.1081 121.55 21.6408C121.635 21.1592 121.72 20.6281 121.805 20.0475C121.904 19.4526 122.01 18.7799 122.124 18.0292C122.251 17.2644 122.4 16.3509 122.57 15.2887C122.612 15.0196 122.683 14.8497 122.782 14.7789C122.881 14.6939 123.129 14.6514 123.526 14.6514C123.681 14.6514 123.915 14.6656 124.227 14.6939C124.538 14.7081 124.85 14.7718 125.161 14.8851C125.473 14.9842 125.742 15.1471 125.969 15.3737C126.21 15.5862 126.33 15.8907 126.33 16.2872C126.33 16.5138 126.287 16.8679 126.202 17.3494C126.117 17.8168 125.997 18.3621 125.841 18.9852C125.7 19.5942 125.53 20.2599 125.331 20.9822C125.147 21.7045 124.956 22.4339 124.758 23.1704C124.56 23.9068 124.354 24.6221 124.142 25.316C123.943 26.01 123.752 26.6403 123.568 27.2068C123.398 27.7591 123.242 28.2265 123.101 28.6089C122.959 28.9913 122.86 29.2391 122.803 29.3524C122.718 29.5082 122.598 29.6145 122.442 29.6711C122.286 29.7278 122.131 29.7561 121.975 29.7561H119.957C119.588 29.7561 119.277 29.6853 119.022 29.5436C118.781 29.402 118.576 29.2179 118.406 28.9913C118.25 28.7647 118.123 28.5098 118.023 28.2265C117.938 27.9432 117.882 27.6529 117.853 27.3555L116.791 17.8168C116.706 18.44 116.607 19.141 116.494 19.92C116.395 20.6989 116.281 21.4921 116.154 22.2993C116.041 23.1066 115.927 23.8997 115.814 24.6787C115.701 25.4577 115.587 26.1729 115.474 26.8244C115.361 27.4617 115.255 28.007 115.155 28.4602C115.056 28.9134 114.971 29.2108 114.9 29.3524C114.83 29.5082 114.716 29.6145 114.561 29.6711C114.405 29.7278 114.242 29.7561 114.072 29.7561H112.054C111.7 29.7561 111.402 29.6924 111.161 29.5649C110.935 29.4233 110.744 29.2391 110.588 29.0125C110.432 28.7859 110.305 28.531 110.205 28.2477C110.106 27.9503 110.021 27.6529 109.951 27.3555C109.37 25.0469 108.895 23.1491 108.527 21.662C108.173 20.1749 107.89 18.9852 107.677 18.093C107.465 17.1866 107.316 16.528 107.231 16.1173C107.16 15.6924 107.125 15.3879 107.125 15.2038C107.125 14.963 107.196 14.8072 107.337 14.7364C107.493 14.6656 107.812 14.6302 108.293 14.6302C108.888 14.6302 109.384 14.6726 109.781 14.7576C110.191 14.8426 110.524 14.9771 110.779 15.1613C111.034 15.3312 111.225 15.5649 111.353 15.8623C111.494 16.1456 111.586 16.4926 111.629 16.9033C111.629 16.9599 111.636 17.0449 111.65 17.1582C111.664 17.2574 111.678 17.4273 111.693 17.6681C111.721 17.9089 111.756 18.2417 111.799 18.6666C111.855 19.0773 111.919 19.6296 111.99 20.3236C112.075 21.0176 112.174 21.8815 112.287 22.9154C112.415 23.9352 112.564 25.1602 112.734 26.5907C112.889 25.7268 113.01 25.0328 113.095 24.5087C113.194 23.9706 113.279 23.5032 113.35 23.1066C113.42 22.6959 113.484 22.3064 113.541 21.9382C113.597 21.5558 113.661 21.0884 113.732 20.5361C113.817 19.9696 113.909 19.2614 114.008 18.4116C114.122 17.5619 114.263 16.4572 114.433 15.0975C114.447 14.9984 114.504 14.9205 114.603 14.8638C114.716 14.8072 114.851 14.7647 115.007 14.7364C115.162 14.7081 115.332 14.6939 115.517 14.6939C115.715 14.6797 115.899 14.6726 116.069 14.6726C116.635 14.6726 117.117 14.7081 117.514 14.7789C117.91 14.8355 118.236 14.9417 118.491 15.0975C118.76 15.2533 118.972 15.4658 119.128 15.7349C119.284 15.9898 119.411 16.3085 119.51 16.6909C119.553 16.875 119.603 17.1299 119.659 17.4556C119.716 17.7672 119.78 18.27 119.85 18.964C119.935 19.658 120.034 20.614 120.148 21.832C120.275 23.0358 120.438 24.6221 120.636 26.5907Z" fill="black"/>
<path id="Vector_2" d="M66.6837 41.0933C66.5704 41.4332 66.4217 41.8793 66.2376 42.4316C66.0676 42.9698 65.8764 43.5647 65.664 44.2162C65.4516 44.8677 65.232 45.5616 65.0054 46.2981C64.7788 47.0204 64.5451 47.7286 64.3044 48.4225C64.0778 49.1165 63.8512 49.7822 63.6245 50.4195C63.3979 51.0427 63.1926 51.5879 63.0085 52.0553C62.9518 52.1686 62.8314 52.2607 62.6473 52.3315C62.4774 52.3881 62.2012 52.4165 61.8188 52.4165C61.578 52.4165 61.3302 52.4023 61.0752 52.374C60.8203 52.3457 60.5795 52.289 60.3529 52.204C60.1405 52.119 59.9493 52.0057 59.7793 51.8641C59.6235 51.7225 59.5032 51.5454 59.4182 51.333C59.2057 50.6107 59.0004 49.8105 58.8021 48.9324C58.618 48.0401 58.4339 47.1337 58.2497 46.2131C58.0656 45.2925 57.8815 44.3932 57.6974 43.5151C57.5274 42.6228 57.3504 41.8156 57.1663 41.0933C57.1663 41.2915 57.1592 41.6314 57.145 42.113C57.1309 42.5945 57.1167 43.154 57.1025 43.7913C57.0884 44.4286 57.0671 45.1155 57.0388 45.852C57.0247 46.5884 57.0105 47.3108 56.9963 48.0189C56.9822 48.7129 56.968 49.3644 56.9538 49.9734C56.9397 50.5682 56.9326 51.0568 56.9326 51.4392C56.9326 51.8641 56.9043 52.1332 56.8476 52.2465C56.8051 52.3598 56.7202 52.4165 56.5927 52.4165H55.4243C54.617 52.4165 54.0434 52.2607 53.7035 51.9491C53.3777 51.6233 53.2148 51.1489 53.2148 50.5257C53.2148 50.3558 53.2219 50.0725 53.2361 49.6759C53.2644 49.2652 53.2998 48.7837 53.3423 48.2313C53.3848 47.679 53.4273 47.0771 53.4698 46.4256C53.5264 45.7599 53.5831 45.0872 53.6397 44.4074C53.7105 43.4868 53.7672 42.722 53.8097 42.113C53.8663 41.4898 53.9088 40.9729 53.9372 40.5622C53.9655 40.1514 53.9867 39.8186 54.0009 39.5637C54.0292 39.3087 54.0434 39.0821 54.0434 38.8838C54.0575 38.6856 54.0646 38.5015 54.0646 38.3315C54.0788 38.1474 54.0859 37.9208 54.0859 37.6517C54.0859 37.5384 54.1284 37.4605 54.2133 37.418C54.2983 37.3613 54.3762 37.333 54.447 37.333H57.4212C57.9736 37.333 58.4268 37.4251 58.7808 37.6092C59.1349 37.7791 59.4253 38.0482 59.6519 38.4165C59.8785 38.7847 60.0626 39.2662 60.2042 39.8611C60.3458 40.4418 60.4733 41.1357 60.5866 41.943C60.7141 42.7503 60.8486 43.6851 60.9903 44.7473C61.146 45.7953 61.3443 46.9779 61.5851 48.2951C61.8117 47.417 62.0029 46.6876 62.1587 46.1069C62.3145 45.5262 62.4419 45.0447 62.5411 44.6623C62.6544 44.2657 62.7464 43.94 62.8173 43.6851C62.8881 43.4301 62.9518 43.1964 63.0085 42.984C63.0651 42.7574 63.1288 42.5166 63.1997 42.2617C63.2705 42.0068 63.3555 41.6881 63.4546 41.3057C63.5537 40.9233 63.6741 40.4488 63.8157 39.8823C63.9715 39.3017 64.1627 38.5723 64.3893 37.6942C64.4177 37.6092 64.4672 37.5313 64.538 37.4605C64.6089 37.3755 64.7363 37.333 64.9204 37.333H68.2346C68.6878 37.333 69.0489 37.3826 69.318 37.4817C69.6013 37.5667 69.8208 37.6942 69.9766 37.8641C70.1324 38.0341 70.2386 38.2465 70.2952 38.5015C70.3519 38.7422 70.3802 39.0255 70.3802 39.3512C70.3802 39.677 70.359 40.2081 70.3165 40.9445C70.2882 41.6669 70.2386 42.4883 70.1678 43.4089C70.1111 44.3153 70.0474 45.2571 69.9766 46.2344C69.9199 47.2116 69.8562 48.118 69.7854 48.9536C69.7287 49.7893 69.6792 50.4974 69.6367 51.0781C69.5942 51.6588 69.5659 51.9987 69.5517 52.0978C69.5375 52.2111 69.5092 52.2961 69.4667 52.3527C69.4242 52.3952 69.3393 52.4165 69.2118 52.4165H68.0434C67.2361 52.4165 66.6625 52.2607 66.3226 51.9491C65.9968 51.6233 65.834 51.2055 65.834 50.6957C65.834 50.5399 65.8481 50.2566 65.8764 49.8459C65.9189 49.4352 65.9685 48.9536 66.0252 48.4013C66.0818 47.8489 66.1455 47.247 66.2163 46.5955C66.2872 45.9299 66.3509 45.2713 66.4076 44.6198C66.4642 43.9683 66.5138 43.3381 66.5563 42.7291C66.6129 42.1059 66.6554 41.5606 66.6837 41.0933ZM77.7138 52.4165C76.864 52.4165 76.2833 52.2536 75.9717 51.9278C75.6601 51.5879 75.5044 51.071 75.5044 50.377C75.5044 50.1362 75.5185 49.7468 75.5468 49.2086C75.5752 48.6704 75.6389 47.8348 75.738 46.7017C75.6247 46.4893 75.5256 46.3052 75.4406 46.1494C75.3556 45.9936 75.2707 45.8307 75.1857 45.6608C75.1007 45.4908 75.0087 45.2925 74.9095 45.0659C74.8104 44.8393 74.6829 44.5561 74.5271 44.2162C74.2864 43.6921 74.0102 43.0831 73.6986 42.3892C73.4012 41.6952 73.1108 41.0295 72.8276 40.3922C72.5443 39.7407 72.3035 39.1671 72.1053 38.6714C71.9211 38.1757 71.8291 37.8641 71.8291 37.7367C71.8291 37.4392 72.3036 37.2905 73.2525 37.2905C73.8473 37.2905 74.3218 37.3543 74.6758 37.4817C75.0441 37.595 75.3415 37.7579 75.5681 37.9703C75.7947 38.1686 75.9646 38.4094 76.0779 38.6927C76.1912 38.9617 76.2975 39.2521 76.3966 39.5637C76.5241 39.9744 76.6161 40.2789 76.6728 40.4772C76.7294 40.6755 76.7719 40.8383 76.8003 40.9658C76.8427 41.0933 76.8852 41.2207 76.9277 41.3482C76.9702 41.4615 77.0269 41.6456 77.0977 41.9005C77.1826 42.1555 77.2959 42.5095 77.4376 42.9628C77.5792 43.416 77.7775 44.0391 78.0324 44.8323C78.4431 43.9683 78.7689 43.2673 79.0097 42.7291C79.2646 42.1909 79.4841 41.6952 79.6682 41.242C79.8524 40.7746 80.0223 40.3001 80.1781 39.8186C80.3481 39.3229 80.5605 38.6997 80.8154 37.9491C80.9004 37.68 80.9854 37.5101 81.0704 37.4392C81.1695 37.3543 81.3182 37.3118 81.5165 37.3118C81.5873 37.3118 81.7785 37.3259 82.0901 37.3543C82.4158 37.3684 82.7487 37.418 83.0886 37.503C83.4426 37.5879 83.7613 37.7225 84.0446 37.9066C84.3278 38.0907 84.4694 38.3386 84.4694 38.6502C84.4694 38.8909 84.3845 39.2308 84.2145 39.6699C84.0587 40.1089 83.8463 40.6046 83.5772 41.157C83.3223 41.6952 83.0177 42.2688 82.6637 42.8778C82.3238 43.4868 81.9697 44.0816 81.6015 44.6623C81.2332 45.243 80.865 45.7812 80.4968 46.2769C80.1427 46.7584 79.8169 47.155 79.5195 47.4665C79.5054 47.8065 79.4841 48.2101 79.4558 48.6775C79.4416 49.1448 79.4133 49.6122 79.3708 50.0796C79.3425 50.5328 79.3142 50.9506 79.2858 51.333C79.2575 51.7012 79.2363 51.9562 79.2221 52.0978C79.2079 52.2111 79.1796 52.2961 79.1371 52.3527C79.0946 52.3952 79.0097 52.4165 78.8822 52.4165H77.7138Z" fill="#E5B80B"/>
<path id="Vector_3" d="M95.2807 37.1206C96.612 37.1206 97.5964 37.4109 98.2337 37.9916C98.8852 38.5723 99.2109 39.33 99.2109 40.2648C99.2109 41.0579 98.9914 41.6669 98.5524 42.0918C98.1133 42.5025 97.4831 42.7079 96.6616 42.7079C96.4067 42.7079 96.2438 42.6866 96.173 42.6441C96.1022 42.5875 96.0668 42.4812 96.0668 42.3255C96.0668 42.1838 96.0526 41.9997 96.0243 41.7731C96.0101 41.5465 95.9606 41.327 95.8756 41.1145C95.7906 40.9021 95.656 40.7251 95.4719 40.5834C95.2878 40.4276 95.0329 40.3497 94.7071 40.3497C94.2539 40.3497 93.8503 40.4914 93.4962 40.7746C93.1421 41.0437 92.9651 41.3978 92.9651 41.8368C92.9651 42.2192 93.1067 42.5308 93.39 42.7716C93.6874 43.0124 94.0556 43.239 94.4947 43.4514C94.9337 43.6497 95.4082 43.855 95.9181 44.0675C96.4421 44.2799 96.9236 44.5632 97.3627 44.9173C97.8017 45.2572 98.1629 45.6891 98.4461 46.2132C98.7436 46.723 98.8923 47.3745 98.8923 48.1676C98.8923 48.7908 98.786 49.3786 98.5736 49.9309C98.3753 50.4691 98.0708 50.9436 97.6601 51.3543C97.2635 51.7508 96.7537 52.0624 96.1305 52.289C95.5215 52.5156 94.8063 52.6289 93.9848 52.6289C93.2767 52.6289 92.6181 52.551 92.0091 52.3952C91.4143 52.2395 90.8902 52.0483 90.437 51.8217C89.998 51.5809 89.651 51.326 89.3961 51.0569C89.1411 50.7736 89.0137 50.5187 89.0137 50.2921C89.0137 49.3573 89.0632 48.6846 89.1624 48.2739C89.2757 47.8631 89.474 47.6578 89.7572 47.6578C89.9555 47.6578 90.1609 47.7427 90.3733 47.9127C90.5999 48.0827 90.8548 48.2739 91.1381 48.4863C91.4214 48.6987 91.7471 48.8899 92.1153 49.0599C92.4977 49.2298 92.9368 49.3148 93.4325 49.3148C93.6308 49.3148 93.822 49.3007 94.0061 49.2723C94.2044 49.2298 94.3743 49.1661 94.5159 49.0811C94.6717 48.9962 94.7921 48.8829 94.8771 48.7412C94.9762 48.5996 95.0258 48.4296 95.0258 48.2314C95.0258 47.8773 94.8913 47.594 94.6222 47.3816C94.3531 47.1692 94.0132 46.978 93.6024 46.808C93.1917 46.6239 92.7456 46.4398 92.264 46.2556C91.7967 46.0574 91.3576 45.7954 90.9469 45.4696C90.5362 45.1297 90.1963 44.6977 89.9272 44.1737C89.6581 43.6497 89.5235 42.9769 89.5235 42.1555C89.5235 41.2349 89.6935 40.456 90.0334 39.8186C90.3875 39.1813 90.8336 38.6644 91.3718 38.2678C91.9241 37.8571 92.5402 37.5667 93.22 37.3968C93.914 37.2127 94.6009 37.1206 95.2807 37.1206ZM103.141 52.4165C102.348 52.4165 101.782 52.2607 101.442 51.9491C101.102 51.6375 100.932 51.1914 100.932 50.6107C100.932 50.3275 100.953 49.8459 100.996 49.1661C101.038 48.4721 101.095 47.6861 101.166 46.808C101.237 45.9299 101.307 45.0022 101.378 44.025C101.449 43.0478 101.52 42.1272 101.591 41.2632C101.661 40.3993 101.718 39.6416 101.761 38.9901C101.803 38.3386 101.824 37.8925 101.824 37.6517C101.824 37.4393 101.938 37.333 102.164 37.333H109.642C109.727 37.333 109.805 37.3543 109.876 37.3968C109.947 37.4393 109.982 37.5172 109.982 37.6305L109.897 38.8839C109.869 39.3088 109.748 39.6558 109.536 39.9249C109.338 40.1798 108.92 40.3072 108.283 40.3072H105.351L105.138 43.3027H108.155C108.24 43.3027 108.318 43.3239 108.389 43.3664C108.46 43.4089 108.495 43.4868 108.495 43.6001L108.41 44.8535C108.382 45.2784 108.261 45.6254 108.049 45.8945C107.851 46.1494 107.433 46.2769 106.795 46.2769H104.947L104.714 49.4423H109.387C109.472 49.4423 109.55 49.4706 109.621 49.5273C109.692 49.5698 109.727 49.6406 109.727 49.7397L109.642 50.9931C109.614 51.418 109.494 51.765 109.281 52.0341C109.083 52.289 108.665 52.4165 108.028 52.4165H103.141ZM113.784 52.4165C112.977 52.4165 112.403 52.2607 112.063 51.9491C111.738 51.6234 111.575 51.1489 111.575 50.5258C111.575 50.3558 111.582 50.0725 111.596 49.676C111.624 49.2653 111.66 48.7837 111.702 48.2314C111.745 47.679 111.787 47.0771 111.83 46.4256C111.886 45.7599 111.943 45.0872 112 44.4074C112.113 42.9769 112.191 41.8156 112.233 40.9233C112.29 40.0311 112.332 39.33 112.361 38.8201C112.403 38.1828 112.446 37.7792 112.488 37.6092C112.531 37.4251 112.623 37.333 112.764 37.333C113.203 37.333 113.65 37.326 114.103 37.3118C114.57 37.2835 115.016 37.2552 115.441 37.2268C115.866 37.1985 116.263 37.1773 116.631 37.1631C117.013 37.1348 117.353 37.1206 117.651 37.1206C118.557 37.1206 119.336 37.2339 119.987 37.4605C120.639 37.6871 121.163 38.0058 121.56 38.4165C121.97 38.8272 122.268 39.3229 122.452 39.9036C122.65 40.4843 122.749 41.1358 122.749 41.8581C122.749 42.9628 122.53 43.9471 122.091 44.811C121.652 45.675 120.951 46.3335 119.987 46.7868L121.772 49.3361C122.098 49.8176 122.346 50.1929 122.516 50.462C122.686 50.7169 122.77 50.9081 122.77 51.0356C122.77 51.1348 122.707 51.2764 122.579 51.4605C122.466 51.6305 122.289 51.8075 122.048 51.9916C121.822 52.1616 121.538 52.3103 121.198 52.4377C120.873 52.5652 120.504 52.6289 120.094 52.6289C119.64 52.6289 119.244 52.4802 118.904 52.1828C118.578 51.8854 118.281 51.4959 118.012 51.0144C117.757 50.5187 117.53 49.9522 117.332 49.3148C117.148 48.6775 116.971 48.0118 116.801 47.3179C116.291 47.2895 115.873 47.24 115.547 47.1691C115.505 47.7923 115.462 48.3872 115.42 48.9537C115.377 49.5202 115.342 50.03 115.314 50.4833C115.285 50.9223 115.257 51.2905 115.229 51.588C115.2 51.8712 115.186 52.0412 115.186 52.0978C115.172 52.2111 115.144 52.2961 115.101 52.3528C115.059 52.3952 114.974 52.4165 114.846 52.4165H113.784ZM117.226 40.3072C117.056 40.3072 116.865 40.3214 116.652 40.3497C116.44 40.3639 116.213 40.3851 115.972 40.4135C115.944 40.9092 115.909 41.504 115.866 42.198C115.838 42.8778 115.795 43.6072 115.739 44.3862C116.234 44.4995 116.666 44.5561 117.035 44.5561C117.474 44.5561 117.828 44.4711 118.097 44.3012C118.38 44.1312 118.6 43.9259 118.755 43.6851C118.911 43.4302 119.01 43.1611 119.053 42.8778C119.109 42.5945 119.138 42.3396 119.138 42.113C119.138 41.5323 118.996 41.0862 118.713 40.7746C118.43 40.463 117.934 40.3072 117.226 40.3072ZM129.959 49.2511C130.257 48.2597 130.512 47.3887 130.724 46.638C130.936 45.8874 131.149 45.1155 131.361 44.3224C131.574 43.5293 131.8 42.637 132.041 41.6456C132.282 40.6542 132.586 39.4221 132.955 37.9491C133.025 37.68 133.103 37.5101 133.188 37.4393C133.287 37.3543 133.5 37.3118 133.826 37.3118C133.967 37.3118 134.187 37.326 134.484 37.3543C134.796 37.3685 135.107 37.4322 135.419 37.5455C135.731 37.6446 136.007 37.8004 136.248 38.0129C136.488 38.2111 136.609 38.5015 136.609 38.8839C136.609 39.2238 136.51 39.7478 136.311 40.456C136.127 41.1499 135.886 41.9431 135.589 42.8353C135.292 43.7276 134.959 44.6623 134.59 45.6396C134.236 46.6026 133.882 47.5161 133.528 48.3801C133.174 49.244 132.848 50.0017 132.551 50.6532C132.268 51.3047 132.055 51.7579 131.914 52.0128C131.758 52.2819 131.482 52.4165 131.085 52.4165H128.855C128.5 52.4165 128.203 52.3528 127.962 52.2253C127.736 52.0837 127.544 51.8995 127.389 51.6729C127.233 51.4463 127.105 51.1914 127.006 50.9081C126.907 50.6107 126.822 50.3133 126.751 50.0159C126.27 48.0048 125.852 46.2627 125.498 44.7898C125.158 43.3027 124.875 42.0634 124.648 41.072C124.422 40.0665 124.252 39.2946 124.138 38.7564C124.025 38.2182 123.968 37.8854 123.968 37.7579C123.968 37.6021 124.082 37.4888 124.308 37.418C124.535 37.333 124.917 37.2906 125.455 37.2906C126.022 37.2906 126.482 37.3472 126.836 37.4605C127.205 37.5738 127.495 37.7367 127.707 37.9491C127.934 38.1474 128.097 38.3882 128.196 38.6714C128.309 38.9405 128.387 39.238 128.43 39.5637C128.472 39.8045 128.515 40.0948 128.557 40.4347C128.6 40.7605 128.67 41.2632 128.77 41.9431C128.883 42.6229 129.032 43.5435 129.216 44.7048C129.4 45.852 129.648 47.3674 129.959 49.2511ZM139.966 52.4165C139.173 52.4165 138.607 52.2607 138.267 51.9491C137.927 51.6375 137.757 51.1914 137.757 50.6107C137.757 50.3275 137.778 49.8459 137.821 49.1661C137.863 48.4721 137.92 47.6861 137.991 46.808C138.061 45.9299 138.132 45.0022 138.203 44.025C138.274 43.0478 138.345 42.1272 138.415 41.2632C138.486 40.3993 138.543 39.6416 138.585 38.9901C138.628 38.3386 138.649 37.8925 138.649 37.6517C138.649 37.4393 138.762 37.333 138.989 37.333H140.158C141.021 37.333 141.602 37.5172 141.9 37.8854C142.197 38.2536 142.346 38.7989 142.346 39.5212C142.346 39.592 142.332 39.8186 142.303 40.201C142.289 40.5834 142.261 41.065 142.218 41.6456C142.176 42.2263 142.126 42.8778 142.07 43.6001C142.027 44.3083 141.977 45.0376 141.921 45.7883C141.878 46.5389 141.829 47.2754 141.772 47.9977C141.73 48.7058 141.687 49.3502 141.645 49.9309C141.602 50.5116 141.567 51.0002 141.538 51.3968C141.51 51.7792 141.489 52.0129 141.475 52.0978C141.46 52.2111 141.432 52.2961 141.39 52.3528C141.347 52.3952 141.262 52.4165 141.135 52.4165H139.966ZM150.81 49.3148C151.391 49.3148 151.88 49.2298 152.276 49.0599C152.687 48.8899 153.034 48.6987 153.317 48.4863C153.601 48.2739 153.848 48.0827 154.061 47.9127C154.287 47.7427 154.514 47.6578 154.741 47.6578C155.024 47.6578 155.166 47.8702 155.166 48.2951C155.166 48.5217 155.137 48.7979 155.081 49.1236C155.024 49.4352 154.946 49.7893 154.847 50.1858C154.79 50.4266 154.649 50.6886 154.422 50.9719C154.21 51.2551 153.912 51.5242 153.53 51.7792C153.147 52.0199 152.673 52.2253 152.106 52.3952C151.554 52.551 150.917 52.6289 150.194 52.6289C149.472 52.6289 148.75 52.5227 148.027 52.3103C147.305 52.0978 146.661 51.7367 146.094 51.2268C145.528 50.7169 145.067 50.0301 144.713 49.1661C144.359 48.3022 144.182 47.2187 144.182 45.9157C144.182 45.4484 144.211 44.9102 144.267 44.3012C144.338 43.678 144.466 43.0407 144.65 42.3892C144.834 41.7377 145.089 41.1004 145.414 40.4772C145.754 39.8399 146.186 39.2734 146.71 38.7777C147.234 38.282 147.872 37.8854 148.622 37.588C149.387 37.2764 150.294 37.1206 151.342 37.1206C152.177 37.1206 152.899 37.2197 153.508 37.418C154.132 37.6163 154.642 37.8925 155.038 38.2466C155.449 38.5865 155.746 38.9901 155.93 39.4575C156.129 39.9248 156.228 40.4206 156.228 40.9446C156.228 41.851 155.959 42.5167 155.42 42.9415C154.896 43.3523 154.146 43.5576 153.169 43.5576C152.857 43.5576 152.659 43.5364 152.574 43.4939C152.503 43.4372 152.468 43.331 152.468 43.1752C152.453 42.6937 152.439 42.2759 152.425 41.9218C152.411 41.5677 152.361 41.2774 152.276 41.0508C152.191 40.81 152.057 40.6401 151.873 40.5409C151.703 40.4276 151.462 40.371 151.15 40.371C150.697 40.371 150.308 40.4701 149.982 40.6684C149.67 40.8525 149.401 41.1004 149.175 41.4119C148.962 41.7094 148.785 42.0493 148.644 42.4317C148.516 42.8141 148.41 43.2036 148.325 43.6001C148.254 43.9967 148.205 44.3791 148.176 44.7473C148.162 45.1155 148.155 45.4342 148.155 45.7033C148.155 47.0063 148.367 47.9339 148.792 48.4863C149.231 49.0386 149.904 49.3148 150.81 49.3148ZM159.758 52.4165C158.965 52.4165 158.399 52.2607 158.059 51.9491C157.719 51.6375 157.549 51.1914 157.549 50.6107C157.549 50.3275 157.57 49.8459 157.613 49.1661C157.655 48.4721 157.712 47.6861 157.782 46.808C157.853 45.9299 157.924 45.0022 157.995 44.025C158.066 43.0478 158.137 42.1272 158.207 41.2632C158.278 40.3993 158.335 39.6416 158.377 38.9901C158.42 38.3386 158.441 37.8925 158.441 37.6517C158.441 37.4393 158.554 37.333 158.781 37.333H166.259C166.344 37.333 166.422 37.3543 166.493 37.3968C166.563 37.4393 166.599 37.5172 166.599 37.6305L166.514 38.8839C166.486 39.3088 166.365 39.6558 166.153 39.9249C165.954 40.1798 165.537 40.3072 164.899 40.3072H161.968L161.755 43.3027H164.772C164.857 43.3027 164.935 43.3239 165.006 43.3664C165.076 43.4089 165.112 43.4868 165.112 43.6001L165.027 44.8535C164.998 45.2784 164.878 45.6254 164.666 45.8945C164.467 46.1494 164.05 46.2769 163.412 46.2769H161.564L161.33 49.4423H166.004C166.089 49.4423 166.167 49.4706 166.238 49.5273C166.309 49.5698 166.344 49.6406 166.344 49.7397L166.259 50.9931C166.231 51.418 166.11 51.765 165.898 52.0341C165.7 52.289 165.282 52.4165 164.644 52.4165H159.758Z" fill="black"/>
<path id="Vector_4" d="M10.4519 26.4546H29.3565C31.5026 26.4546 33.2421 28.1941 33.2421 30.3402V35.2419C33.2421 42.608 27.2707 48.5798 19.9042 48.5798C12.5381 48.5798 6.56641 42.608 6.56641 35.2419V30.3402C6.56641 28.1941 8.306 26.4546 10.4519 26.4546Z" stroke="black" stroke-width="3"/>
<path id="Vector_5" d="M20.0128 40.3448C19.4332 41.7614 17.2075 41.9848 15.8121 41.9576C14.4514 41.931 12.7841 41.3755 11.8639 40.4262C11.5126 40.064 11.2644 39.6132 11.2363 39.1264C12.2452 40.1231 13.9639 39.8572 14.9443 39.0064C15.3851 38.6236 15.7427 38.1708 16.1552 37.7632C16.5677 37.3553 17.0553 36.9828 17.6437 36.8295C18.5056 36.6047 19.5086 36.9304 20.0128 37.5986C20.517 36.9304 21.5201 36.6047 22.3819 36.8295C22.9704 36.9832 23.458 37.3553 23.8701 37.7632C24.2826 38.1708 24.6402 38.6236 25.0814 39.0064C26.0614 39.8572 27.7805 40.1231 28.7892 39.1264C28.7612 39.6132 28.5127 40.064 28.1614 40.4262C27.2412 41.3755 25.5739 41.931 24.2135 41.9576C22.8182 41.9848 20.5925 41.7614 20.0128 40.3448Z" fill="black"/>
<path id="Vector_6" d="M21.7098 26.8681C21.7303 26.8713 21.7508 26.8745 21.7714 26.878L21.5508 26.8423C21.6096 26.8515 21.6651 26.8607 21.7098 26.8681Z" fill="#B3B2B0"/>
<path id="Vector_7" d="M8.28806 19.4684L35.7134 23.9343L35.7081 23.9637C36.816 18.4643 38.2064 13.0275 39.8716 7.69833C40.22 6.58262 39.7877 5.37233 38.8091 4.7333C34.7723 2.0977 16.1088 -0.941542 11.4446 0.277208C10.3137 0.57268 9.5197 1.58331 9.49633 2.75196C9.38437 8.33071 8.97875 13.9244 8.28516 19.4879L8.28703 19.4748L8.28806 19.4684Z" fill="black"/>
<path id="Vector_8" d="M20.6394 26.6938C20.684 26.7012 20.7396 26.71 20.7984 26.7196L20.5781 26.6838C20.5983 26.687 20.6188 26.6906 20.6394 26.6938Z" fill="#B3B2B0"/>
<path id="Vector_9" d="M11.3595 24.7606C14.3805 25.604 17.5109 26.1829 20.5778 26.6832L20.7981 26.7193C20.974 26.7476 21.1748 26.7802 21.1748 26.7802C21.1748 26.7802 21.3756 26.8131 21.5512 26.8418L21.7714 26.8776C24.8387 27.3761 27.991 27.8205 31.1235 27.9791C32.3121 28.0393 33.6363 28.1391 34.945 28.0867L35.7091 23.9636L35.7144 23.9342L8.289 19.4683L8.28797 19.4746L8.2861 19.4877L7.70117 23.6502C8.92573 24.1151 10.2133 24.4405 11.3595 24.7606Z" fill="#E5B80B"/>
<path id="Vector_10" d="M41.8771 24.595C40.8843 24.7263 40.5054 25.9613 39.8182 26.537C38.4762 27.6616 36.725 28.0153 34.9454 28.0868C33.6368 28.1392 32.3122 28.0394 31.1239 27.9792C27.9911 27.8206 24.8388 27.3765 21.7715 26.878C21.7513 26.8745 21.7308 26.8713 21.7103 26.8681C21.6656 26.8607 21.6101 26.8515 21.5513 26.8419C21.3757 26.8132 21.1749 26.7803 21.1749 26.7803C21.1749 26.7803 20.9741 26.7477 20.7985 26.7194C20.7401 26.7098 20.6842 26.701 20.6395 26.6935C20.619 26.6904 20.5985 26.6868 20.5783 26.6836C17.5113 26.183 14.3806 25.6041 11.3598 24.7607C10.2135 24.4406 8.92593 24.1152 7.70141 23.6503C6.03643 23.0179 4.48822 22.1267 3.57234 20.6347C3.10337 19.8706 3.13563 18.5793 2.23575 18.1395C0.880865 17.4774 0.129418 19.3462 0.0242238 20.2494C-0.19091 22.0966 1.06431 24.0398 2.30568 25.2928C3.89037 26.8925 5.98619 27.9852 8.03573 28.8608C11.7662 30.4545 15.7849 31.3514 19.7753 32.0014C19.9487 32.0294 20.2972 32.0843 20.2972 32.0843C20.2972 32.0843 20.6721 32.1473 20.846 32.1756C24.836 32.8254 28.9319 33.2495 32.975 32.922C35.1965 32.7418 37.5309 32.3704 39.5409 31.3563C41.1158 30.5618 42.9227 29.1175 43.3047 27.2972C43.492 26.4075 43.3723 24.3967 41.8771 24.595Z" fill="black"/>
<path id="Vector_11" d="M26.5104 52.0665L26.491 51.841C26.4194 51.0213 25.6614 50.4392 24.8512 50.5808C23.7557 50.7724 20.0525 52.5013 20.0525 52.5013V52.9829H19.9282V52.5013C19.9282 52.5013 16.2246 50.7724 15.1295 50.5808C14.3194 50.4392 13.5613 51.0213 13.4898 51.841L13.4703 52.0665C13.3797 53.105 13.3797 54.1499 13.4703 55.1887L13.4898 55.4139C13.5613 56.2336 14.3194 56.816 15.1295 56.6741C16.2246 56.4825 19.9282 54.7536 19.9282 54.7536V54.0472H20.0525V54.7536C20.0525 54.7536 23.7557 56.4825 24.8512 56.6741C25.6614 56.816 26.4194 56.2336 26.491 55.4139L26.5104 55.1887C26.6011 54.1499 26.6011 53.105 26.5104 52.0665Z" fill="black"/>
<path id="Vector_12" d="M26.5104 51.701L26.491 51.4758C26.4194 50.6562 25.6614 50.0737 24.8512 50.2157C23.7557 50.4072 20.0525 52.1362 20.0525 52.1362V52.6174H19.9282V52.1362C19.9282 52.1362 16.2246 50.4072 15.1295 50.2157C14.3194 50.0737 13.5613 50.6562 13.4898 51.4758L13.4703 51.701C13.3797 52.7399 13.3797 53.7847 13.4703 54.8232L13.4898 55.0488C13.5613 55.8684 14.3194 56.4505 15.1295 56.3089C16.2246 56.1174 19.9282 54.3884 19.9282 54.3884V53.6824H20.0525V54.3884C20.0525 54.3884 23.7557 56.1174 24.8512 56.3089C25.6614 56.4505 26.4194 55.8684 26.491 55.0488L26.5104 54.8232C26.6011 53.7847 26.6011 52.7399 26.5104 51.701Z" fill="black"/>
<path id="Vector_13" d="M20.0545 52.6174H19.9302V52.1362C19.9302 52.1362 19.267 51.8267 18.4194 51.4553C18.3726 51.5534 18.3457 51.6632 18.3457 51.7797V54.745C18.3457 54.8615 18.3726 54.9709 18.4194 55.0693C19.267 54.6979 19.9302 54.3884 19.9302 54.3884V53.6824H20.0545V54.3884C20.0545 54.3884 20.7176 54.6979 21.5649 55.0693C21.6117 54.9709 21.6386 54.8615 21.6386 54.745V51.7797C21.6386 51.6632 21.6117 51.5538 21.5649 51.4553C20.7176 51.8267 20.0545 52.1362 20.0545 52.1362V52.6174Z" fill="black"/>
<path id="Vector_14" d="M20.7266 51.4126H19.2558C18.9106 51.4126 18.6309 51.709 18.6309 52.0744V54.6693C18.6309 55.0347 18.9106 55.3311 19.2558 55.3311H20.7266C21.0715 55.3311 21.3515 55.0347 21.3515 54.6693V52.0744C21.3515 51.709 21.0715 51.4126 20.7266 51.4126Z" fill="black"/>
<path id="Vector_15" d="M18.4955 53.5692L16.3027 53.174L18.4955 52.8518V53.5692Z" fill="black"/>
<path id="Vector_16" d="M21.4883 53.5692L23.681 53.174L21.4883 52.8518V53.5692Z" fill="black"/>
</g>
</svg>
