<svg width="23" height="23" viewBox="0 0 23 23" fill="none" xmlns="http://www.w3.org/2000/svg">
<path d="M2.39551 11.4997C2.39551 7.20826 2.39551 5.06159 3.72855 3.72855C5.06159 2.39551 7.2073 2.39551 11.4997 2.39551C15.7911 2.39551 17.9378 2.39551 19.2708 3.72855C20.6038 5.06159 20.6038 7.2073 20.6038 11.4997C20.6038 15.7911 20.6038 17.9378 19.2708 19.2708C17.9378 20.6038 15.7921 20.6038 11.4997 20.6038C7.20826 20.6038 5.06159 20.6038 3.72855 19.2708C2.39551 17.9378 2.39551 15.7921 2.39551 11.4997Z" stroke="black" stroke-width="1.5" stroke-linecap="round" stroke-linejoin="round"/>
<path d="M16.7785 6.22852H16.7689M15.8125 11.4993C15.8125 12.6431 15.3581 13.74 14.5494 14.5487C13.7406 15.3575 12.6437 15.8118 11.5 15.8118C10.3563 15.8118 9.25935 15.3575 8.4506 14.5487C7.64185 13.74 7.1875 12.6431 7.1875 11.4993C7.1875 10.3556 7.64185 9.2587 8.4506 8.44995C9.25935 7.6412 10.3563 7.18685 11.5 7.18685C12.6437 7.18685 13.7406 7.6412 14.5494 8.44995C15.3581 9.2587 15.8125 10.3556 15.8125 11.4993Z" stroke="black" stroke-width="1.5" stroke-linecap="round" stroke-linejoin="round"/>
</svg>
