<svg width="23" height="23" viewBox="0 0 23 23" fill="none" xmlns="http://www.w3.org/2000/svg">
<path d="M11.4857 14.7663L14.5926 18.2987C15.7426 19.6068 16.3186 20.2614 16.9214 20.1013C17.5232 19.9422 17.7302 19.0816 18.1432 17.3595L20.4337 7.80685C21.071 5.15419 21.3891 3.82881 20.6819 3.17427C19.9746 2.51973 18.7489 3.00656 16.2975 3.97927L4.92591 8.4959C2.96516 9.27502 1.98479 9.6641 1.92249 10.333C1.91516 10.4012 1.91516 10.4699 1.92249 10.5381C1.98287 11.208 2.96133 11.5999 4.92016 12.3848C5.80662 12.7404 6.25033 12.9186 6.56849 13.2588C6.60427 13.2971 6.63877 13.3368 6.67199 13.3776C6.96524 13.7418 7.08983 14.221 7.33995 15.1755L7.80858 16.9647C8.05104 17.8943 8.17274 18.36 8.49187 18.4233C8.81099 18.4865 9.08795 18.1013 9.64283 17.3298L11.4857 14.7663ZM11.4857 14.7663L11.1819 14.45C10.835 14.0878 10.6615 13.9076 10.6615 13.6834C10.6615 13.4591 10.834 13.278 11.1819 12.9167L14.606 9.34785" stroke="black" stroke-width="1.5" stroke-linecap="round" stroke-linejoin="round"/>
</svg>
