<svg width="24" height="24" viewBox="0 0 24 24" fill="none" xmlns="http://www.w3.org/2000/svg">
<path d="M7 7H7.009M12.991 7H13M17.991 14.5H18M14 14.5H14.009M10 16C10 18.761 12.686 21 16 21C16.907 21 17.767 20.832 18.538 20.532C18.727 20.459 18.931 20.432 19.13 20.469L22 21L21.348 18.97C21.3046 18.822 21.292 18.6667 21.3109 18.5136C21.3298 18.3606 21.3799 18.213 21.458 18.08C21.8118 17.4437 21.9983 16.728 22 16C22 13.239 19.314 11 16 11C12.686 11 10 13.239 10 16Z" stroke="black" stroke-width="1.5" stroke-linecap="round" stroke-linejoin="round"/>
<path d="M17.873 11.249C17.9577 10.8423 18 10.426 18 10C18 6.134 14.418 3 10 3C5.582 3 2 6.134 2 10C2 11.112 2.297 12.164 2.824 13.098C2.971 13.358 3.02 13.665 2.932 13.951L2 17L5.914 16.24C6.122 16.199 6.336 16.227 6.531 16.31C7.66755 16.783 8.88907 17.0179 10.12 17" stroke="black" stroke-width="1.5" stroke-linecap="round" stroke-linejoin="round"/>
</svg>
