<svg width="23" height="23" viewBox="0 0 23 23" fill="none" xmlns="http://www.w3.org/2000/svg">
<path d="M13.4167 11.5007L10.0625 13.4173V9.58398L13.4167 11.5007Z" fill="black" stroke="black" stroke-width="1.5" stroke-linecap="round" stroke-linejoin="round"/>
<path d="M1.9165 12.179V10.822C1.9165 8.04758 1.9165 6.65991 2.7838 5.76771C3.65205 4.87454 5.01863 4.83621 7.75084 4.75858C9.04459 4.72216 10.3671 4.69629 11.4998 4.69629C12.6326 4.69629 13.9541 4.72216 15.2488 4.75858C17.981 4.83621 19.3476 4.87454 20.2149 5.76771C21.0822 6.66087 21.0832 8.04854 21.0832 10.822V12.178C21.0832 14.9533 21.0832 16.34 20.2159 17.2332C19.3476 18.1254 17.982 18.1647 15.2488 18.2414C13.9551 18.2787 12.6326 18.3046 11.4998 18.3046C10.3671 18.3046 9.04555 18.2787 7.75084 18.2414C5.01863 18.1647 3.65205 18.1264 2.7838 17.2332C1.91555 16.34 1.9165 14.9524 1.9165 12.179Z" stroke="black" stroke-width="1.5"/>
</svg>
