<svg width="122" height="122" viewBox="0 0 122 122" fill="none" xmlns="http://www.w3.org/2000/svg">
<rect width="122" height="122" rx="61" fill="#FFC500"/>
<path fill-rule="evenodd" clip-rule="evenodd" d="M42.9497 29.9351C39.4974 29.9351 36.1865 31.3061 33.7449 33.7468C31.3033 36.1874 29.931 39.4978 29.9297 42.9501V77.6701C29.9297 81.1232 31.3014 84.4349 33.7432 86.8766C36.1849 89.3183 39.4966 90.6901 42.9497 90.6901H77.6697C81.1219 90.6887 84.4323 89.3164 86.873 86.8748C89.3136 84.4332 90.6847 81.1223 90.6847 77.6701V42.9501C90.6834 39.4987 89.3117 36.189 86.8712 33.7485C84.4307 31.308 81.1211 29.9364 77.6697 29.9351H42.9497ZM81.4147 42.9701C81.4147 43.9646 81.0196 44.9184 80.3163 45.6217C79.6131 46.325 78.6592 46.7201 77.6647 46.7201C76.6701 46.7201 75.7163 46.325 75.013 45.6217C74.3098 44.9184 73.9147 43.9646 73.9147 42.9701C73.9147 41.9755 74.3098 41.0217 75.013 40.3184C75.7163 39.6151 76.6701 39.2201 77.6647 39.2201C78.6592 39.2201 79.6131 39.6151 80.3163 40.3184C81.0196 41.0217 81.4147 41.9755 81.4147 42.9701ZM60.3147 49.9101C57.5564 49.9101 54.9112 51.0058 52.9608 52.9561C51.0104 54.9065 49.9147 57.5518 49.9147 60.3101C49.9147 63.0683 51.0104 65.7136 52.9608 67.664C54.9112 69.6143 57.5564 70.7101 60.3147 70.7101C63.0729 70.7101 65.7182 69.6143 67.6686 67.664C69.619 65.7136 70.7147 63.0683 70.7147 60.3101C70.7147 57.5518 69.619 54.9065 67.6686 52.9561C65.7182 51.0058 63.0729 49.9101 60.3147 49.9101ZM44.9097 60.3101C44.9097 56.2257 46.5322 52.3087 49.4202 49.4206C52.3083 46.5326 56.2254 44.9101 60.3097 44.9101C64.394 44.9101 68.3111 46.5326 71.1991 49.4206C74.0872 52.3087 75.7097 56.2257 75.7097 60.3101C75.7097 64.3944 74.0872 68.3114 71.1991 71.1995C68.3111 74.0876 64.394 75.7101 60.3097 75.7101C56.2254 75.7101 52.3083 74.0876 49.4202 71.1995C46.5322 68.3114 44.9097 64.3944 44.9097 60.3101Z" fill="black"/>
</svg>
