<svg width="52" height="27" viewBox="0 0 52 27" fill="none" xmlns="http://www.w3.org/2000/svg">
<rect width="52" height="27" rx="4" fill="#EFF7F9"/>
<path d="M11.2962 12.875C10.6164 12.875 9.95177 12.6734 9.38648 12.2957C8.82118 11.918 8.38059 11.3811 8.12041 10.753C7.86024 10.1249 7.79216 9.43369 7.9248 8.76688C8.05744 8.10007 8.38483 7.48756 8.86557 7.00682C9.34631 6.52608 9.95882 6.19869 10.6256 6.06605C11.2924 5.93342 11.9836 6.00149 12.6117 6.26167C13.2398 6.52184 13.7767 6.96243 14.1544 7.52773C14.5321 8.09302 14.7337 8.75763 14.7337 9.4375C14.7328 10.3489 14.3703 11.2226 13.7258 11.8671C13.0814 12.5115 12.2076 12.874 11.2962 12.875ZM11.2962 7.25C10.8636 7.25 10.4407 7.3783 10.0809 7.61866C9.72121 7.85903 9.44083 8.20067 9.27526 8.60038C9.1097 9.00009 9.06638 9.43993 9.15078 9.86426C9.23519 10.2886 9.44353 10.6784 9.74945 10.9843C10.0554 11.2902 10.4452 11.4986 10.8695 11.583C11.2938 11.6674 11.7337 11.6241 12.1334 11.4585C12.5331 11.2929 12.8747 11.0125 13.1151 10.6528C13.3555 10.2931 13.4837 9.87015 13.4837 9.4375C13.4837 8.85734 13.2533 8.30094 12.843 7.89071C12.4328 7.48047 11.8764 7.25 11.2962 7.25ZM16.625 21C15.7597 21 14.9138 20.7434 14.1944 20.2627C13.4749 19.7819 12.9142 19.0987 12.583 18.2992C12.2519 17.4998 12.1653 16.6201 12.3341 15.7715C12.5029 14.9228 12.9196 14.1433 13.5314 13.5314C14.1433 12.9196 14.9228 12.5029 15.7715 12.3341C16.6201 12.1653 17.4998 12.2519 18.2992 12.583C19.0987 12.9142 19.7819 13.4749 20.2627 14.1944C20.7434 14.9138 21 15.7597 21 16.625C20.9987 17.7849 20.5373 18.8969 19.7171 19.7171C18.8969 20.5373 17.7849 20.9987 16.625 21ZM16.625 13.5C16.0069 13.5 15.4027 13.6833 14.8888 14.0267C14.3749 14.37 13.9744 14.8581 13.7379 15.4291C13.5014 16.0001 13.4395 16.6285 13.56 17.2347C13.6806 17.8408 13.9783 18.3977 14.4153 18.8347C14.8523 19.2717 15.4092 19.5694 16.0153 19.69C16.6215 19.8105 17.2499 19.7486 17.8209 19.5121C18.3919 19.2756 18.88 18.8751 19.2233 18.3612C19.5667 17.8473 19.75 17.2431 19.75 16.625C19.749 15.7965 19.4194 15.0022 18.8336 14.4164C18.2478 13.8306 17.4535 13.501 16.625 13.5ZM18.3169 17.4331L17.25 16.3663V14.75H16V16.8837L17.4331 18.3169L18.3169 17.4331ZM11.5919 14.125H9.125C8.2965 14.126 7.50222 14.4556 6.91639 15.0414C6.33055 15.6272 6.00099 16.4215 6 17.25L6 21H7.25V17.25C7.25 16.7527 7.44754 16.2758 7.79917 15.9242C8.15081 15.5725 8.62772 15.375 9.125 15.375H11.1444C11.2428 14.9419 11.3931 14.5222 11.5919 14.125Z" fill="black"/>
<g clip-path="url(#clip0_319_2390)">
<path d="M43.6698 13.333C42.9198 12.5414 41.9198 11.9997 40.8782 11.7914C40.4198 11.6664 39.9615 11.583 39.5032 11.5414C40.6698 10.1664 40.4615 8.08305 39.0865 6.91638C37.7115 5.74971 35.6282 5.95805 34.4615 7.33305C33.2948 8.70805 33.5032 10.7914 34.8782 11.958C35.1282 12.1664 35.3782 12.333 35.6282 12.4164V13.333L34.9615 12.708C34.3782 12.1247 33.4198 12.1247 32.7948 12.708C32.2115 13.2914 32.1698 14.208 32.7532 14.7914L34.6698 17.0414C34.7532 17.6247 34.9615 18.1664 35.2532 18.6664C35.4615 19.0414 35.7532 19.4164 36.0448 19.708V20.4997C36.0448 20.7497 36.2115 20.9164 36.4615 20.9164H42.1282C42.3365 20.9164 42.5448 20.708 42.5448 20.4997V19.4164C43.3365 18.458 43.7532 17.2497 43.7532 16.0414V13.6247C43.7948 13.458 43.7532 13.3747 43.6698 13.333ZM34.5032 9.41638C34.5032 8.04138 35.6282 6.95805 37.0032 6.99971C38.3782 6.99971 39.4615 8.12471 39.4198 9.49971C39.4198 10.2497 39.0865 10.9164 38.5032 11.3747V9.29138C38.4819 8.93028 38.3233 8.591 38.0599 8.34309C37.7965 8.09518 37.4482 7.95742 37.0865 7.95805C36.3365 7.91638 35.6698 8.54138 35.6698 9.29138V11.458C34.9615 11.0414 34.5448 10.2497 34.5032 9.41638ZM42.9615 15.9997C43.0032 17.083 42.6282 18.1247 41.9198 18.958C41.8365 19.0414 41.7532 19.1247 41.7532 19.2497V20.1247H36.9198V19.5414C36.9198 19.4164 36.8365 19.2914 36.7532 19.208C36.4615 18.958 36.2115 18.6664 36.0032 18.2914C35.7532 17.8747 35.5865 17.3747 35.5032 16.8747C35.5032 16.7914 35.4615 16.708 35.4198 16.6247L33.4198 14.2497C33.2948 14.1247 33.2115 13.958 33.2115 13.7497C33.2115 13.583 33.2948 13.3747 33.4198 13.2497C33.7115 12.9997 34.1282 12.9997 34.4198 13.2497L35.6282 14.458V15.708L36.4198 15.2914V9.29138C36.4615 8.99971 36.7115 8.74971 37.0448 8.79138C37.3365 8.79138 37.6282 8.99971 37.6282 9.29138V14.083L38.4615 14.2497V12.333C38.5032 12.2914 38.5448 12.2914 38.5865 12.2497C38.8782 12.2497 39.1698 12.2914 39.4615 12.333V14.458L40.1282 14.583V12.4164L40.6282 12.5414C40.8365 12.583 41.0448 12.6664 41.2532 12.7497V14.833L41.9198 14.958V13.0414C42.2948 13.208 42.6282 13.458 42.9198 13.7497L42.9615 15.9997Z" fill="black"/>
</g>
<defs>
<clipPath id="clip0_319_2390">
<rect width="15" height="15" fill="white" transform="translate(31 6)"/>
</clipPath>
</defs>
</svg>
