<svg width="23" height="23" viewBox="0 0 23 23" fill="none" xmlns="http://www.w3.org/2000/svg">
<path d="M19.2939 19.0208L13.6697 10.182L19.2193 4.07711C19.3448 3.93563 19.4095 3.75037 19.3994 3.56152C19.3892 3.37266 19.305 3.19541 19.165 3.06821C19.0251 2.94101 18.8406 2.87411 18.6516 2.882C18.4627 2.8899 18.2844 2.97196 18.1556 3.11039L12.8692 8.92508L9.23138 3.20832C9.16651 3.10622 9.07692 3.02214 8.97091 2.96387C8.8649 2.90561 8.7459 2.87504 8.62494 2.875H4.31244C4.18357 2.87494 4.05705 2.90952 3.94613 2.97514C3.83522 3.04075 3.74398 3.13498 3.68198 3.24796C3.61998 3.36094 3.5895 3.48851 3.59372 3.61731C3.59795 3.74611 3.63672 3.87141 3.70599 3.98008L9.33021 12.818L3.78056 18.9274C3.71575 18.997 3.66541 19.0788 3.63244 19.168C3.59948 19.2572 3.58455 19.3521 3.58852 19.4471C3.59249 19.5422 3.61528 19.6355 3.65557 19.7216C3.69587 19.8078 3.75286 19.8851 3.82325 19.949C3.89364 20.013 3.97602 20.0624 4.06563 20.0943C4.15523 20.1262 4.25028 20.1399 4.34525 20.1348C4.44023 20.1297 4.53324 20.1058 4.61891 20.0645C4.70458 20.0232 4.78119 19.9653 4.84431 19.8941L10.1307 14.0794L13.7685 19.7962C13.8339 19.8974 13.9237 19.9806 14.0297 20.0381C14.1357 20.0956 14.2544 20.1254 14.3749 20.125H18.6874C18.8162 20.125 18.9425 20.0903 19.0533 20.0248C19.1641 19.9592 19.2552 19.8651 19.3172 19.7523C19.3792 19.6394 19.4097 19.512 19.4056 19.3833C19.4015 19.2547 19.3629 19.1295 19.2939 19.0208ZM14.7694 18.6875L5.62146 4.3125H8.22693L17.3784 18.6875H14.7694Z" fill="black"/>
</svg>
