<svg width="52" height="27" viewBox="0 0 52 27" fill="none" xmlns="http://www.w3.org/2000/svg">
<rect width="52" height="27" rx="4" fill="#EFF7F9"/>
<path d="M9.125 9.75C10.1588 9.75 11 8.90875 11 7.875C11 6.84125 10.1588 6 9.125 6C8.09125 6 7.25 6.84125 7.25 7.875C7.25 8.90875 8.09125 9.75 9.125 9.75ZM9.125 6.625C9.81438 6.625 10.375 7.18562 10.375 7.875C10.375 8.56438 9.81438 9.125 9.125 9.125C8.43562 9.125 7.875 8.56438 7.875 7.875C7.875 7.18562 8.43562 6.625 9.125 6.625ZM9.4375 11.625C7.88688 11.625 6.625 12.8869 6.625 14.4375C6.625 14.61 6.485 14.75 6.3125 14.75C6.14 14.75 6 14.61 6 14.4375C6 12.5425 7.54188 11 9.4375 11C9.66875 11 9.9 11.0231 10.1244 11.0681C10.2937 11.1025 10.4031 11.2669 10.3687 11.4369C10.3344 11.6056 10.1669 11.7156 10.0006 11.6813C9.81688 11.6438 9.6275 11.625 9.4375 11.625ZM14.75 9.75C15.7838 9.75 16.625 8.90875 16.625 7.875C16.625 6.84125 15.7838 6 14.75 6C13.7162 6 12.875 6.84125 12.875 7.875C12.875 8.90875 13.7162 9.75 14.75 9.75ZM14.75 6.625C15.4394 6.625 16 7.18562 16 7.875C16 8.56438 15.4394 9.125 14.75 9.125C14.0606 9.125 13.5 8.56438 13.5 7.875C13.5 7.18562 14.0606 6.625 14.75 6.625ZM14.4375 11C16.3331 11 17.875 12.5425 17.875 14.4375C17.875 14.61 17.735 14.75 17.5625 14.75C17.39 14.75 17.25 14.61 17.25 14.4375C17.25 12.8869 15.9881 11.625 14.4375 11.625C14.2475 11.625 14.0581 11.6438 13.8744 11.6813C13.7075 11.7181 13.5406 11.6056 13.5063 11.4369C13.4719 11.2675 13.5819 11.1025 13.7506 11.0681C13.975 11.0231 14.2062 11 14.4375 11ZM10.0625 14.125C10.0625 15.1588 10.9037 16 11.9375 16C12.9713 16 13.8125 15.1588 13.8125 14.125C13.8125 13.0912 12.9713 12.25 11.9375 12.25C10.9037 12.25 10.0625 13.0912 10.0625 14.125ZM11.9375 12.875C12.6269 12.875 13.1875 13.4356 13.1875 14.125C13.1875 14.8144 12.6269 15.375 11.9375 15.375C11.2481 15.375 10.6875 14.8144 10.6875 14.125C10.6875 13.4356 11.2481 12.875 11.9375 12.875ZM15.375 20.6875C15.375 20.86 15.235 21 15.0625 21C14.89 21 14.75 20.86 14.75 20.6875C14.75 19.1369 13.4881 17.875 11.9375 17.875C10.3869 17.875 9.125 19.1369 9.125 20.6875C9.125 20.86 8.985 21 8.8125 21C8.64 21 8.5 20.86 8.5 20.6875C8.5 18.7925 10.0419 17.25 11.9375 17.25C13.8331 17.25 15.375 18.7925 15.375 20.6875ZM21 18.1875C21 18.36 20.86 18.5 20.6875 18.5H18.5V20.6875C18.5 20.86 18.36 21 18.1875 21C18.015 21 17.875 20.86 17.875 20.6875V18.5H15.6875C15.515 18.5 15.375 18.36 15.375 18.1875C15.375 18.015 15.515 17.875 15.6875 17.875H17.875V15.6875C17.875 15.515 18.015 15.375 18.1875 15.375C18.36 15.375 18.5 15.515 18.5 15.6875V17.875H20.6875C20.86 17.875 21 18.015 21 18.1875Z" fill="black" stroke="black" stroke-width="0.4"/>
<g clip-path="url(#clip0_319_2399)">
<path d="M43.6698 13.333C42.9198 12.5414 41.9198 11.9997 40.8782 11.7914C40.4198 11.6664 39.9615 11.583 39.5032 11.5414C40.6698 10.1664 40.4615 8.08305 39.0865 6.91638C37.7115 5.74971 35.6282 5.95805 34.4615 7.33305C33.2948 8.70805 33.5032 10.7914 34.8782 11.958C35.1282 12.1664 35.3782 12.333 35.6282 12.4164V13.333L34.9615 12.708C34.3782 12.1247 33.4198 12.1247 32.7948 12.708C32.2115 13.2914 32.1698 14.208 32.7532 14.7914L34.6698 17.0414C34.7532 17.6247 34.9615 18.1664 35.2532 18.6664C35.4615 19.0414 35.7532 19.4164 36.0448 19.708V20.4997C36.0448 20.7497 36.2115 20.9164 36.4615 20.9164H42.1282C42.3365 20.9164 42.5448 20.708 42.5448 20.4997V19.4164C43.3365 18.458 43.7532 17.2497 43.7532 16.0414V13.6247C43.7948 13.458 43.7532 13.3747 43.6698 13.333ZM34.5032 9.41638C34.5032 8.04138 35.6282 6.95805 37.0032 6.99971C38.3782 6.99971 39.4615 8.12471 39.4198 9.49971C39.4198 10.2497 39.0865 10.9164 38.5032 11.3747V9.29138C38.4819 8.93028 38.3233 8.591 38.0599 8.34309C37.7965 8.09518 37.4482 7.95742 37.0865 7.95805C36.3365 7.91638 35.6698 8.54138 35.6698 9.29138V11.458C34.9615 11.0414 34.5448 10.2497 34.5032 9.41638ZM42.9615 15.9997C43.0032 17.083 42.6282 18.1247 41.9198 18.958C41.8365 19.0414 41.7532 19.1247 41.7532 19.2497V20.1247H36.9198V19.5414C36.9198 19.4164 36.8365 19.2914 36.7532 19.208C36.4615 18.958 36.2115 18.6664 36.0032 18.2914C35.7532 17.8747 35.5865 17.3747 35.5032 16.8747C35.5032 16.7914 35.4615 16.708 35.4198 16.6247L33.4198 14.2497C33.2948 14.1247 33.2115 13.958 33.2115 13.7497C33.2115 13.583 33.2948 13.3747 33.4198 13.2497C33.7115 12.9997 34.1282 12.9997 34.4198 13.2497L35.6282 14.458V15.708L36.4198 15.2914V9.29138C36.4615 8.99971 36.7115 8.74971 37.0448 8.79138C37.3365 8.79138 37.6282 8.99971 37.6282 9.29138V14.083L38.4615 14.2497V12.333C38.5032 12.2914 38.5448 12.2914 38.5865 12.2497C38.8782 12.2497 39.1698 12.2914 39.4615 12.333V14.458L40.1282 14.583V12.4164L40.6282 12.5414C40.8365 12.583 41.0448 12.6664 41.2532 12.7497V14.833L41.9198 14.958V13.0414C42.2948 13.208 42.6282 13.458 42.9198 13.7497L42.9615 15.9997Z" fill="black"/>
</g>
<defs>
<clipPath id="clip0_319_2399">
<rect width="15" height="15" fill="white" transform="translate(31 6)"/>
</clipPath>
</defs>
</svg>
