<svg width="23" height="23" viewBox="0 0 23 23" fill="none" xmlns="http://www.w3.org/2000/svg">
<path d="M10.5418 1.91699V8.06374C9.21481 7.81745 7.84416 7.98617 6.6165 8.54691C5.38885 9.10765 4.36386 10.0332 3.68114 11.1974C2.99842 12.3616 2.69114 13.708 2.80114 15.0532C2.91115 16.3983 3.43311 17.6769 4.29592 18.7147C5.15874 19.7526 6.32047 20.4993 7.62292 20.8531C8.92537 21.2069 10.3052 21.1507 11.5746 20.6921C12.8439 20.2334 13.941 19.3947 14.7166 18.2901C15.4921 17.1855 15.9083 15.8687 15.9085 14.5191V10.9387C16.9387 11.3768 18.0473 11.6005 19.1668 11.5962H20.1251V6.22949H19.1668C17.3431 6.22949 15.9085 4.75653 15.9085 2.87533V1.91699H10.5418ZM12.4585 3.83366H14.0761C14.4537 5.96116 16.0695 7.66316 18.2085 8.05991V9.61049C17.2137 9.46483 16.3158 9.09108 15.4839 8.53428L13.9918 7.5357V14.5191C13.9917 15.4485 13.713 16.3566 13.1915 17.1261C12.6701 17.8955 11.93 18.4909 11.0668 18.8355C10.2035 19.18 9.25679 19.2578 8.34888 19.0588C7.44096 18.8598 6.61356 18.3932 5.97352 17.7192C5.33349 17.0453 4.91022 16.1949 4.7584 15.2779C4.60657 14.3609 4.73316 13.4195 5.1218 12.5752C5.51045 11.7309 6.14331 11.0225 6.93864 10.5415C7.73397 10.0605 8.65524 9.829 9.58347 9.87691V11.4141C8.95909 11.3659 8.33468 11.5071 7.79175 11.8192C7.24881 12.1312 6.81257 12.5997 6.53994 13.1635C6.26731 13.7273 6.17096 14.3602 6.26347 14.9795C6.35598 15.5989 6.63305 16.176 7.05853 16.6355C7.484 17.095 8.03811 17.4156 8.64854 17.5554C9.25897 17.6952 9.89737 17.6478 10.4804 17.4192C11.0635 17.1907 11.5641 16.7917 11.917 16.2744C12.2698 15.757 12.4585 15.1453 12.4585 14.5191V3.83366ZM8.14597 14.5191C8.14597 14.2014 8.27218 13.8967 8.49683 13.672C8.72148 13.4474 9.02618 13.3212 9.34388 13.3212C9.66159 13.3212 9.96629 13.4474 10.1909 13.672C10.4156 13.8967 10.5418 14.2014 10.5418 14.5191C10.5418 14.8368 10.4156 15.1415 10.1909 15.3661C9.96629 15.5908 9.66159 15.717 9.34388 15.717C9.02618 15.717 8.72148 15.5908 8.49683 15.3661C8.27218 15.1415 8.14597 14.8368 8.14597 14.5191Z" fill="black"/>
</svg>
