<svg width="290" height="121" viewBox="0 0 290 121" fill="none" xmlns="http://www.w3.org/2000/svg">
<path d="M44.0775 36.6489L43.041 41.8296L54.257 46.1115L69.6324 42.1059L67.6561 36.5845L44.0775 36.6489Z" fill="#EAB13B"/>
<path d="M86.4493 47.4022C82.8485 49.8597 79.1188 50.0904 75.5206 50.5251C63.7434 51.9443 51.9259 52.0329 40.1191 50.9409C36.478 50.6056 32.8584 49.9456 29.2576 49.2802C28.0143 49.0495 26.857 48.3465 25.6621 47.8583C25.6755 47.6329 25.6916 47.4102 25.7051 47.1848C31.2473 45.39 36.7278 43.3563 42.3666 41.937C44.2033 41.4756 46.4401 42.6265 48.4969 43.0102C54.6487 44.1585 60.7253 43.8392 66.7991 42.3261C68.2653 41.9612 70.016 41.9987 71.4606 42.4334C76.3665 43.9063 81.1998 45.6395 86.4493 47.4022ZM73.9041 46.4309C73.9122 46.7234 73.9229 47.0185 73.931 47.3109C68.7647 48.2312 63.6011 49.1487 58.4348 50.069C58.4482 50.2004 58.4643 50.3346 58.4778 50.4661C65.9291 49.6102 73.3778 48.757 80.8292 47.9012C80.8212 47.6946 80.8158 47.4907 80.8078 47.2841C77.4942 46.0929 74.1834 44.9043 70.8699 43.7131C70.8189 43.8258 70.7705 43.9412 70.7195 44.0539C71.7802 44.8453 72.8435 45.6395 73.9041 46.4309Z" fill="black"/>
<path d="M44.0762 36.649C44.8414 33.6683 45.4322 30.9344 46.2539 28.2729C47.2474 25.0561 48.7914 24.1171 51.9867 24.9193C54.5726 25.5712 57 25.6142 59.6073 24.8924C62.7758 24.0178 64.2473 24.922 65.2515 28.01C66.143 30.7493 66.817 33.5556 67.6548 36.5846C59.7254 37.859 52.1129 37.7946 44.0762 36.649ZM57.2094 35.7798C57.1772 35.8683 57.145 35.9568 57.1101 36.0454C59.8785 35.6403 62.6442 35.2324 65.4556 34.8193C65.3858 34.3444 65.3858 34.0627 65.3026 33.8051C64.8273 32.3322 64.3628 30.8512 63.8365 29.3971C62.5905 25.9522 61.5782 25.5015 57.8297 26.8027C58.6326 27.1327 59.3361 27.3554 59.9778 27.6934C61.9139 28.7156 62.3703 30.5373 62.4267 32.512C62.4804 34.28 60.8129 33.9607 59.8678 34.492C59.0139 34.9722 58.0982 35.3532 57.2094 35.7798Z" fill="black"/>
<path d="M51.7345 77.1936C46.2406 74.8756 40.9696 72.6541 35.5509 70.3682C37.0438 69.0107 38.3918 67.7846 39.831 66.4753C39.0335 65.0614 38.4347 64.0017 37.7876 62.856C34.8957 64.0312 32.1729 65.1392 28.9023 66.4699C30.1617 64.0339 31.2062 62.019 32.2454 60.0041C33.3759 57.8095 34.4285 55.5692 35.6878 53.4524C36.01 52.9131 37.0223 52.4248 37.6426 52.5053C38.5207 52.6207 39.5223 52.5643 39.9089 54.1151C41.7053 61.3241 45.137 67.4599 52.0889 71.047C52.5669 71.2939 52.8945 72.2034 52.9321 72.8285C52.9777 73.5663 52.6555 74.3336 52.4487 75.0768C52.2849 75.6778 52.054 76.2599 51.7345 77.1936Z" fill="black"/>
<path d="M82.7416 66.4321C78.9716 64.9162 75.744 63.6177 72.3741 62.2601C71.5954 63.2823 70.8382 64.2723 69.9521 65.434C71.6867 66.6199 73.2978 67.7226 75.215 69.0345C65.6477 70.3357 60.1968 76.9411 54.6788 83.5518C54.0585 79.6777 56.1073 73.2253 58.3494 70.2418C60.076 67.9453 61.8724 65.5467 64.1226 63.8296C67.2588 61.4365 68.5531 58.3484 69.2459 54.7238C69.3721 54.0665 70.0004 53.0926 70.516 53.0094C71.6975 52.8189 73.0964 51.7806 74.1544 53.3877C75.4299 55.3248 76.7778 57.2136 78.056 59.1506C79.5248 61.3828 80.9506 63.6445 82.7416 66.4321ZM68.3598 67.5643C62.8713 70.2901 58.4783 73.9201 56.1878 79.6589C60.46 74.5533 65.0704 69.9467 72.3338 68.5489C70.5428 67.2772 69.1438 66.2818 67.2454 64.9323C67.7556 66.137 68.0188 66.7594 68.3598 67.5643ZM70.3844 62.1448C72.2211 60.7362 72.2238 60.7309 74.3048 61.6216C75.8273 62.2735 77.339 62.9443 79.3825 63.8377C77.1645 60.4223 75.2285 57.4416 73.2925 54.4609C73.228 54.4931 73.1609 54.5253 73.0964 54.5575C73.5368 56.1484 73.9799 57.7394 74.4901 59.5772C73.416 59.3062 72.648 59.1131 71.8129 58.9038C71.3108 60.0387 70.8463 61.0904 70.3844 62.1448Z" fill="black"/>
<path d="M66.2215 54.6353C66.4766 56.7709 65.0481 59.2687 63.2249 59.9609C62.7657 60.1352 62.2797 60.2479 61.799 60.3552C58.4345 61.1065 58.3378 61.1521 56.7589 58.1392C55.368 55.4857 53.8777 55.5072 52.5029 58.0721C50.7629 61.3184 50.5588 61.2862 46.8775 60.264C44.4984 59.604 42.8389 57.3262 42.898 54.6353C50.6206 54.6353 58.3513 54.6353 66.2215 54.6353Z" fill="black"/>
<path d="M73.9049 46.4312C72.8443 45.6397 71.7809 44.8483 70.7203 44.0541C70.7713 43.9414 70.8196 43.8261 70.8706 43.7134C74.1842 44.9046 77.495 46.0931 80.8085 47.2844C80.8166 47.4909 80.8219 47.6948 80.83 47.9014C73.3786 48.7573 65.9299 49.6105 58.4785 50.4663C58.4651 50.3348 58.449 50.2007 58.4355 50.0692C63.6018 49.149 68.7681 48.2314 73.9317 47.3112C73.9237 47.0161 73.913 46.7236 73.9049 46.4312Z" fill="white"/>
<path d="M57.2099 35.7799C58.0987 35.3533 59.0117 34.9723 59.871 34.4894C60.8162 33.9582 62.4837 34.2801 62.4299 32.5094C62.3709 30.5348 61.9144 28.7131 59.9811 27.6909C59.3393 27.3528 58.6358 27.1275 57.8329 26.8001C61.5814 25.4989 62.5911 25.9497 63.8397 29.3945C64.366 30.8514 64.8305 32.3296 65.3058 33.8026C65.389 34.0601 65.3917 34.3445 65.4588 34.8167C62.6501 35.2299 59.8817 35.635 57.1133 36.0428C57.1455 35.957 57.1777 35.8684 57.2099 35.7799Z" fill="white"/>
<path d="M68.3602 67.5646C68.0192 66.7597 67.7533 66.1373 67.2431 64.9326C69.1416 66.2821 70.5405 67.2748 72.3316 68.5492C65.0681 69.947 60.4577 74.5536 56.1855 79.6592C58.4787 73.9204 62.8717 70.2904 68.3602 67.5646Z" fill="white"/>
<path d="M70.3848 62.1448C70.8466 61.0905 71.3112 60.0387 71.8079 58.9039C72.643 59.1131 73.411 59.3063 74.485 59.5773C73.9749 57.7395 73.5345 56.1485 73.0914 54.5575C73.1559 54.5253 73.223 54.4931 73.2875 54.4609C75.2235 57.4417 77.1595 60.4224 79.3774 63.8378C77.334 62.9444 75.8223 62.2709 74.2998 61.6217C72.2241 60.7309 72.2187 60.7363 70.3848 62.1448Z" fill="white"/>
<path d="M250.849 42.9746C251.378 40.9973 251.829 39.3231 252.277 37.6436C253.4 33.4314 254.536 29.2192 255.626 24.999C255.822 24.2424 256.141 23.9339 256.955 23.958C258.875 24.0144 260.8 23.9768 262.846 23.9768C262.763 24.3336 262.709 24.6207 262.626 24.9024C259.624 35.0814 256.611 45.2551 253.639 55.4422C253.429 56.1585 253.123 56.3678 252.425 56.3302C251.464 56.2766 250.497 56.2658 249.538 56.3302C248.765 56.3812 248.481 56.0539 248.276 55.3456C246.681 49.8375 245.043 44.3402 243.416 38.8429C243.338 38.5827 243.247 38.3251 243.078 37.81C242.895 38.3305 242.775 38.6229 242.689 38.9234C241.12 44.3322 239.533 49.7383 238.008 55.1578C237.761 56.0351 237.401 56.4214 236.459 56.3195C235.643 56.2336 234.802 56.2363 233.986 56.3248C233.113 56.4214 232.802 56.0431 232.582 55.2624C230.428 47.6644 228.242 40.0744 226.059 32.4844C225.262 29.7156 224.437 26.9522 223.557 23.9526C224.413 23.9526 225.181 23.9526 225.949 23.9526C227.085 23.9526 228.221 23.9875 229.354 23.9339C230.133 23.8963 230.506 24.1431 230.713 24.94C232.184 30.6251 233.707 36.2968 235.216 41.9712C235.275 42.1885 235.363 42.4005 235.514 42.8297C236.25 40.289 236.921 37.9548 237.6 35.6207C238.634 32.0578 239.695 28.5056 240.685 24.9319C240.903 24.1485 241.271 23.8748 242.05 23.9285C243.075 24.0009 244.37 23.6307 245.057 24.1297C245.734 24.6207 245.833 25.9487 246.12 26.9253C247.576 31.8673 249.007 36.8173 250.451 41.7619C250.535 42.0731 250.647 42.3736 250.849 42.9746Z" fill="#010101"/>
<path d="M100.746 56.3117C98.5522 56.3117 96.5598 56.3305 94.57 56.2849C94.3686 56.2795 94.1082 55.9173 94.0008 55.6651C93.9014 55.429 93.9659 55.1232 93.9659 54.8495C93.9605 44.8502 93.9551 34.851 93.9551 24.8517C93.9551 24.6156 93.9847 24.3768 94.0061 24.0495C94.3579 24.02 94.6909 23.969 95.0238 23.969C98.6354 23.9636 102.247 23.9422 105.856 23.9744C109.29 24.0066 112.475 24.7739 114.996 27.32C119.738 32.1063 119.513 41.7407 113.264 45.5773C113.152 45.6471 113.052 45.7437 112.832 45.9207C114.736 49.32 116.637 52.7166 118.662 56.3332C116.873 56.3332 115.284 56.148 113.753 56.3761C111.229 56.7517 109.857 55.7885 109.024 53.4249C108.415 51.6917 107.362 50.1141 106.557 48.4454C106.28 47.8739 105.95 47.6271 105.3 47.6458C103.831 47.6915 102.357 47.6593 100.746 47.6593C100.746 50.5568 100.746 53.3524 100.746 56.3117ZM100.738 41.5046C103.055 41.3973 105.249 41.4107 107.408 41.1558C108.976 40.9707 110.163 39.9861 110.896 38.54C112.738 34.8993 110.45 30.5502 106.401 30.1317C104.768 29.9627 103.109 30.0485 101.463 30.0083C100.947 29.9949 100.73 30.1988 100.733 30.7327C100.746 34.2258 100.738 37.7217 100.738 41.5046Z" fill="#010101"/>
<path d="M146.806 29.8875C141.946 29.8875 137.217 29.8875 132.3 29.8875C132.3 30.5609 132.3 31.127 132.3 31.6931C132.298 33.0667 132.292 34.4431 132.295 35.8167C132.295 37.1314 132.298 37.1394 133.665 37.1394C137.241 37.1421 140.818 37.1367 144.395 37.134C144.8 37.134 145.205 37.134 145.681 37.134C145.681 39.1543 145.681 41.0538 145.681 43.1036C141.239 43.1036 136.828 43.1036 132.29 43.1036C132.29 45.5075 132.268 47.7665 132.33 50.0228C132.335 50.1999 132.913 50.5031 133.227 50.5057C136.632 50.5406 140.036 50.5272 143.441 50.5272C144.601 50.5272 145.761 50.5272 146.991 50.5272C146.991 52.4911 146.991 54.3262 146.991 56.2499C139.886 56.2499 132.821 56.2499 125.644 56.2499C125.625 55.8394 125.59 55.437 125.59 55.0372C125.579 45.1077 125.59 35.1755 125.539 25.246C125.534 24.1755 125.851 23.934 126.871 23.9421C133.028 23.9796 139.183 23.9501 145.34 23.9448C146.806 23.9448 146.806 23.9528 146.806 25.3748C146.806 26.8423 146.806 28.3099 146.806 29.8875Z" fill="#010101"/>
<path d="M205.309 29.8822C205.309 32.2512 205.306 34.411 205.312 36.5707C205.314 37.2764 205.859 37.1556 206.281 37.1556C209.17 37.1583 212.06 37.1449 214.949 37.1395C215.945 37.1368 216.947 37.1046 217.94 37.1637C218.187 37.1771 218.619 37.4803 218.625 37.6627C218.676 39.4388 218.657 41.2149 218.657 43.0903C214.205 43.0903 209.852 43.0903 205.4 43.0903C205.4 45.5961 205.4 48.0081 205.4 50.5193C210.226 50.5193 214.994 50.5193 219.865 50.5193C219.865 52.4778 219.865 54.3344 219.865 56.2661C212.833 56.2661 205.835 56.2661 198.711 56.2661C198.711 55.6464 198.711 55.0722 198.711 54.4981C198.701 44.7376 198.706 34.9771 198.652 25.2166C198.647 24.1542 198.94 23.91 199.979 23.9207C206.101 23.9744 212.223 23.9476 218.346 23.9503C218.754 23.9503 219.159 23.9503 219.651 23.9503C219.651 25.9517 219.651 27.8512 219.651 29.8822C214.917 29.8822 210.188 29.8822 205.309 29.8822Z" fill="#010101"/>
<path d="M171.646 23.1133C173.469 24.6265 175.174 26.0055 176.817 27.4543C177.008 27.6206 176.978 28.2162 176.855 28.5355C173.729 36.536 170.58 44.5257 167.432 52.5182C167.016 53.5725 166.635 54.6457 166.152 55.6679C166.015 55.955 165.582 56.1079 165.279 56.3091C165.231 56.3413 165.145 56.3145 165.075 56.3145C162.596 56.3708 162.562 56.3869 161.659 54.0689C157.922 44.464 154.205 34.8511 150.486 25.2408C150.349 24.8894 150.237 24.5299 150.057 24.0201C150.508 23.9879 150.897 23.9396 151.286 23.9369C152.903 23.9262 154.527 24.0255 156.136 23.8967C157.202 23.8108 157.481 24.3555 157.758 25.1604C159.065 28.9969 160.384 32.8308 161.729 36.654C162.511 38.8782 163.351 41.0835 164.256 43.5545C166.756 36.6352 169.164 29.9708 171.646 23.1133Z" fill="#010101"/>
<path d="M103.272 77.8451C106.263 74.0353 109.144 70.3651 112.163 66.5205C112.23 66.9685 112.292 67.1805 112.292 67.3951C112.297 72.6885 112.278 77.9819 112.313 83.2753C112.318 84.1527 112.026 84.4263 111.188 84.3592C110.441 84.2975 109.684 84.3458 108.769 84.3458C108.769 81.797 108.769 79.3153 108.769 76.8336C108.677 76.8041 108.589 76.7746 108.497 76.7451C106.773 78.7975 105.047 80.85 103.183 83.0661C101.43 80.9197 99.7625 78.8726 97.9124 76.6083C97.9124 79.318 97.9124 81.738 97.9124 84.2519C96.6745 84.2519 95.5279 84.2519 94.3008 84.2519C94.3008 78.3736 94.3008 72.4873 94.3008 66.6009C94.3733 66.558 94.4431 66.5151 94.5156 66.4722C97.4049 70.2202 100.291 73.9736 103.272 77.8451Z" fill="#EAB13B"/>
<path d="M182.928 77.5151C184.407 79.7607 185.847 81.95 187.428 84.3512C186.035 84.3512 184.912 84.3888 183.795 84.3217C183.537 84.3056 183.234 83.981 183.062 83.7234C181.9 81.9795 180.769 80.2168 179.622 78.4595C179.483 78.2449 179.319 78.049 178.949 77.8854C178.949 79.9888 178.949 82.0949 178.949 84.2734C177.716 84.2734 176.634 84.2734 175.455 84.2734C175.455 78.6956 175.455 73.1178 175.455 67.2637C177.998 67.4005 180.541 67.3603 183.022 67.7305C184.918 68.0149 186.252 70.0083 186.429 72.0527C186.607 74.0917 185.527 76.1764 183.822 77.0751C183.556 77.2173 183.282 77.3407 182.928 77.5151ZM178.922 70.7864C178.922 71.3632 178.911 71.8354 178.924 72.3076C178.989 74.7464 178.403 74.4003 181.148 74.3842C182.278 74.3761 182.931 73.7322 182.99 72.7127C183.049 71.6744 182.383 70.8963 181.26 70.7971C180.549 70.7381 179.824 70.7864 178.922 70.7864Z" fill="#010101"/>
<path d="M247.123 84.2838C247.123 78.6551 247.123 73.1014 247.123 67.4404C247.488 67.4243 247.819 67.3948 248.149 67.3948C250.831 67.3894 253.514 67.4324 256.194 67.368C257.133 67.3438 257.407 67.6604 257.324 68.5404C257.26 69.2165 257.311 69.9033 257.311 70.727C255.044 70.727 252.867 70.727 250.56 70.727C250.56 71.7116 250.501 72.5648 250.6 73.3965C250.627 73.6246 251.127 73.9519 251.422 73.9653C252.829 74.027 254.241 73.9921 255.651 73.9948C256.022 73.9948 256.39 73.9948 256.905 73.9948C256.905 74.9848 256.954 75.8702 256.868 76.7394C256.849 76.9326 256.352 77.2143 256.067 77.2224C254.556 77.268 253.041 77.268 251.529 77.2277C250.823 77.2089 250.531 77.445 250.565 78.1694C250.608 79.0843 250.576 80.0019 250.576 81.0026C252.934 81.0026 255.122 81.0026 257.413 81.0026C257.413 82.1241 257.413 83.1624 257.413 84.2812C254.029 84.2838 250.646 84.2838 247.123 84.2838Z" fill="#010101"/>
<path d="M168.193 70.7673C167.017 70.7673 165.924 70.7673 164.829 70.7673C163.768 70.7673 162.707 70.7673 161.569 70.7673C161.569 71.8378 161.569 72.8144 161.569 73.9385C163.594 73.9385 165.634 73.9385 167.836 73.9385C167.836 74.958 167.895 75.8461 167.796 76.7153C167.772 76.9273 167.235 77.2278 166.926 77.2358C165.178 77.2868 163.427 77.26 161.593 77.26C161.593 78.5317 161.593 79.7095 161.593 81.0053C163.814 81.0053 165.997 81.0053 168.271 81.0053C168.271 82.159 168.271 83.1946 168.271 84.3C164.907 84.3 161.585 84.3 158.164 84.3C158.164 78.7141 158.164 73.139 158.164 67.478C161.475 67.478 164.791 67.478 168.193 67.478C168.193 68.5136 168.193 69.5546 168.193 70.7673Z" fill="#010101"/>
<path d="M241.018 70.4402C240.166 71.1109 239.366 71.7468 238.818 72.176C237.309 71.559 236.042 70.8185 234.678 70.5341C232.248 70.027 229.965 71.3282 228.999 73.4772C227.938 75.8355 228.542 78.5319 230.489 80.1148C232.301 81.5904 235.016 81.6468 237.033 80.2543C238.467 79.2643 238.467 79.2616 239.874 80.3268C240.172 80.5521 240.462 80.7855 240.746 81.0082C239.39 83.5409 235.322 85.1158 232.041 84.4263C228.115 83.5999 225.296 80.5387 225.019 76.7987C224.71 72.6187 226.891 69.0853 230.647 67.6714C234.334 66.287 238.722 67.4192 241.018 70.4402Z" fill="#010101"/>
<path d="M183.848 37.9873C185.212 39.149 186.382 40.3832 187.771 41.2793C189.922 42.669 190.598 44.4585 190.405 46.9751C190.174 50.0122 190.351 53.0815 190.351 56.2312C188.168 56.2312 186.06 56.2312 183.848 56.2312C183.848 50.2107 183.848 44.1902 183.848 37.9873Z" fill="#010101"/>
<path d="M148.805 71.6659C148.313 71.2768 147.953 70.7805 147.508 70.6893C146.979 70.5819 146.213 70.6463 145.864 70.971C145.615 71.2044 145.711 72.0844 145.953 72.5056C146.281 73.0771 146.885 73.4983 147.39 73.9624C148.225 74.7271 149.119 75.4354 149.914 76.2402C151.791 78.1397 152.191 80.16 151.149 82.1185C150.177 83.9456 147.937 84.9463 145.561 84.5359C143.534 84.1844 142.108 83.0012 141.104 81.0856C142.164 80.4497 143.147 79.8595 144.103 79.2854C144.578 79.8676 144.908 80.4068 145.362 80.8039C146.02 81.3754 146.801 81.4827 147.521 80.8871C148.136 80.3773 148.152 79.5322 147.446 78.7783C146.436 77.7051 145.295 76.7554 144.261 75.7037C143.614 75.0463 142.967 74.3568 142.489 73.5788C141.087 71.301 141.896 68.7683 144.307 67.6254C146.812 66.4395 149.704 67.29 151.216 69.761C150.413 70.3941 149.597 71.038 148.805 71.6659Z" fill="#010101"/>
<path d="M178.97 26.8022C180.498 26.7351 182.029 26.5768 183.551 26.6278C184.727 26.668 185.262 26.2656 185.552 25.12C185.887 23.8054 186.473 22.5524 187.203 21.2432C187.687 22.4585 188.186 23.6685 188.651 24.8919C189.29 26.5688 189.279 26.5527 191.03 26.6117C192.453 26.66 193.873 26.77 195.294 26.8532C195.329 26.9471 195.361 27.0383 195.396 27.1322C194.547 27.7895 193.707 28.4602 192.845 29.1041C190.522 30.8427 190.533 30.8346 191.443 33.6463C191.765 34.6471 192.007 35.6746 192.286 36.6888C192.214 36.7478 192.141 36.8041 192.069 36.8632C190.928 36.0851 189.778 35.3178 188.651 34.5263C187.139 33.4639 187.152 33.4639 185.622 34.5371C184.507 35.3178 183.374 36.069 182.246 36.8337C182.158 36.7746 182.066 36.7129 181.978 36.6539C182.394 35.2937 182.783 33.9254 183.229 32.5732C183.75 30.9849 183.761 31.0063 182.405 29.9734C181.213 29.0639 180.047 28.1195 178.871 27.1912C178.903 27.0624 178.938 26.931 178.97 26.8022Z" fill="#EAB13B"/>
<path d="M192.201 67.4107C193.388 67.4107 194.451 67.3463 195.496 67.451C195.799 67.4831 196.17 67.958 196.312 68.3122C197.416 71.0488 198.468 73.8068 199.542 76.5568C199.653 76.8412 199.787 77.1149 199.972 77.5388C200.141 77.1819 200.265 76.9566 200.361 76.7178C201.5 73.8846 202.655 71.0541 203.758 68.2075C203.997 67.5905 204.327 67.3597 204.977 67.3946C205.901 67.4429 206.827 67.408 207.923 67.408C205.267 73.3373 202.665 79.1512 199.943 85.2361C197.295 79.1405 194.776 73.34 192.201 67.4107Z" fill="#010101"/>
<path d="M125.195 73.6918C126.121 71.8514 127.026 70.1665 127.824 68.4306C128.2 67.6177 128.699 67.3118 129.572 67.387C130.353 67.4567 131.148 67.4004 132.077 67.4004C131.927 67.7438 131.838 67.9826 131.72 68.2053C130.227 70.9901 128.71 73.767 127.249 76.568C126.991 77.0616 126.854 77.668 126.841 78.226C126.793 80.2114 126.822 82.1967 126.822 84.2572C125.619 84.2572 124.537 84.2572 123.286 84.2572C123.286 82.5938 123.219 80.9519 123.305 79.3153C123.382 77.8209 123.036 76.5062 122.319 75.1943C120.955 72.6992 119.717 70.1343 118.326 67.4004C119.591 67.4004 120.703 67.3602 121.806 67.4326C122.04 67.4487 122.316 67.835 122.453 68.1087C123.229 69.6809 123.965 71.2692 124.72 72.8521C124.838 73.0909 124.983 73.3136 125.195 73.6918Z" fill="#EAB13B"/>
<path d="M217.597 84.2868C216.528 84.2868 215.475 84.2868 214.348 84.2868C214.348 78.6661 214.348 73.1017 214.348 67.4193C215.322 67.4193 216.241 67.379 217.154 67.4488C217.371 67.4649 217.742 67.8351 217.742 68.0444C217.761 73.3593 217.739 78.6741 217.72 83.989C217.723 84.0507 217.672 84.1124 217.597 84.2868Z" fill="#010101"/>
<path d="M132.392 96.8237V104.443H131.106V97.9881L129.801 98.6535V97.5481L131.106 96.8237H132.392Z" fill="black"/>
<path d="M137.091 104.521C136.215 104.521 135.563 104.325 135.125 103.936C134.69 103.547 134.473 103.019 134.473 102.356V98.8922C134.473 98.2187 134.693 97.6875 135.136 97.3039C135.576 96.9202 136.229 96.7271 137.091 96.7271C137.958 96.7271 138.611 96.9175 139.048 97.3012C139.489 97.6848 139.706 98.2134 139.706 98.8922V102.356C139.706 103.029 139.486 103.56 139.048 103.944C138.608 104.328 137.955 104.521 137.091 104.521ZM137.091 103.504C137.561 103.504 137.902 103.402 138.108 103.198C138.315 102.994 138.42 102.713 138.42 102.359V98.8922C138.42 98.5326 138.315 98.251 138.108 98.0497C137.902 97.8485 137.561 97.7466 137.091 97.7466C136.621 97.7466 136.28 97.8485 136.073 98.0497C135.866 98.251 135.762 98.5326 135.762 98.8922V102.356C135.762 102.713 135.866 102.992 136.073 103.196C136.28 103.402 136.621 103.504 137.091 103.504Z" fill="black"/>
<path d="M144.218 104.521C143.342 104.521 142.69 104.325 142.252 103.936C141.817 103.547 141.6 103.019 141.6 102.356V98.8922C141.6 98.2187 141.82 97.6875 142.263 97.3039C142.703 96.9202 143.356 96.7271 144.218 96.7271C145.085 96.7271 145.735 96.9175 146.175 97.3012C146.616 97.6848 146.833 98.2134 146.833 98.8922V102.356C146.833 103.029 146.613 103.56 146.175 103.944C145.735 104.328 145.082 104.521 144.218 104.521ZM144.218 103.504C144.688 103.504 145.029 103.402 145.235 103.198C145.442 102.994 145.547 102.713 145.547 102.359V98.8922C145.547 98.5326 145.442 98.251 145.235 98.0497C145.029 97.8485 144.688 97.7466 144.218 97.7466C143.748 97.7466 143.407 97.8485 143.2 98.0497C142.993 98.251 142.888 98.5326 142.888 98.8922V102.356C142.888 102.713 142.993 102.992 143.2 103.196C143.407 103.402 143.745 103.504 144.218 103.504Z" fill="black"/>
<path d="M149.937 100.089C149.449 100.089 149.073 99.9705 148.81 99.7344C148.546 99.4983 148.412 99.1683 148.412 98.7471V98.0924C148.412 97.6685 148.544 97.3412 148.81 97.1051C149.075 96.869 149.451 96.751 149.937 96.751C150.426 96.751 150.802 96.869 151.065 97.1078C151.328 97.3466 151.462 97.6766 151.462 98.1032V98.7471C151.462 99.171 151.331 99.4983 151.065 99.7344C150.799 99.9705 150.423 100.089 149.937 100.089ZM149.124 104.443L154.105 96.8234H155.232L150.251 104.443H149.124ZM149.937 99.2542C150.251 99.2542 150.41 99.1012 150.41 98.7981V98.0281C150.41 97.7356 150.251 97.588 149.937 97.588C149.623 97.588 149.465 97.7356 149.465 98.0334V98.7981C149.462 99.1012 149.62 99.2542 149.937 99.2542ZM154.494 104.521C154.005 104.521 153.629 104.403 153.366 104.167C153.103 103.93 152.969 103.6 152.969 103.179V102.525C152.969 102.101 153.1 101.773 153.366 101.537C153.632 101.301 154.008 101.183 154.494 101.183C154.98 101.183 155.359 101.301 155.622 101.54C155.885 101.779 156.019 102.109 156.019 102.535V103.179C156.019 103.603 155.888 103.93 155.622 104.167C155.356 104.403 154.983 104.521 154.494 104.521ZM154.494 103.686C154.808 103.686 154.967 103.533 154.967 103.23V102.46C154.967 102.168 154.808 102.02 154.494 102.02C154.18 102.02 154.021 102.168 154.021 102.466V103.23C154.021 103.536 154.18 103.686 154.494 103.686Z" fill="black"/>
<path d="M160.371 104.443L163.752 96.8237H164.85L168.231 104.443H166.842L164.302 98.2967L161.762 104.443H160.371ZM161.928 102.772V101.755H166.751V102.772H161.928Z" fill="black"/>
<path d="M169.49 104.443V99.0048H170.776V104.443H169.49ZM173.462 104.443V101.146C173.462 100.762 173.343 100.464 173.104 100.255C172.868 100.046 172.53 99.9412 172.092 99.9412C171.671 99.9412 171.348 100.032 171.117 100.22C170.887 100.408 170.774 100.666 170.774 101.001L170.642 99.9519C170.844 99.6246 171.107 99.3697 171.434 99.1926C171.759 99.0155 172.122 98.9243 172.516 98.9243C173.228 98.9243 173.776 99.1175 174.165 99.5038C174.554 99.8902 174.748 100.435 174.748 101.14V104.44H173.462V104.443Z" fill="black"/>
<path d="M179.214 104.521C178.358 104.521 177.692 104.314 177.222 103.901C176.752 103.488 176.516 102.906 176.516 102.155V101.269C176.516 100.526 176.752 99.9492 177.222 99.5387C177.692 99.1309 178.358 98.9243 179.214 98.9243C180.071 98.9243 180.737 99.1282 181.207 99.5387C181.677 99.9465 181.913 100.523 181.913 101.269V102.171C181.913 102.919 181.677 103.496 181.207 103.907C180.737 104.314 180.073 104.521 179.214 104.521ZM179.214 103.504C179.663 103.504 180.012 103.386 180.259 103.153C180.506 102.919 180.627 102.589 180.627 102.168V101.267C180.627 100.843 180.503 100.518 180.259 100.287C180.012 100.057 179.665 99.9412 179.214 99.9412C178.768 99.9412 178.422 100.057 178.172 100.287C177.925 100.518 177.799 100.845 177.799 101.267V102.168C177.799 102.592 177.923 102.919 178.172 103.153C178.422 103.386 178.768 103.504 179.214 103.504Z" fill="black"/>
<path d="M183.74 104.443V99.0048H185.026V104.443H183.74ZM187.714 104.443V101.146C187.714 100.762 187.596 100.464 187.357 100.255C187.121 100.046 186.783 99.9412 186.345 99.9412C185.923 99.9412 185.601 100.032 185.37 100.22C185.139 100.408 185.026 100.666 185.026 101.001L184.895 99.9519C185.096 99.6246 185.359 99.3697 185.687 99.1926C186.012 99.0155 186.374 98.9243 186.769 98.9243C187.481 98.9243 188.028 99.1175 188.418 99.5038C188.807 99.8902 189.001 100.435 189.001 101.14V104.44H187.714V104.443Z" fill="black"/>
<path d="M192.874 104.889L190.264 99.0051H191.574L193.585 103.732L192.874 104.889ZM194.745 99.0024H196.056L193.268 105.715C193.113 106.088 192.887 106.348 192.594 106.493C192.302 106.638 191.896 106.71 191.383 106.71H191.126V105.683H191.383C191.622 105.683 191.813 105.643 191.953 105.562C192.092 105.482 192.216 105.345 192.321 105.149L194.745 99.0024Z" fill="black"/>
<path d="M197.191 104.443V99.0048H198.478V104.443H197.191ZM201.101 104.443V101.146C201.101 100.762 200.988 100.464 200.76 100.255C200.532 100.046 200.212 99.9412 199.796 99.9412C199.374 99.9412 199.052 100.032 198.821 100.22C198.59 100.408 198.478 100.666 198.478 101.001L198.346 99.9519C198.547 99.6246 198.811 99.3697 199.138 99.1926C199.463 99.0155 199.826 98.9243 200.22 98.9243C200.91 98.9243 201.445 99.1175 201.823 99.5038C202.202 99.8902 202.39 100.435 202.39 101.14V104.44H201.101V104.443ZM205.011 104.443V101.146C205.011 100.762 204.893 100.464 204.654 100.255C204.415 100.046 204.079 99.9412 203.641 99.9412C203.241 99.9412 202.932 100.043 202.715 100.244C202.497 100.446 202.387 100.733 202.387 101.103L202.129 100.054C202.339 99.6916 202.613 99.4099 202.948 99.2168C203.284 99.0209 203.657 98.9243 204.065 98.9243C204.777 98.9243 205.325 99.1175 205.714 99.5038C206.104 99.8902 206.297 100.435 206.297 101.14V104.44H205.011V104.443Z" fill="black"/>
<path d="M210.761 104.521C209.905 104.521 209.239 104.314 208.769 103.901C208.299 103.488 208.062 102.906 208.062 102.155V101.269C208.062 100.526 208.299 99.9492 208.769 99.5387C209.239 99.1309 209.905 98.9243 210.761 98.9243C211.618 98.9243 212.284 99.1282 212.754 99.5387C213.223 99.9465 213.46 100.523 213.46 101.269V102.171C213.46 102.919 213.223 103.496 212.754 103.907C212.284 104.314 211.62 104.521 210.761 104.521ZM210.761 103.504C211.21 103.504 211.559 103.386 211.806 103.153C212.053 102.919 212.174 102.589 212.174 102.168V101.267C212.174 100.843 212.05 100.518 211.806 100.287C211.559 100.057 211.212 99.9412 210.761 99.9412C210.315 99.9412 209.969 100.057 209.719 100.287C209.472 100.518 209.346 100.845 209.346 101.267V102.168C209.346 102.592 209.47 102.919 209.719 103.153C209.969 103.386 210.315 103.504 210.761 103.504Z" fill="black"/>
<path d="M216.575 99.0024V102.308C216.575 102.689 216.69 102.984 216.924 103.19C217.157 103.397 217.485 103.502 217.909 103.502C218.334 103.502 218.661 103.408 218.889 103.223C219.118 103.035 219.233 102.772 219.233 102.434L219.322 103.571C219.204 103.816 218.997 104.036 218.704 104.229C218.411 104.422 218.025 104.519 217.549 104.519C216.827 104.519 216.269 104.325 215.874 103.939C215.479 103.553 215.283 103.008 215.283 102.308V99.0024H216.575ZM219.236 104.443V99.0051H220.517V104.443H219.236Z" fill="black"/>
<path d="M224.786 104.521C224.206 104.521 223.68 104.451 223.208 104.309C222.735 104.167 222.311 103.955 221.938 103.673L222.7 102.892C223.057 103.115 223.409 103.284 223.755 103.397C224.102 103.509 224.445 103.563 224.786 103.563C225.294 103.563 225.678 103.499 225.93 103.367C226.183 103.236 226.312 103.04 226.312 102.777C226.312 102.576 226.226 102.431 226.057 102.348C225.887 102.265 225.665 102.208 225.388 102.181C225.111 102.155 224.816 102.133 224.502 102.117C224.236 102.098 223.976 102.071 223.712 102.037C223.449 102.002 223.213 101.935 223.001 101.838C222.786 101.741 222.614 101.599 222.488 101.411C222.362 101.224 222.295 100.969 222.295 100.652C222.295 100.075 222.507 99.6434 222.931 99.359C223.355 99.0746 223.989 98.9297 224.829 98.9297C225.342 98.9297 225.82 98.986 226.261 99.1014C226.701 99.2168 227.117 99.3938 227.504 99.6299L226.728 100.411C226.4 100.236 226.078 100.105 225.759 100.019C225.442 99.9304 225.13 99.8875 224.829 99.8875C224.392 99.8875 224.064 99.9492 223.847 100.073C223.629 100.196 223.519 100.384 223.519 100.631C223.519 100.794 223.594 100.912 223.745 100.985C223.895 101.057 224.096 101.103 224.343 101.124C224.59 101.146 224.859 101.165 225.144 101.181C225.418 101.194 225.694 101.221 225.973 101.256C226.253 101.291 226.51 101.363 226.747 101.468C226.983 101.572 227.171 101.728 227.313 101.935C227.456 102.141 227.528 102.423 227.528 102.777C227.528 103.359 227.3 103.797 226.843 104.086C226.39 104.376 225.702 104.521 224.786 104.521Z" fill="black"/>
<path d="M95.623 91.8311H261.17" stroke="black" stroke-miterlimit="10"/>
</svg>
