<svg width="28" height="23" viewBox="0 0 28 23" fill="none" xmlns="http://www.w3.org/2000/svg">
<path d="M17.25 8.38574C17.25 -0.239258 5.75 -0.239258 5.75 8.38574V9.82324H4.18983C3.63113 9.82324 3.40113 10.541 3.85633 10.8659L5.75 12.2191C5.43087 13.3375 4.12083 15.7649 1.4375 16.5316C1.75662 17.0107 2.68333 17.9691 3.83333 17.9691L4.79167 19.4066L7.1875 18.9274C7.98579 19.5666 9.96667 20.8441 11.5 20.8441C13.0333 20.8441 15.0142 19.5666 15.8125 18.9274L18.2083 19.4066L19.1667 17.9691C20.3167 17.9691 21.2434 17.0107 21.5625 16.5316C18.8792 15.7649 17.5691 13.3375 17.25 12.2191L19.1437 10.8659C19.5989 10.541 19.3689 9.82324 18.8102 9.82324H17.25V8.38574Z" stroke="black" stroke-width="1.5" stroke-linecap="round" stroke-linejoin="round"/>
<line x1="27.5" y1="2" x2="27.5" y2="21" stroke="black"/>
</svg>
