<svg width="55" height="30" viewBox="0 0 55 30" fill="none" xmlns="http://www.w3.org/2000/svg">
<rect width="55" height="30" rx="4" fill="#EFF7F9"/>
<path d="M9.6924 9.375H20.3079C20.4139 9.375 20.5029 9.411 20.5749 9.483C20.6469 9.555 20.6829 9.64425 20.6829 9.75075C20.6829 9.85725 20.6469 9.94625 20.5749 10.0177C20.5029 10.0892 20.4139 10.125 20.3079 10.125H9.6924C9.5859 10.125 9.4969 10.089 9.4254 10.017C9.3539 9.945 9.3179 9.85575 9.3174 9.74925C9.3169 9.64275 9.3529 9.55375 9.4254 9.48225C9.4979 9.41075 9.5869 9.375 9.6924 9.375ZM9.98115 20.625C9.80965 20.625 9.66565 20.567 9.54915 20.451C9.43265 20.335 9.37465 20.191 9.37515 20.019V16.125H9.04215C8.85265 16.125 8.6949 16.0487 8.5689 15.8962C8.4429 15.7437 8.4049 15.5727 8.4549 15.3832L9.2049 12.0952C9.2359 11.9582 9.3079 11.8458 9.4209 11.7578C9.5339 11.6693 9.6624 11.625 9.8064 11.625H20.1939C20.3379 11.625 20.4664 11.669 20.5794 11.757C20.6924 11.8455 20.7644 11.9582 20.7954 12.0952L21.5454 15.3832C21.5954 15.5732 21.5574 15.7442 21.4314 15.8962C21.3054 16.0482 21.1479 16.1245 20.9589 16.125H20.6252V20.25C20.6252 20.3565 20.5892 20.4455 20.5172 20.517C20.4452 20.5885 20.3559 20.6245 20.2494 20.625C20.1429 20.6255 20.0539 20.5895 19.9824 20.517C19.9109 20.4445 19.8752 20.3555 19.8752 20.25V16.125H16.1252V20.019C16.1252 20.191 16.0672 20.335 15.9512 20.451C15.8352 20.567 15.6912 20.625 15.5192 20.625H9.98115ZM10.1252 19.875H15.3752V16.125H10.1252V19.875ZM9.21015 15.375H20.7902L20.0942 12.375H9.90615L9.21015 15.375Z" fill="black"/>
<g clip-path="url(#clip0_28_326)">
<path d="M46.6669 13.3333C45.9169 12.5416 44.9169 12 43.8752 11.7916C43.4169 11.6666 42.9586 11.5833 42.5002 11.5416C43.6669 10.1666 43.4586 8.08329 42.0836 6.91662C40.7086 5.74996 38.6252 5.95829 37.4586 7.33329C36.2919 8.70829 36.5002 10.7916 37.8752 11.9583C38.1252 12.1666 38.3752 12.3333 38.6252 12.4166V13.3333L37.9586 12.7083C37.3752 12.125 36.4169 12.125 35.7919 12.7083C35.2086 13.2916 35.1669 14.2083 35.7502 14.7916L37.6669 17.0416C37.7502 17.625 37.9586 18.1666 38.2502 18.6666C38.4586 19.0416 38.7502 19.4166 39.0419 19.7083V20.5C39.0419 20.75 39.2086 20.9166 39.4586 20.9166H45.1252C45.3336 20.9166 45.5419 20.7083 45.5419 20.5V19.4166C46.3336 18.4583 46.7502 17.25 46.7502 16.0416V13.625C46.7919 13.4583 46.7502 13.375 46.6669 13.3333ZM37.5002 9.41662C37.5002 8.04162 38.6252 6.95829 40.0002 6.99996C41.3752 6.99996 42.4586 8.12496 42.4169 9.49996C42.4169 10.25 42.0836 10.9166 41.5002 11.375V9.29162C41.479 8.93053 41.3204 8.59125 41.057 8.34334C40.7935 8.09543 40.4453 7.95766 40.0836 7.95829C39.3336 7.91662 38.6669 8.54162 38.6669 9.29162V11.4583C37.9586 11.0416 37.5419 10.25 37.5002 9.41662ZM45.9586 16C46.0002 17.0833 45.6252 18.125 44.9169 18.9583C44.8336 19.0416 44.7502 19.125 44.7502 19.25V20.125H39.9169V19.5416C39.9169 19.4166 39.8336 19.2916 39.7502 19.2083C39.4586 18.9583 39.2086 18.6666 39.0002 18.2916C38.7502 17.875 38.5836 17.375 38.5002 16.875C38.5002 16.7916 38.4586 16.7083 38.4169 16.625L36.4169 14.25C36.2919 14.125 36.2086 13.9583 36.2086 13.75C36.2086 13.5833 36.2919 13.375 36.4169 13.25C36.7086 13 37.1252 13 37.4169 13.25L38.6252 14.4583V15.7083L39.4169 15.2916V9.29162C39.4586 8.99996 39.7086 8.74996 40.0419 8.79162C40.3336 8.79162 40.6252 8.99996 40.6252 9.29162V14.0833L41.4586 14.25V12.3333C41.5002 12.2916 41.5419 12.2916 41.5836 12.25C41.8752 12.25 42.1669 12.2916 42.4586 12.3333V14.4583L43.1252 14.5833V12.4166L43.6252 12.5416C43.8336 12.5833 44.0419 12.6666 44.2502 12.75V14.8333L44.9169 14.9583V13.0416C45.2919 13.2083 45.6252 13.4583 45.9169 13.75L45.9586 16Z" fill="black"/>
</g>
<defs>
<clipPath id="clip0_28_326">
<rect width="15" height="15" fill="white" transform="translate(34 6)"/>
</clipPath>
</defs>
</svg>
