<svg width="157" height="156" viewBox="0 0 157 156" fill="none" xmlns="http://www.w3.org/2000/svg">
<g filter="url(#filter0_d_332_3447)">
<path d="M78.5 144C117.16 144 148.5 112.66 148.5 74C148.5 35.3401 117.16 4 78.5 4C39.8401 4 8.5 35.3401 8.5 74C8.5 112.66 39.8401 144 78.5 144Z" fill="#D9D9D9"/>
</g>
<path fill-rule="evenodd" clip-rule="evenodd" d="M71.3896 103H85.61C95.598 103 100.593 103 104.18 100.632C105.728 99.6103 107.061 98.2919 108.103 96.7521C110.5 93.2077 110.5 88.2681 110.5 78.3953C110.5 68.5192 110.5 63.5827 108.103 60.0382C107.061 58.4984 105.728 57.1801 104.18 56.1587C101.876 54.6346 98.99 54.0901 94.57 53.8968C92.462 53.8968 90.647 52.3178 90.234 50.2717C89.919 48.7729 89.099 47.4298 87.914 46.4693C86.729 45.5088 85.25 44.9899 83.729 45.0001H73.2712C70.1096 45.0001 67.3864 47.2074 66.7656 50.2717C66.3528 52.3178 64.5384 53.8968 62.4296 53.8968C58.0136 54.0901 55.1272 54.6378 52.82 56.1587C51.2732 57.1803 49.9412 58.4986 48.9 60.0382C46.5 63.5827 46.5 68.5192 46.5 78.3953C46.5 88.2681 46.5 93.2045 48.8968 96.7521C49.9336 98.2859 51.2648 99.6039 52.82 100.632C56.4072 103 61.4024 103 71.3896 103ZM78.5 65.2131C71.1368 65.2131 65.1656 71.113 65.1656 78.392C65.1656 85.6742 71.1368 91.5774 78.5 91.5774C85.863 91.5774 91.834 85.6743 91.834 78.3953C91.834 71.1131 85.863 65.2131 78.5 65.2131ZM78.5 70.4846C74.084 70.4846 70.5 74.026 70.5 78.3953C70.5 82.7614 74.084 86.3025 78.5 86.3025C82.916 86.3025 86.5 82.7614 86.5 78.3953C86.5 74.026 82.916 70.4846 78.5 70.4846ZM93.61 67.8489C93.61 66.3924 94.804 65.2131 96.279 65.2131H99.831C101.303 65.2131 102.5 66.3924 102.5 67.8489C102.493 68.5542 102.209 69.228 101.709 69.7222C101.209 70.2164 100.535 70.4907 99.834 70.4846H96.279C95.932 70.488 95.588 70.4226 95.266 70.2919C94.944 70.1613 94.65 69.9681 94.403 69.7234C94.155 69.4786 93.957 69.1871 93.821 68.8655C93.685 68.5438 93.614 68.1984 93.61 67.8489Z" fill="black"/>
<defs>
<filter id="filter0_d_332_3447" x="0.5" y="0" width="156" height="156" filterUnits="userSpaceOnUse" color-interpolation-filters="sRGB">
<feFlood flood-opacity="0" result="BackgroundImageFix"/>
<feColorMatrix in="SourceAlpha" type="matrix" values="0 0 0 0 0 0 0 0 0 0 0 0 0 0 0 0 0 0 127 0" result="hardAlpha"/>
<feOffset dy="4"/>
<feGaussianBlur stdDeviation="4"/>
<feColorMatrix type="matrix" values="0 0 0 0 0 0 0 0 0 0 0 0 0 0 0 0 0 0 0.1 0"/>
<feBlend mode="normal" in2="BackgroundImageFix" result="effect1_dropShadow_332_3447"/>
<feBlend mode="normal" in="SourceGraphic" in2="effect1_dropShadow_332_3447" result="shape"/>
</filter>
</defs>
</svg>
